<svg width="1440" height="113" viewBox="0 0 1440 113" fill="none" xmlns="http://www.w3.org/2000/svg">
<g clip-path="url(#clip0_2295_1908)">
<path opacity="0.05" d="M1460.16 98.8969V144.599H296.64L48.9597 112.383C48.9597 112.383 495.965 103.827 627.84 82.7887C780.48 58.4391 849.6 59.9375 1013.76 78.2934C1167.84 95.5254 1294.72 80.5186 1409.76 129.615L1460.16 98.8969Z" fill="white"/>
<path opacity="0.1" d="M-434.88 20.6035C-434.88 20.6035 -96.0911 98.616 72.0002 80.1665C256.32 59.9375 407.52 43.4547 508.32 52.82C641.779 65.2195 769.363 95.9713 846.72 93.2778C997.776 88.0333 1100.91 28.4478 1231.2 49.0739C1354.48 68.5873 1440 95.1509 1440 95.1509V122.872L-440.64 126.618L-434.88 20.6035Z" fill="white"/>
<path opacity="0.15" d="M-411.84 95.5255C-411.84 95.5255 -103.68 56.9407 74.8802 47.2008C253.44 37.4609 367.2 58.0645 627.84 85.0364C837.461 106.73 885.168 104.063 1019.52 85.0364C1133.28 68.9282 1452.96 1.12383 1573.92 61.436C1650.24 99.5076 1484.64 109.761 1484.64 109.761L1330.56 141.228L-414.72 145.723L-411.84 95.5255Z" fill="white"/>
<path opacity="0.3" d="M-34.5603 25.848C-34.5603 25.848 396.979 138.853 560.16 117.627C571.68 116.129 895.68 118.377 969.12 133.361C994.276 138.493 1216.8 83.9125 1281.6 68.1789C1360.51 49.0176 1465.92 34.464 1552.32 53.5691C1661.93 77.8064 1722.24 90.6555 1722.24 90.6555L1704.96 140.104L-40.3203 144.599L-34.5603 25.848Z" fill="white"/>
<path d="M-17.2803 75.2965C-17.2803 75.2965 83.5197 106.389 262.08 96.6493C440.64 86.9094 492.897 82.8749 656.64 98.8969C813.6 114.256 922.78 108.022 1038.24 93.2778C1117.44 83.1633 1206 71.6665 1346.4 94.7762C1416.96 106.389 1483.2 104.516 1483.2 104.516L1474.56 161.082L-17.2803 164.828V75.2965Z" fill="white"/>
</g>
<defs>
<clipPath id="clip0_2295_1908">
<rect width="1440" height="112.383" fill="white"/>
</clipPath>
</defs>
</svg>
