<svg width="360" height="61" viewBox="0 0 360 61" fill="none" xmlns="http://www.w3.org/2000/svg">
<g clip-path="url(#clip0_2402_2895)">
<path opacity="0.05" d="M531.554 53.8506V78.305H37.8659L-67.2261 61.0667C-67.2261 61.0667 122.441 56.4885 178.396 45.2315C243.162 32.2026 272.49 33.0043 342.144 42.8262C407.521 52.0466 461.356 44.0168 510.169 70.2872L531.554 53.8506Z" fill="white"/>
<path opacity="0.1" d="M-272.522 11.9576C-272.522 11.9576 -128.772 53.7004 -57.4499 43.8284C20.7581 33.0044 84.9131 24.1848 127.683 29.1959C184.311 35.8307 238.445 52.2852 271.268 50.844C335.362 48.0378 379.122 16.155 434.405 27.1915C486.713 37.6327 523 51.8462 523 51.8462V66.6792L-274.966 68.6836L-272.522 11.9576Z" fill="white"/>
<path opacity="0.15" d="M-262.746 52.0467C-262.746 52.0467 -131.992 31.4008 -56.2279 26.1892C19.5361 20.9777 67.8051 32.0022 178.396 46.4342C267.339 58.042 287.582 56.6148 344.588 46.4342C392.857 37.8151 528.499 1.5345 579.823 33.8062C612.206 54.1774 541.941 59.6636 541.941 59.6636L476.564 76.501L-263.968 78.9063L-262.746 52.0467Z" fill="white"/>
<path opacity="0.3" d="M-102.664 14.7639C-102.664 14.7639 80.4403 75.2302 149.679 63.873C154.567 63.0712 292.042 64.2739 323.203 72.2917C333.877 75.0378 428.295 45.8329 455.79 37.4142C489.273 27.1615 533.998 19.3742 570.658 29.5969C617.167 42.5657 642.756 49.4409 642.756 49.4409L635.424 75.8997L-105.108 78.305L-102.664 14.7639Z" fill="white"/>
<path d="M-95.3322 41.2227C-95.3322 41.2227 -52.5622 57.8596 23.2018 52.648C98.9659 47.4365 121.139 45.2777 190.616 53.8507C257.215 62.069 303.541 58.7336 352.531 50.844C386.136 45.432 423.712 39.2803 483.285 51.6458C513.224 57.8596 541.33 56.8574 541.33 56.8574L537.664 87.1246L-95.3322 89.1291V41.2227Z" fill="white"/>
</g>
<defs>
<clipPath id="clip0_2402_2895">
<rect width="611" height="60.1336" fill="white" transform="translate(-88 0.933228)"/>
</clipPath>
</defs>
</svg>
