<svg width="360" height="695" viewBox="0 0 360 695" fill="none" xmlns="http://www.w3.org/2000/svg">
<g opacity="0.6">
<g style="mix-blend-mode:luminosity">
<path d="M315.787 426.626C315.787 427.534 315.051 428.27 314.143 428.27C313.234 428.27 312.498 427.534 312.498 426.626C312.498 425.717 313.234 424.981 314.143 424.981C315.05 424.981 315.787 425.717 315.787 426.626Z" fill="white" fill-opacity="0.7"/>
<path d="M143.426 554.251C143.426 555.16 142.69 555.896 141.782 555.896C140.873 555.896 140.137 555.16 140.137 554.251C140.137 553.343 140.873 552.607 141.782 552.607C142.69 552.607 143.426 553.343 143.426 554.251Z" fill="white" fill-opacity="0.7"/>
<path d="M329.003 566.089C329.003 566.997 328.267 567.734 327.358 567.734C326.45 567.734 325.714 566.997 325.714 566.089C325.714 565.18 326.45 564.444 327.358 564.444C328.266 564.444 329.003 565.18 329.003 566.089Z" fill="white" fill-opacity="0.7"/>
<path d="M356.625 486.03L357.67 488.946L360.586 489.991L357.67 491.035L356.625 493.951L355.581 491.035L352.665 489.991L355.581 488.946L356.625 486.03Z" fill="white" fill-opacity="0.7"/>
<path d="M295.41 473.612L296.35 476.236L298.974 477.176L296.35 478.116L295.41 480.74L294.47 478.116L291.845 477.176L294.47 476.236L295.41 473.612Z" fill="white" fill-opacity="0.7"/>
<path d="M332.531 668.531L333.471 671.156L336.095 672.095L333.471 673.035L332.531 675.66L331.591 673.035L328.966 672.095L331.591 671.156L332.531 668.531Z" fill="white" fill-opacity="0.7"/>
<path d="M179.872 588.84L180.655 591.027L182.842 591.81L180.655 592.593L179.872 594.78L179.088 592.593L176.901 591.81L179.088 591.027L179.872 588.84Z" fill="white" fill-opacity="0.7"/>
</g>
<g style="mix-blend-mode:luminosity">
<path d="M171.612 573.887C171.612 572.978 172.348 572.242 173.256 572.242C174.165 572.242 174.901 572.978 174.901 573.887C174.901 574.795 174.165 575.532 173.256 575.532C172.349 575.532 171.612 574.795 171.612 573.887Z" fill="white" fill-opacity="0.7"/>
<path d="M19.6291 654.527L18.6891 651.902L16.0647 650.962L18.6891 650.022L19.6291 647.398L20.5691 650.022L23.1936 650.962L20.5691 651.902L19.6291 654.527Z" fill="white" fill-opacity="0.7"/>
<path d="M135.166 539.299L134.383 537.112L132.196 536.329L134.383 535.545L135.166 533.358L135.95 535.545L138.137 536.329L135.95 537.112L135.166 539.299Z" fill="white" fill-opacity="0.7"/>
</g>
<g style="mix-blend-mode:luminosity">
<path d="M137.002 471.031C138.638 471.031 139.963 472.356 139.963 473.991C139.963 475.627 138.638 476.952 137.002 476.952C135.367 476.952 134.042 475.627 134.042 473.991C134.042 472.357 135.367 471.031 137.002 471.031Z" fill="white" fill-opacity="0.7"/>
<path d="M169.897 331.844C170.805 331.844 171.541 332.58 171.541 333.488C171.541 334.397 170.805 335.133 169.897 335.133C168.988 335.133 168.252 334.397 168.252 333.488C168.252 332.581 168.988 331.844 169.897 331.844Z" fill="white" fill-opacity="0.7"/>
<path d="M297.522 504.204C298.431 504.204 299.167 504.94 299.167 505.849C299.167 506.758 298.431 507.494 297.522 507.494C296.613 507.494 295.877 506.758 295.877 505.849C295.877 504.941 296.613 504.204 297.522 504.204Z" fill="white" fill-opacity="0.7"/>
<path d="M309.359 318.629C310.268 318.629 311.004 319.365 311.004 320.273C311.004 321.182 310.268 321.918 309.359 321.918C308.451 321.918 307.714 321.182 307.714 320.273C307.714 319.366 308.451 318.629 309.359 318.629Z" fill="white" fill-opacity="0.7"/>
<path d="M107.323 335.15L110.239 334.106L111.284 331.19L112.328 334.106L115.244 335.15L112.328 336.195L111.284 339.111L110.239 336.195L107.323 335.15Z" fill="white" fill-opacity="0.7"/>
<path d="M229.3 291.006L232.216 289.962L233.261 287.046L234.305 289.962L237.221 291.006L234.305 292.051L233.261 294.967L232.216 292.051L229.3 291.006Z" fill="white" fill-opacity="0.7"/>
<path d="M216.882 352.222L219.506 351.282L220.446 348.657L221.386 351.282L224.011 352.222L221.386 353.162L220.446 355.786L219.506 353.162L216.882 352.222Z" fill="white" fill-opacity="0.7"/>
<path d="M332.11 467.759L334.297 466.976L335.08 464.789L335.863 466.976L338.05 467.759L335.863 468.543L335.08 470.73L334.297 468.543L332.11 467.759Z" fill="white" fill-opacity="0.7"/>
</g>
<g style="mix-blend-mode:luminosity">
<path d="M332.3 605.149C332.3 604.24 331.564 603.504 330.655 603.504C329.747 603.504 329.011 604.24 329.011 605.149C329.011 606.058 329.747 606.794 330.655 606.794C331.563 606.794 332.3 606.058 332.3 605.149Z" fill="white" fill-opacity="0.7"/>
</g>
<g style="mix-blend-mode:luminosity" opacity="0.4">
<path d="M276.396 664.053C276.53 663.489 277.089 663.139 277.645 663.271C278.2 663.403 278.542 663.967 278.407 664.532C278.273 665.096 277.714 665.446 277.159 665.314C276.604 665.182 276.262 664.618 276.396 664.053Z" fill="white" fill-opacity="0.7"/>
<path d="M268.396 530.109C268.53 529.545 269.089 529.195 269.645 529.327C270.2 529.459 270.542 530.023 270.408 530.587C270.273 531.152 269.715 531.502 269.159 531.37C268.604 531.238 268.262 530.673 268.396 530.109Z" fill="white" fill-opacity="0.7"/>
<path d="M135.95 675.423L135.742 673.46L134.113 672.387L136.051 672.163L137.12 670.504L137.328 672.467L138.957 673.539L137.019 673.764L135.95 675.423Z" fill="white" fill-opacity="0.7"/>
<path d="M171.548 692.038L171.361 690.271L169.895 689.306L171.639 689.103L172.601 687.61L172.788 689.377L174.254 690.342L172.511 690.544L171.548 692.038Z" fill="white" fill-opacity="0.7"/>
<path d="M259.22 637.269L259.064 635.797L257.842 634.992L259.295 634.824L260.097 633.58L260.253 635.052L261.475 635.856L260.022 636.025L259.22 637.269Z" fill="white" fill-opacity="0.7"/>
</g>
<g style="mix-blend-mode:luminosity" opacity="0.4">
<path d="M25.4842 575.721C24.9199 575.587 24.5697 575.028 24.7019 574.473C24.834 573.917 25.3982 573.576 25.9626 573.71C26.5269 573.844 26.8771 574.403 26.745 574.959C26.6129 575.514 26.0486 575.855 25.4842 575.721Z" fill="white" fill-opacity="0.7"/>
<path d="M53.4682 680.568L51.7014 680.755L50.7359 682.221L50.5338 680.477L49.0404 679.515L50.8072 679.328L51.7727 677.862L51.9748 679.606L53.4682 680.568Z" fill="white" fill-opacity="0.7"/>
</g>
<g style="mix-blend-mode:luminosity" opacity="0.4">
<path d="M262.059 647.755C261.925 648.319 261.366 648.67 260.811 648.537C260.255 648.405 259.914 647.841 260.048 647.277C260.182 646.712 260.741 646.362 261.296 646.494C261.852 646.626 262.193 647.191 262.059 647.755Z" fill="white" fill-opacity="0.7"/>
<path d="M279.236 674.54L279.392 676.012L280.613 676.817L279.16 676.985L278.358 678.23L278.202 676.757L276.981 675.953L278.434 675.784L279.236 674.54Z" fill="white" fill-opacity="0.7"/>
</g>
<g style="mix-blend-mode:luminosity" opacity="0.4">
<path d="M174.776 672.726C174.22 672.594 173.879 672.029 174.013 671.465C174.147 670.901 174.706 670.551 175.261 670.683C175.817 670.815 176.158 671.379 176.024 671.943C175.89 672.507 175.331 672.858 174.776 672.726Z" fill="white" fill-opacity="0.7"/>
<path d="M42.6312 681.78C42.0756 681.647 41.7343 681.083 41.8685 680.519C42.0027 679.955 42.5615 679.604 43.1171 679.737C43.6727 679.869 44.0141 680.433 43.8799 680.997C43.7458 681.561 43.1868 681.912 42.6312 681.78Z" fill="white" fill-opacity="0.7"/>
<path d="M148.24 690.332L146.787 690.501L145.985 691.745L145.829 690.273L144.607 689.468L146.06 689.3L146.862 688.055L147.018 689.528L148.24 690.332Z" fill="white" fill-opacity="0.7"/>
</g>
<g style="mix-blend-mode:luminosity" opacity="0.4">
<path d="M337.021 468.384C337.156 467.82 337.714 467.47 338.27 467.602C338.826 467.734 339.167 468.298 339.033 468.863C338.899 469.427 338.34 469.777 337.784 469.645C337.229 469.513 336.887 468.949 337.021 468.384Z" fill="white" fill-opacity="0.7"/>
<path d="M329.801 507.73L329.593 505.767L327.964 504.695L329.901 504.47L330.971 502.811L331.179 504.774L332.807 505.847L330.87 506.071L329.801 507.73Z" fill="white" fill-opacity="0.7"/>
<path d="M320.823 425.548L320.616 423.585L318.987 422.512L320.924 422.288L321.993 420.628L322.201 422.591L323.83 423.664L321.893 423.889L320.823 425.548Z" fill="white" fill-opacity="0.7"/>
<path d="M356.423 442.163L356.235 440.396L354.769 439.43L356.513 439.228L357.476 437.735L357.663 439.502L359.129 440.467L357.385 440.669L356.423 442.163Z" fill="white" fill-opacity="0.7"/>
</g>
<g style="mix-blend-mode:luminosity" opacity="0.4">
<path d="M264.564 450.095C264 449.96 263.65 449.402 263.782 448.846C263.914 448.29 264.478 447.949 265.043 448.083C265.607 448.217 265.957 448.776 265.825 449.332C265.693 449.887 265.129 450.229 264.564 450.095Z" fill="white" fill-opacity="0.7"/>
<path d="M130.621 458.093C130.056 457.959 129.706 457.4 129.838 456.845C129.97 456.289 130.535 455.948 131.099 456.082C131.663 456.216 132.013 456.775 131.881 457.331C131.749 457.886 131.185 458.228 130.621 458.093Z" fill="white" fill-opacity="0.7"/>
<path d="M210.358 325.846C209.794 325.712 209.443 325.153 209.576 324.597C209.708 324.042 210.272 323.7 210.836 323.835C211.401 323.969 211.751 324.528 211.619 325.083C211.487 325.638 210.922 325.98 210.358 325.846Z" fill="white" fill-opacity="0.7"/>
<path d="M76.4137 333.845C75.8493 333.71 75.4992 333.152 75.6313 332.596C75.7634 332.04 76.3277 331.699 76.892 331.833C77.4564 331.967 77.8065 332.526 77.6744 333.082C77.5424 333.637 76.978 333.979 76.4137 333.845Z" fill="white" fill-opacity="0.7"/>
<path d="M176.018 437.574C175.453 437.44 175.103 436.881 175.235 436.325C175.367 435.77 175.932 435.428 176.496 435.563C177.06 435.697 177.41 436.256 177.278 436.811C177.146 437.366 176.582 437.708 176.018 437.574Z" fill="white" fill-opacity="0.7"/>
<path d="M303.91 457.315L301.947 457.523L300.874 459.152L300.65 457.215L298.99 456.145L300.953 455.937L302.026 454.308L302.251 456.246L303.91 457.315Z" fill="white" fill-opacity="0.7"/>
<path d="M221.728 466.291L219.764 466.499L218.692 468.128L218.467 466.191L216.808 465.121L218.771 464.913L219.844 463.284L220.068 465.222L221.728 466.291Z" fill="white" fill-opacity="0.7"/>
<path d="M238.342 430.693L236.575 430.88L235.61 432.346L235.407 430.602L233.914 429.64L235.681 429.453L236.646 427.987L236.848 429.73L238.342 430.693Z" fill="white" fill-opacity="0.7"/>
<path d="M111.875 424.6L110.108 424.787L109.143 426.253L108.941 424.509L107.447 423.547L109.214 423.359L110.179 421.893L110.382 423.637L111.875 424.6Z" fill="white" fill-opacity="0.7"/>
<path d="M183.574 343.021L182.101 343.177L181.297 344.399L181.128 342.946L179.884 342.144L181.356 341.988L182.161 340.766L182.329 342.219L183.574 343.021Z" fill="white" fill-opacity="0.7"/>
</g>
<g style="mix-blend-mode:luminosity" opacity="0.4">
<path d="M280.085 557.522C279.53 557.39 279.188 556.826 279.323 556.261C279.457 555.697 280.016 555.347 280.571 555.479C281.127 555.611 281.468 556.175 281.334 556.74C281.2 557.304 280.641 557.654 280.085 557.522Z" fill="white" fill-opacity="0.7"/>
<path d="M359.651 422.85C359.095 422.718 358.754 422.154 358.888 421.59C359.022 421.025 359.581 420.675 360.137 420.807C360.692 420.939 361.034 421.504 360.899 422.068C360.765 422.632 360.206 422.983 359.651 422.85Z" fill="white" fill-opacity="0.7"/>
<path d="M227.506 431.904C226.951 431.772 226.61 431.208 226.744 430.644C226.878 430.079 227.437 429.729 227.992 429.861C228.548 429.993 228.889 430.558 228.755 431.122C228.621 431.686 228.062 432.036 227.506 431.904Z" fill="white" fill-opacity="0.7"/>
<path d="M324.999 536.396C324.443 536.264 324.102 535.7 324.236 535.135C324.37 534.571 324.929 534.221 325.485 534.353C326.041 534.485 326.382 535.049 326.248 535.614C326.114 536.178 325.555 536.528 324.999 536.396Z" fill="white" fill-opacity="0.7"/>
<path d="M261.837 523.689L260.093 523.891L259.131 525.385L258.944 523.618L257.478 522.652L259.222 522.45L260.184 520.957L260.371 522.724L261.837 523.689Z" fill="white" fill-opacity="0.7"/>
<path d="M333.115 440.457L331.662 440.626L330.86 441.87L330.704 440.398L329.482 439.593L330.936 439.425L331.738 438.18L331.893 439.652L333.115 440.457Z" fill="white" fill-opacity="0.7"/>
</g>
</g>
<g opacity="0.6">
<g style="mix-blend-mode:luminosity">
<path d="M228.748 343.981C228.428 345.576 226.876 346.609 225.281 346.289C223.686 345.97 222.653 344.418 222.973 342.823C223.293 341.228 224.844 340.195 226.44 340.515C228.033 340.835 229.068 342.386 228.748 343.981Z" fill="white" fill-opacity="0.7"/>
<path d="M177.921 344.551C177.743 345.437 176.881 346.011 175.995 345.833C175.109 345.656 174.535 344.794 174.713 343.908C174.89 343.022 175.752 342.448 176.638 342.625C177.524 342.803 178.098 343.665 177.921 344.551Z" fill="white" fill-opacity="0.7"/>
<path d="M143.662 494.737L143.998 497.023L145.978 498.215L143.692 498.551L142.5 500.531L142.164 498.245L140.184 497.053L142.471 496.717L143.662 494.737Z" fill="white" fill-opacity="0.7"/>
</g>
<g style="mix-blend-mode:luminosity">
<path d="M66.9316 623.765C67.1093 622.879 67.9711 622.305 68.8573 622.483C69.7434 622.661 70.3173 623.523 70.1395 624.409C69.9618 625.295 69.1 625.869 68.2139 625.691C67.3286 625.514 66.7539 624.652 66.9316 623.765Z" fill="white" fill-opacity="0.7"/>
<path d="M46.1256 415.476C46.3033 414.589 47.1651 414.016 48.0512 414.193C48.9373 414.371 49.5112 415.233 49.3335 416.119C49.1558 417.005 48.294 417.579 47.4079 417.401C46.5226 417.224 45.9479 416.362 46.1256 415.476Z" fill="white" fill-opacity="0.7"/>
<path d="M239.183 324.72C239.361 323.834 240.222 323.26 241.108 323.437C241.995 323.615 242.568 324.477 242.391 325.363C242.213 326.249 241.351 326.823 240.465 326.645C239.58 326.468 239.005 325.606 239.183 324.72Z" fill="white" fill-opacity="0.7"/>
<path d="M81.3209 485.169C81.4986 484.283 82.3604 483.709 83.2465 483.886C84.1327 484.064 84.7065 484.926 84.5288 485.812C84.3511 486.698 83.4893 487.272 82.6032 487.094C81.7179 486.917 81.1432 486.055 81.3209 485.169Z" fill="white" fill-opacity="0.7"/>
<path d="M57.9189 685.436L57.4706 682.388L54.8309 680.799L57.8791 680.351L59.4681 677.711L59.9163 680.759L62.556 682.348L59.5078 682.797L57.9189 685.436Z" fill="white" fill-opacity="0.7"/>
<path d="M38.724 557.843L38.2758 554.795L35.6361 553.206L38.6843 552.758L40.2732 550.119L40.7215 553.167L43.3612 554.756L40.3129 555.204L38.724 557.843Z" fill="white" fill-opacity="0.7"/>
<path d="M95.9964 581.928L95.593 579.185L93.2173 577.755L95.9607 577.351L97.3907 574.976L97.7941 577.719L100.17 579.149L97.4264 579.552L95.9964 581.928Z" fill="white" fill-opacity="0.7"/>
</g>
<g style="mix-blend-mode:luminosity">
<path d="M234.315 282.313C235.201 282.491 235.775 283.352 235.597 284.239C235.419 285.125 234.558 285.699 233.671 285.521C232.785 285.343 232.211 284.481 232.389 283.595C232.567 282.71 233.429 282.135 234.315 282.313Z" fill="white" fill-opacity="0.7"/>
<path d="M172.644 273.299L175.692 272.851L177.281 270.211L177.729 273.259L180.368 274.848L177.32 275.297L175.731 277.936L175.283 274.888L172.644 273.299Z" fill="white" fill-opacity="0.7"/>
<path d="M300.237 254.105L303.285 253.656L304.874 251.017L305.322 254.065L307.961 255.654L304.913 256.102L303.324 258.742L302.876 255.694L300.237 254.105Z" fill="white" fill-opacity="0.7"/>
<path d="M276.152 311.376L278.896 310.973L280.326 308.597L280.729 311.341L283.105 312.771L280.361 313.174L278.931 315.55L278.528 312.806L276.152 311.376Z" fill="white" fill-opacity="0.7"/>
</g>
</g>
<g opacity="0.6">
<g style="mix-blend-mode:luminosity">
<path d="M34.4811 601.442L37.3369 600.286L38.257 597.345L39.4128 600.201L42.3531 601.122L39.4973 602.277L38.5773 605.218L37.4214 602.362L34.4811 601.442Z" fill="white" fill-opacity="0.7"/>
</g>
<g style="mix-blend-mode:luminosity">
<path d="M104.932 413.169C104.895 412.266 105.597 411.505 106.5 411.468C107.403 411.431 108.164 412.133 108.201 413.036C108.238 413.939 107.536 414.7 106.633 414.737C105.731 414.774 104.969 414.072 104.932 413.169Z" fill="white" fill-opacity="0.7"/>
<path d="M26.5874 696.931L25.5471 694.36L22.9008 693.532L25.4711 692.492L26.2992 689.846L27.3395 692.416L29.9859 693.244L27.4155 694.284L26.5874 696.931Z" fill="white" fill-opacity="0.7"/>
</g>
<g style="mix-blend-mode:luminosity">
<path d="M205.945 301.423C205.042 301.46 204.34 302.221 204.377 303.124C204.414 304.027 205.175 304.729 206.078 304.692C206.981 304.655 207.683 303.894 207.646 302.991C207.61 302.089 206.848 301.386 205.945 301.423Z" fill="white" fill-opacity="0.7"/>
<path d="M269.266 347.098C268.363 347.135 267.661 347.896 267.698 348.799C267.734 349.702 268.496 350.404 269.399 350.367C270.302 350.331 271.004 349.569 270.967 348.666C270.93 347.764 270.169 347.062 269.266 347.098Z" fill="white" fill-opacity="0.7"/>
<path d="M347.715 316.409L344.775 315.489L343.619 312.633L342.699 315.573L339.843 316.729L342.784 317.649L343.939 320.505L344.86 317.565L347.715 316.409Z" fill="white" fill-opacity="0.7"/>
<path d="M362.533 376.746L359.887 375.917L358.847 373.347L358.019 375.993L355.449 377.034L358.095 377.862L359.135 380.432L359.963 377.786L362.533 376.746Z" fill="white" fill-opacity="0.7"/>
<path d="M167.311 347.735L164.665 346.906L163.624 344.336L162.796 346.983L160.226 348.023L162.872 348.851L163.913 351.421L164.741 348.775L167.311 347.735Z" fill="white" fill-opacity="0.7"/>
<path d="M163.269 470.207L161.063 469.517L160.197 467.375L159.507 469.58L157.365 470.447L159.57 471.137L160.437 473.279L161.127 471.074L163.269 470.207Z" fill="white" fill-opacity="0.7"/>
</g>
</g>
<g opacity="0.6">
<g style="mix-blend-mode:luminosity">
<path d="M332.176 45.0644C332.176 45.973 331.44 46.709 330.531 46.709C329.623 46.709 328.886 45.973 328.886 45.0644C328.886 44.1558 329.623 43.4197 330.531 43.4197C331.439 43.4197 332.176 44.1558 332.176 45.0644Z" fill="white" fill-opacity="0.7"/>
<path d="M287.234 85.7659L288.174 88.3903L290.798 89.3302L288.174 90.2702L287.234 92.8945L286.294 90.2702L283.669 89.3302L286.294 88.3903L287.234 85.7659Z" fill="white" fill-opacity="0.7"/>
<path d="M134.575 6.07431L135.358 8.2613L137.545 9.04459L135.358 9.82788L134.575 12.0149L133.792 9.82788L131.605 9.04459L133.792 8.2613L134.575 6.07431Z" fill="white" fill-opacity="0.7"/>
</g>
<g style="mix-blend-mode:luminosity">
</g>
<g style="mix-blend-mode:luminosity">
<path d="M128.008 232.685C128.917 232.685 129.653 233.421 129.653 234.33C129.653 235.238 128.917 235.974 128.008 235.974C127.1 235.974 126.364 235.238 126.364 234.33C126.364 233.422 127.1 232.685 128.008 232.685Z" fill="white" fill-opacity="0.7"/>
<path d="M329.213 170.999C330.121 170.999 330.857 171.735 330.857 172.644C330.857 173.553 330.121 174.289 329.213 174.289C328.304 174.289 327.568 173.553 327.568 172.644C327.568 171.736 328.304 170.999 329.213 170.999Z" fill="white" fill-opacity="0.7"/>
<path d="M255.635 405.045C256.543 405.045 257.279 405.781 257.279 406.69C257.279 407.599 256.543 408.335 255.635 408.335C254.726 408.335 253.99 407.599 253.99 406.69C253.99 405.782 254.726 405.045 255.635 405.045Z" fill="white" fill-opacity="0.7"/>
<path d="M267.472 219.47C268.38 219.47 269.116 220.206 269.116 221.114C269.116 222.023 268.38 222.759 267.472 222.759C266.563 222.759 265.827 222.023 265.827 221.114C265.827 220.207 266.563 219.47 267.472 219.47Z" fill="white" fill-opacity="0.7"/>
<path d="M65.4359 235.991L68.3519 234.947L69.3963 232.031L70.4407 234.947L73.3567 235.991L70.4407 237.036L69.3963 239.952L68.3519 237.036L65.4359 235.991Z" fill="white" fill-opacity="0.7"/>
<path d="M187.414 191.847L190.33 190.803L191.374 187.887L192.418 190.803L195.334 191.847L192.418 192.892L191.374 195.808L190.33 192.892L187.414 191.847Z" fill="white" fill-opacity="0.7"/>
<path d="M174.995 253.063L177.619 252.123L178.559 249.498L179.499 252.123L182.123 253.063L179.499 254.003L178.559 256.627L177.619 254.003L174.995 253.063Z" fill="white" fill-opacity="0.7"/>
</g>
<g style="mix-blend-mode:luminosity">
<path d="M360.679 199.888C360.679 198.252 359.354 196.927 357.719 196.927C356.083 196.927 354.758 198.252 354.758 199.888C354.758 201.523 356.083 202.848 357.719 202.848C359.353 202.848 360.679 201.523 360.679 199.888Z" fill="white" fill-opacity="0.7"/>
<path d="M327.506 39.3687C327.506 38.4601 326.769 37.7241 325.861 37.7241C324.952 37.7241 324.216 38.4601 324.216 39.3687C324.216 40.2773 324.952 41.0134 325.861 41.0134C326.769 41.0134 327.506 40.2773 327.506 39.3687Z" fill="white" fill-opacity="0.7"/>
</g>
<g style="mix-blend-mode:luminosity">
<path d="M320.176 182.903C320.176 181.267 318.851 179.942 317.216 179.942C315.58 179.942 314.255 181.267 314.255 182.903C314.255 184.538 315.58 185.863 317.216 185.863C318.85 185.863 320.176 184.538 320.176 182.903Z" fill="white" fill-opacity="0.7"/>
<path d="M287.003 22.3837C287.003 21.4751 286.267 20.739 285.358 20.739C284.45 20.739 283.714 21.4751 283.714 22.3837C283.714 23.2923 284.45 24.0283 285.358 24.0283C286.266 24.0283 287.003 23.2923 287.003 22.3837Z" fill="white" fill-opacity="0.7"/>
</g>
<g style="mix-blend-mode:luminosity" opacity="0.4">
<path d="M187.101 176.165C187.343 175.15 188.349 174.519 189.349 174.757C190.349 174.995 190.964 176.011 190.722 177.026C190.48 178.042 189.475 178.673 188.474 178.435C187.475 178.197 186.86 177.181 187.101 176.165Z" fill="white" fill-opacity="0.7"/>
<path d="M106.85 135.494C106.984 134.93 107.543 134.58 108.098 134.712C108.654 134.844 108.995 135.408 108.861 135.973C108.727 136.537 108.168 136.887 107.613 136.755C107.058 136.623 106.716 136.059 106.85 135.494Z" fill="white" fill-opacity="0.7"/>
<path d="M231.099 81.2883C231.233 80.7239 231.792 80.3738 232.348 80.5059C232.903 80.638 233.244 81.2023 233.11 81.7666C232.976 82.331 232.417 82.6811 231.862 82.549C231.307 82.417 230.965 81.8526 231.099 81.2883Z" fill="white" fill-opacity="0.7"/>
<path d="M99.6292 174.84L99.4213 172.877L97.7924 171.805L99.7299 171.58L100.799 169.921L101.007 171.884L102.636 172.957L100.699 173.181L99.6292 174.84Z" fill="white" fill-opacity="0.7"/>
<path d="M90.6528 92.6582L90.4449 90.6951L88.816 89.6223L90.7534 89.3977L91.8228 87.7384L92.0307 89.7015L93.6596 90.7742L91.7222 90.9988L90.6528 92.6582Z" fill="white" fill-opacity="0.7"/>
<path d="M126.251 109.273L126.064 107.506L124.598 106.54L126.342 106.338L127.304 104.845L127.491 106.612L128.957 107.577L127.213 107.779L126.251 109.273Z" fill="white" fill-opacity="0.7"/>
<path d="M213.922 54.5042L213.766 53.0319L212.545 52.2273L213.998 52.0588L214.8 50.8144L214.956 52.2867L216.178 53.0913L214.724 53.2597L213.922 54.5042Z" fill="white" fill-opacity="0.7"/>
</g>
<g style="mix-blend-mode:luminosity" opacity="0.4">
<path d="M34.3933 117.205C33.8289 117.07 33.4788 116.512 33.6109 115.956C33.7431 115.4 34.3073 115.059 34.8716 115.193C35.436 115.328 35.7861 115.886 35.654 116.442C35.522 116.997 34.9577 117.339 34.3933 117.205Z" fill="white" fill-opacity="0.7"/>
<path d="M73.7393 124.425L71.7763 124.633L70.7035 126.262L70.4789 124.325L68.8196 123.255L70.7826 123.047L71.8554 121.418L72.08 123.356L73.7393 124.425Z" fill="white" fill-opacity="0.7"/>
<path d="M8.17109 97.8028L6.40431 97.9899L5.43882 99.4559L5.23666 97.7122L3.74328 96.7498L5.51006 96.5627L6.47555 95.0967L6.67771 96.8404L8.17109 97.8028Z" fill="white" fill-opacity="0.7"/>
</g>
<g style="mix-blend-mode:luminosity" opacity="0.4">
<path d="M341.009 10.7832C340.875 11.3476 340.316 11.6977 339.761 11.5656C339.205 11.4335 338.864 10.8692 338.998 10.3049C339.132 9.74052 339.691 9.39038 340.247 9.52251C340.802 9.65452 341.144 10.2189 341.009 10.7832Z" fill="white" fill-opacity="0.7"/>
<path d="M349.008 144.726C348.874 145.291 348.315 145.641 347.76 145.509C347.204 145.377 346.863 144.812 346.997 144.248C347.131 143.684 347.69 143.333 348.246 143.466C348.801 143.598 349.143 144.162 349.008 144.726Z" fill="white" fill-opacity="0.7"/>
<path d="M216.762 64.9898C216.628 65.5541 216.069 65.9043 215.513 65.7722C214.958 65.64 214.616 65.0758 214.751 64.5114C214.885 63.9471 215.444 63.5969 215.999 63.7291C216.554 63.8611 216.896 64.4254 216.762 64.9898Z" fill="white" fill-opacity="0.7"/>
<path d="M224.759 198.934C224.625 199.498 224.066 199.848 223.511 199.716C222.955 199.584 222.614 199.02 222.748 198.455C222.882 197.891 223.441 197.541 223.997 197.673C224.552 197.805 224.893 198.369 224.759 198.934Z" fill="white" fill-opacity="0.7"/>
<path d="M328.489 99.3305C328.355 99.8948 327.796 100.245 327.24 100.113C326.685 99.9807 326.343 99.4165 326.478 98.8521C326.612 98.2877 327.171 97.9376 327.726 98.0697C328.281 98.2017 328.623 98.7661 328.489 99.3305Z" fill="white" fill-opacity="0.7"/>
<path d="M357.207 53.62L357.415 55.5831L359.044 56.6559L357.107 56.8805L356.037 58.5398L355.829 56.5767L354.2 55.5039L356.138 55.2793L357.207 53.62Z" fill="white" fill-opacity="0.7"/>
<path d="M321.611 37.0061L321.798 38.7729L323.264 39.7384L321.52 39.9405L320.558 41.4339L320.371 39.6671L318.905 38.7016L320.648 38.4995L321.611 37.0061Z" fill="white" fill-opacity="0.7"/>
<path d="M315.516 163.472L315.704 165.239L317.17 166.205L315.426 166.407L314.463 167.9L314.276 166.133L312.81 165.168L314.554 164.966L315.516 163.472Z" fill="white" fill-opacity="0.7"/>
<path d="M233.938 91.7745L234.094 93.2468L235.316 94.0514L233.863 94.2198L233.061 95.4643L232.905 93.992L231.683 93.1874L233.136 93.019L233.938 91.7745Z" fill="white" fill-opacity="0.7"/>
</g>
<g style="mix-blend-mode:luminosity" opacity="0.4">
<path d="M182.057 215.578C181.502 215.446 181.16 214.882 181.295 214.317C181.429 213.753 181.988 213.403 182.543 213.535C183.099 213.667 183.44 214.231 183.306 214.796C183.172 215.36 182.613 215.71 182.057 215.578Z" fill="white" fill-opacity="0.7"/>
<path d="M49.9131 224.632C49.3575 224.5 49.0161 223.936 49.1503 223.371C49.2846 222.807 49.8434 222.457 50.399 222.589C50.9546 222.721 51.2959 223.285 51.1617 223.85C51.0276 224.414 50.4687 224.764 49.9131 224.632Z" fill="white" fill-opacity="0.7"/>
<path d="M129.478 89.9604C128.923 89.8283 128.581 89.2641 128.716 88.6997C128.85 88.1353 129.409 87.7852 129.964 87.9173C130.52 88.0495 130.861 88.6137 130.727 89.1781C130.593 89.7419 130.034 90.0926 129.478 89.9604Z" fill="white" fill-opacity="0.7"/>
<path d="M94.8265 203.506C94.2709 203.374 93.9296 202.81 94.0638 202.245C94.198 201.681 94.7568 201.331 95.3124 201.463C95.868 201.595 96.2094 202.159 96.0752 202.724C95.9411 203.288 95.3821 203.638 94.8265 203.506Z" fill="white" fill-opacity="0.7"/>
<path d="M220.809 222.625L218.872 222.85L217.802 224.509L217.594 222.546L215.966 221.473L217.903 221.249L218.972 219.589L219.18 221.553L220.809 222.625Z" fill="white" fill-opacity="0.7"/>
<path d="M139.702 232.306L137.765 232.53L136.696 234.19L136.488 232.227L134.859 231.154L136.796 230.929L137.866 229.27L138.074 231.233L139.702 232.306Z" fill="white" fill-opacity="0.7"/>
<path d="M156.338 196.089L154.594 196.291L153.632 197.785L153.445 196.018L151.979 195.052L153.723 194.85L154.685 193.357L154.872 195.124L156.338 196.089Z" fill="white" fill-opacity="0.7"/>
<path d="M31.6646 190.799L29.921 191.001L28.9585 192.495L28.7715 190.728L27.3055 189.762L29.0492 189.56L30.0116 188.067L30.1987 189.834L31.6646 190.799Z" fill="white" fill-opacity="0.7"/>
<path d="M102.943 107.567L101.49 107.736L100.688 108.98L100.532 107.508L99.31 106.703L100.763 106.535L101.565 105.29L101.721 106.762L102.943 107.567Z" fill="white" fill-opacity="0.7"/>
</g>
</g>
<g opacity="0.6">
<g style="mix-blend-mode:luminosity">
<path d="M140.509 119.564C140.331 120.451 139.469 121.024 138.583 120.847C137.697 120.669 137.123 119.807 137.301 118.921C137.478 118.035 138.34 117.461 139.226 117.639C140.112 117.816 140.686 118.678 140.509 119.564Z" fill="white" fill-opacity="0.7"/>
<path d="M353.197 124.781L353.6 127.525L355.976 128.955L353.233 129.358L351.803 131.734L351.399 128.99L349.023 127.56L351.767 127.157L353.197 124.781Z" fill="white" fill-opacity="0.7"/>
</g>
<g style="mix-blend-mode:luminosity">
<path d="M21.6344 41.0002C21.8121 40.1141 22.6739 39.5402 23.56 39.7179C24.4461 39.8956 25.02 40.7574 24.8423 41.6435C24.6646 42.5297 23.8028 43.1035 22.9167 42.9258C22.0314 42.7483 21.4567 41.8863 21.6344 41.0002Z" fill="white" fill-opacity="0.7"/>
<path d="M12.6217 102.671L12.1735 99.6227L9.53382 98.0338L12.582 97.5856L14.1709 94.946L14.6192 97.9942L17.2589 99.583L14.2106 100.031L12.6217 102.671Z" fill="white" fill-opacity="0.7"/>
</g>
<g style="mix-blend-mode:luminosity">
<path d="M38.4541 301.162C40.0491 301.482 41.0821 303.034 40.7622 304.629C40.4423 306.224 38.8911 307.257 37.2961 306.937C35.7011 306.617 34.6681 305.066 34.988 303.471C35.3075 301.877 36.8591 300.843 38.4541 301.162Z" fill="white" fill-opacity="0.7"/>
<path d="M97.7575 171.853C98.6436 172.031 99.2175 172.893 99.0397 173.779C98.862 174.665 98.0002 175.239 97.1141 175.061C96.228 174.884 95.6541 174.022 95.8318 173.136C96.0094 172.25 96.8713 171.676 97.7575 171.853Z" fill="white" fill-opacity="0.7"/>
<path d="M306.046 151.047C306.932 151.225 307.506 152.087 307.329 152.973C307.151 153.859 306.289 154.433 305.403 154.255C304.517 154.077 303.943 153.216 304.121 152.329C304.298 151.444 305.16 150.869 306.046 151.047Z" fill="white" fill-opacity="0.7"/>
<path d="M236.353 186.243C237.239 186.42 237.813 187.282 237.635 188.168C237.458 189.054 236.596 189.628 235.71 189.451C234.824 189.273 234.25 188.411 234.428 187.525C234.605 186.64 235.467 186.065 236.353 186.243Z" fill="white" fill-opacity="0.7"/>
<path d="M36.0853 162.84L39.1334 162.391L40.7223 159.752L41.1705 162.8L43.81 164.389L40.7619 164.837L39.173 167.477L38.7249 164.428L36.0853 162.84Z" fill="white" fill-opacity="0.7"/>
<path d="M163.678 143.645L166.727 143.197L168.315 140.557L168.764 143.605L171.403 145.194L168.355 145.643L166.766 148.282L166.318 145.234L163.678 143.645Z" fill="white" fill-opacity="0.7"/>
<path d="M139.594 200.917L142.337 200.513L143.767 198.138L144.17 200.881L146.546 202.311L143.803 202.715L142.373 205.09L141.969 202.347L139.594 200.917Z" fill="white" fill-opacity="0.7"/>
<path d="M336.95 202.838L339.694 202.435L341.124 200.059L341.527 202.803L343.903 204.233L341.159 204.636L339.729 207.012L339.326 204.268L336.95 202.838Z" fill="white" fill-opacity="0.7"/>
<path d="M229.373 336.133L231.659 335.796L232.85 333.817L233.186 336.103L235.166 337.294L232.88 337.631L231.688 339.61L231.352 337.324L229.373 336.133Z" fill="white" fill-opacity="0.7"/>
</g>
<g style="mix-blend-mode:luminosity">
<path d="M331.083 185.375C331.402 183.78 330.369 182.229 328.774 181.909C327.179 181.589 325.628 182.622 325.308 184.217C324.988 185.812 326.021 187.364 327.616 187.684C329.21 188.003 330.763 186.97 331.083 185.375Z" fill="white" fill-opacity="0.7"/>
</g>
</g>
<g opacity="0.6">
<g style="mix-blend-mode:luminosity">
<path d="M24.1756 152.521C25.801 152.455 27.1713 153.718 27.2375 155.344C27.3036 156.969 26.0404 158.339 24.415 158.405C22.7895 158.472 21.4192 157.208 21.3531 155.583C21.287 153.959 22.5501 152.587 24.1756 152.521Z" fill="white" fill-opacity="0.7"/>
<path d="M36.7408 201.774C37.6438 201.738 38.4051 202.439 38.4419 203.342C38.4786 204.245 37.7768 205.007 36.8738 205.043C35.9708 205.08 35.2095 204.378 35.1728 203.475C35.136 202.573 35.8378 201.811 36.7408 201.774Z" fill="white" fill-opacity="0.7"/>
<path d="M190.769 199.568L192.911 198.701L193.601 196.496L194.468 198.638L196.673 199.328L194.532 200.195L193.842 202.4L192.975 200.258L190.769 199.568Z" fill="white" fill-opacity="0.7"/>
</g>
<g style="mix-blend-mode:luminosity">
<path d="M334.277 243.631C333.374 243.668 332.613 242.966 332.576 242.063C332.539 241.16 333.241 240.399 334.144 240.362C335.047 240.325 335.809 241.027 335.845 241.93C335.882 242.832 335.18 243.594 334.277 243.631Z" fill="white" fill-opacity="0.7"/>
<path d="M136.804 313.073C135.901 313.11 135.14 312.408 135.103 311.505C135.066 310.602 135.768 309.841 136.671 309.804C137.574 309.768 138.335 310.469 138.372 311.372C138.409 312.275 137.707 313.037 136.804 313.073Z" fill="white" fill-opacity="0.7"/>
<path d="M2.99419 146.934C2.09117 146.97 1.32987 146.268 1.29313 145.365C1.25639 144.462 1.95816 143.701 2.86118 143.664C3.76419 143.628 4.52549 144.329 4.56223 145.232C4.59894 146.135 3.8972 146.897 2.99419 146.934Z" fill="white" fill-opacity="0.7"/>
<path d="M196.205 262.405C195.302 262.441 194.541 261.74 194.504 260.837C194.468 259.934 195.169 259.172 196.072 259.136C196.975 259.099 197.737 259.801 197.774 260.704C197.81 261.606 197.109 262.368 196.205 262.405Z" fill="white" fill-opacity="0.7"/>
<path d="M276.889 286.62L274.033 287.776L273.113 290.716L271.957 287.86L269.017 286.94L271.873 285.784L272.793 282.844L273.948 285.7L276.889 286.62Z" fill="white" fill-opacity="0.7"/>
<path d="M286.756 225.278L284.186 226.319L283.358 228.965L282.317 226.395L279.671 225.567L282.241 224.526L283.069 221.88L284.11 224.45L286.756 225.278Z" fill="white" fill-opacity="0.7"/>
<path d="M94.5357 270.053L91.9655 271.094L91.1375 273.74L90.0972 271.17L87.4509 270.342L90.0211 269.301L90.8492 266.655L91.8895 269.225L94.5357 270.053Z" fill="white" fill-opacity="0.7"/>
</g>
<g style="mix-blend-mode:luminosity">
</g>
</g>
</svg>
