<svg width="24" height="24" viewBox="0 0 24 24" fill="none" xmlns="http://www.w3.org/2000/svg">
<path opacity="0.2" d="M21 5.25L12 13.5L3 5.25H21Z" fill="url(#paint0_linear_2402_3707)"/>
<path d="M21 4.5H3C2.80109 4.5 2.61032 4.57902 2.46967 4.71967C2.32902 4.86032 2.25 5.05109 2.25 5.25V18C2.25 18.3978 2.40804 18.7794 2.68934 19.0607C2.97064 19.342 3.35218 19.5 3.75 19.5H20.25C20.6478 19.5 21.0294 19.342 21.3107 19.0607C21.592 18.7794 21.75 18.3978 21.75 18V5.25C21.75 5.05109 21.671 4.86032 21.5303 4.71967C21.3897 4.57902 21.1989 4.5 21 4.5ZM19.0716 6L12 12.4828L4.92844 6H19.0716ZM20.25 18H3.75V6.95531L11.4928 14.0531C11.6312 14.1801 11.8122 14.2506 12 14.2506C12.1878 14.2506 12.3688 14.1801 12.5072 14.0531L20.25 6.95531V18Z" fill="url(#paint1_linear_2402_3707)"/>
<defs>
<linearGradient id="paint0_linear_2402_3707" x1="1.03256" y1="5.25" x2="13.2032" y2="22.8232" gradientUnits="userSpaceOnUse">
<stop stop-color="#7BCDDF"/>
<stop offset="1" stop-color="#6D16B4"/>
</linearGradient>
<linearGradient id="paint1_linear_2402_3707" x1="0.118605" y1="4.5" x2="23.492" y2="24.6086" gradientUnits="userSpaceOnUse">
<stop stop-color="#7BCDDF"/>
<stop offset="1" stop-color="#6D16B4"/>
</linearGradient>
</defs>
</svg>
