<svg width="33" height="32" viewBox="0 0 33 32" fill="none" xmlns="http://www.w3.org/2000/svg">
<path opacity="0.2" d="M26.5 11H6.5C6.23478 11 5.98043 11.1054 5.79289 11.2929C5.60536 11.4804 5.5 11.7348 5.5 12V26C5.5 26.2652 5.60536 26.5196 5.79289 26.7071C5.98043 26.8946 6.23478 27 6.5 27H26.5C26.7652 27 27.0196 26.8946 27.2071 26.7071C27.3946 26.5196 27.5 26.2652 27.5 26V12C27.5 11.7348 27.3946 11.4804 27.2071 11.2929C27.0196 11.1054 26.7652 11 26.5 11ZM16.5 20C16.0055 20 15.5222 19.8534 15.1111 19.5787C14.7 19.304 14.3795 18.9135 14.1903 18.4567C14.0011 17.9999 13.9516 17.4972 14.048 17.0123C14.1445 16.5273 14.3826 16.0819 14.7322 15.7322C15.0819 15.3826 15.5273 15.1445 16.0123 15.048C16.4972 14.9516 16.9999 15.0011 17.4567 15.1903C17.9135 15.3795 18.304 15.7 18.5787 16.1111C18.8534 16.5222 19 17.0055 19 17.5C19 18.163 18.7366 18.7989 18.2678 19.2678C17.7989 19.7366 17.163 20 16.5 20Z" fill="url(#paint0_linear_2295_2163)"/>
<path d="M26.5 10H22.5V7C22.5 5.4087 21.8679 3.88258 20.7426 2.75736C19.6174 1.63214 18.0913 1 16.5 1C14.9087 1 13.3826 1.63214 12.2574 2.75736C11.1321 3.88258 10.5 5.4087 10.5 7V10H6.5C5.96957 10 5.46086 10.2107 5.08579 10.5858C4.71071 10.9609 4.5 11.4696 4.5 12V26C4.5 26.5304 4.71071 27.0391 5.08579 27.4142C5.46086 27.7893 5.96957 28 6.5 28H26.5C27.0304 28 27.5391 27.7893 27.9142 27.4142C28.2893 27.0391 28.5 26.5304 28.5 26V12C28.5 11.4696 28.2893 10.9609 27.9142 10.5858C27.5391 10.2107 27.0304 10 26.5 10ZM12.5 7C12.5 5.93913 12.9214 4.92172 13.6716 4.17157C14.4217 3.42143 15.4391 3 16.5 3C17.5609 3 18.5783 3.42143 19.3284 4.17157C20.0786 4.92172 20.5 5.93913 20.5 7V10H12.5V7ZM26.5 26H6.5V12H26.5V26ZM16.5 14C15.6595 14.0003 14.8472 14.303 14.2115 14.8529C13.5758 15.4027 13.1592 16.163 13.0378 16.9947C12.9165 17.8264 13.0985 18.674 13.5506 19.3825C14.0027 20.0911 14.6946 20.6133 15.5 20.8538V23C15.5 23.2652 15.6054 23.5196 15.7929 23.7071C15.9804 23.8946 16.2348 24 16.5 24C16.7652 24 17.0196 23.8946 17.2071 23.7071C17.3946 23.5196 17.5 23.2652 17.5 23V20.8538C18.3054 20.6133 18.9973 20.0911 19.4494 19.3825C19.9015 18.674 20.0835 17.8264 19.9622 16.9947C19.8408 16.163 19.4242 15.4027 18.7885 14.8529C18.1528 14.303 17.3405 14.0003 16.5 14ZM16.5 19C16.2033 19 15.9133 18.912 15.6666 18.7472C15.42 18.5824 15.2277 18.3481 15.1142 18.074C15.0006 17.7999 14.9709 17.4983 15.0288 17.2074C15.0867 16.9164 15.2296 16.6491 15.4393 16.4393C15.6491 16.2296 15.9164 16.0867 16.2074 16.0288C16.4983 15.9709 16.7999 16.0007 17.074 16.1142C17.3481 16.2277 17.5824 16.42 17.7472 16.6666C17.912 16.9133 18 17.2033 18 17.5C18 17.8978 17.842 18.2794 17.5607 18.5607C17.2794 18.842 16.8978 19 16.5 19Z" fill="url(#paint1_linear_2295_2163)"/>
<defs>
<linearGradient id="paint0_linear_2295_2163" x1="2.17442" y1="9.65116" x2="28.6938" y2="30.6566" gradientUnits="userSpaceOnUse">
<stop stop-color="#438AB0"/>
<stop offset="1" stop-color="#90E089"/>
</linearGradient>
<linearGradient id="paint1_linear_2295_2163" x1="0.872093" y1="-1.27616" x2="38.1727" y2="17.8237" gradientUnits="userSpaceOnUse">
<stop stop-color="#438AB0"/>
<stop offset="1" stop-color="#90E089"/>
</linearGradient>
</defs>
</svg>
