<svg width="24" height="24" viewBox="0 0 24 24" fill="none" xmlns="http://www.w3.org/2000/svg">
<path opacity="0.2" d="M20.25 12C20.25 13.6317 19.7661 15.2268 18.8596 16.5835C17.9531 17.9402 16.6646 18.9976 15.1571 19.622C13.6497 20.2464 11.9909 20.4098 10.3905 20.0915C8.79017 19.7732 7.32016 18.9874 6.16637 17.8336C5.01259 16.6798 4.22685 15.2098 3.90853 13.6095C3.5902 12.0092 3.75357 10.3504 4.378 8.84286C5.00242 7.33537 6.05984 6.0469 7.41655 5.14038C8.77325 4.23385 10.3683 3.75 12 3.75C14.188 3.75 16.2865 4.61919 17.8336 6.16637C19.3808 7.71354 20.25 9.81196 20.25 12Z" fill="url(#paint0_linear_2402_3008)"/>
<path d="M22.979 5.68872C22.2619 4.45216 20.369 4.17372 17.4947 4.87685C16.1639 3.84789 14.5713 3.21276 12.8977 3.04363C11.2241 2.87449 9.53655 3.17813 8.02686 3.92004C6.51717 4.66194 5.2458 5.81239 4.35721 7.24067C3.46861 8.66896 2.99839 10.3178 2.99998 12C3.0001 12.3858 3.02452 12.7713 3.07311 13.154C0.477168 15.8437 0.514668 17.4375 1.02186 18.3112C1.49998 19.14 2.49748 19.5 3.80998 19.5C4.72125 19.4811 5.62715 19.3553 6.50904 19.125C7.83993 20.1529 9.43237 20.7872 11.1056 20.9556C12.7788 21.1241 14.4657 20.8201 15.9748 20.0781C17.4839 19.3361 18.7547 18.1858 19.643 16.7579C20.5312 15.33 21.0014 13.6816 21 12C21.0002 11.616 20.9761 11.2324 20.9278 10.8515C22.0997 9.63278 22.8797 8.47497 23.145 7.48404C23.3278 6.79779 23.2725 6.19404 22.979 5.68872ZM12 4.49997C13.6987 4.50172 15.3466 5.07928 16.6747 6.13838C18.0029 7.19747 18.9327 8.67552 19.3125 10.3312C17.7131 11.8368 15.5484 13.3809 13.4934 14.5622C10.9106 16.0443 8.66998 16.9687 6.88311 17.475C5.78255 16.4485 5.01651 15.1145 4.68473 13.6466C4.35294 12.1787 4.47077 10.6449 5.02288 9.24491C5.57499 7.84491 6.5358 6.64356 7.78023 5.79726C9.02465 4.95096 10.495 4.49891 12 4.49997ZM2.31936 17.5584C2.18248 17.3231 2.25842 16.8797 2.52748 16.3397C2.79355 15.8337 3.11727 15.3603 3.49217 14.9287C3.86379 16.0054 4.43643 17.0018 5.17967 17.865C3.56248 18.1368 2.55373 17.9634 2.31936 17.5584ZM12 19.5C10.7354 19.5013 9.49134 19.1806 8.38498 18.5681C10.4157 17.8499 12.3751 16.9441 14.2378 15.8625C16.2609 14.7009 18.0515 13.4418 19.4944 12.1987C19.4409 14.1517 18.6282 16.0069 17.2288 17.3702C15.8294 18.7335 13.9537 19.4975 12 19.5ZM21.6956 7.09591C21.5362 7.68747 21.1153 8.36435 20.5115 9.07685C20.1409 7.99884 19.5682 7.00136 18.824 6.13779C20.1562 5.91747 21.39 5.93435 21.6834 6.44153C21.7678 6.58872 21.7725 6.80904 21.6956 7.09591Z" fill="url(#paint1_linear_2402_3008)"/>
<defs>
<linearGradient id="paint0_linear_2402_3008" x1="1.94651" y1="3.75" x2="25.8803" y2="19.589" gradientUnits="userSpaceOnUse">
<stop stop-color="#7BCDDF"/>
<stop offset="1" stop-color="#6D16B4"/>
</linearGradient>
<linearGradient id="paint1_linear_2402_3008" x1="-1.70933" y1="2.99805" x2="26.1577" y2="26.0471" gradientUnits="userSpaceOnUse">
<stop stop-color="#7BCDDF"/>
<stop offset="1" stop-color="#6D16B4"/>
</linearGradient>
</defs>
</svg>
