<svg width="24" height="24" viewBox="0 0 24 24" fill="none" xmlns="http://www.w3.org/2000/svg">
<path opacity="0.2" d="M8.88849 18L6.12755 20.085C6.02811 20.1646 5.91002 20.2176 5.78442 20.239C5.65883 20.2603 5.52987 20.2493 5.4097 20.207C5.28954 20.1647 5.18213 20.0925 5.09761 19.9972C5.01308 19.9018 4.95424 19.7866 4.92661 19.6622L3.76786 14.4469C3.74289 14.3349 3.74394 14.2187 3.77092 14.1072C3.7979 13.9957 3.85009 13.8919 3.92349 13.8038L6.76505 10.3978C6.6563 12.586 7.19067 15.1341 8.88849 18ZM20.0766 13.8038L17.235 10.3978C17.3485 12.586 16.8094 15.1341 15.1116 18L17.8725 20.085C17.972 20.1646 18.0901 20.2176 18.2157 20.239C18.3413 20.2603 18.4702 20.2493 18.5904 20.207C18.7106 20.1647 18.818 20.0925 18.9025 19.9972C18.987 19.9018 19.0459 19.7866 19.0735 19.6622L20.2322 14.4469C20.2572 14.3349 20.2562 14.2187 20.2292 14.1072C20.2022 13.9957 20.15 13.8919 20.0766 13.8038Z" fill="url(#paint0_linear_2402_2848)"/>
<path d="M14.25 21C14.25 21.1989 14.171 21.3897 14.0303 21.5303C13.8897 21.671 13.6989 21.75 13.5 21.75H10.5C10.3011 21.75 10.1103 21.671 9.96965 21.5303C9.82899 21.3897 9.74998 21.1989 9.74998 21C9.74998 20.8011 9.82899 20.6103 9.96965 20.4697C10.1103 20.329 10.3011 20.25 10.5 20.25H13.5C13.6989 20.25 13.8897 20.329 14.0303 20.4697C14.171 20.6103 14.25 20.8011 14.25 21ZM12 10.5C12.2225 10.5 12.44 10.434 12.625 10.3104C12.81 10.1868 12.9542 10.0111 13.0393 9.80553C13.1245 9.59996 13.1468 9.37376 13.1034 9.15553C13.06 8.9373 12.9528 8.73685 12.7955 8.57951C12.6381 8.42218 12.4377 8.31503 12.2195 8.27163C12.0012 8.22822 11.775 8.2505 11.5695 8.33565C11.3639 8.42079 11.1882 8.56499 11.0646 8.74999C10.941 8.935 10.875 9.15251 10.875 9.37501C10.875 9.67338 10.9935 9.95953 11.2045 10.1705C11.4155 10.3815 11.7016 10.5 12 10.5ZM20.9643 14.6091L19.8056 19.8244C19.7506 20.072 19.6337 20.3017 19.4659 20.4919C19.298 20.6821 19.0846 20.8266 18.8457 20.912C18.6068 20.9973 18.3502 21.0206 18.0998 20.9798C17.8494 20.9389 17.6135 20.8353 17.414 20.6784L14.8603 18.75H9.14154L6.58591 20.6784C6.38649 20.8353 6.15056 20.9389 5.90018 20.9798C5.6498 21.0206 5.39315 20.9973 5.15424 20.912C4.91533 20.8266 4.70196 20.6821 4.53408 20.4919C4.36621 20.3017 4.24932 20.072 4.19435 19.8244L3.0356 14.6091C2.98645 14.3853 2.98893 14.1532 3.04286 13.9305C3.09679 13.7078 3.20075 13.5003 3.34685 13.3238L6.02435 10.1119C6.11422 8.93152 6.3852 7.77201 6.82779 6.67407C8.03716 3.6422 10.2028 1.74001 11.0812 1.06313C11.3442 0.859401 11.6673 0.74884 12 0.74884C12.3326 0.74884 12.6558 0.859401 12.9187 1.06313C13.7944 1.74001 15.9628 3.6422 17.1722 6.67407C17.6148 7.77201 17.8857 8.93152 17.9756 10.1119L20.6531 13.3238C20.7992 13.5003 20.9032 13.7078 20.9571 13.9305C21.011 14.1532 21.0135 14.3853 20.9643 14.6091ZM9.32154 17.25H14.6784C16.6584 13.7306 17.0287 10.3613 15.779 7.23001C14.6765 4.46626 12.6084 2.71876 12 2.25001C11.3897 2.71876 9.32154 4.46626 8.21904 7.23001C6.97122 10.3613 7.34154 13.7306 9.32154 17.25ZM7.91529 17.7984C6.90591 15.9641 6.29341 14.1613 6.07779 12.39L4.49997 14.2838L5.65872 19.5L5.6756 19.4878L7.91529 17.7984ZM19.5 14.2838L17.9222 12.39C17.7084 14.1575 17.0972 15.9603 16.0884 17.7984L18.3244 19.4859L18.3412 19.4981L19.5 14.2838Z" fill="url(#paint1_linear_2402_2848)"/>
<defs>
<linearGradient id="paint0_linear_2402_2848" x1="1.25564" y1="9.5673" x2="18.0194" y2="25.7412" gradientUnits="userSpaceOnUse">
<stop stop-color="#438AB0"/>
<stop offset="1" stop-color="#90E089"/>
</linearGradient>
<linearGradient id="paint1_linear_2402_2848" x1="0.279713" y1="-1.02161" x2="28.6685" y2="12.9942" gradientUnits="userSpaceOnUse">
<stop stop-color="#438AB0"/>
<stop offset="1" stop-color="#90E089"/>
</linearGradient>
</defs>
</svg>
