<svg width="1029" height="287" viewBox="0 0 1029 287" fill="none" xmlns="http://www.w3.org/2000/svg">
<g clip-path="url(#clip0_2107_1966)">
<path d="M299.132 148.487C298.98 151.365 298.829 154.242 298.375 156.969C296.709 107.896 257.481 67.6076 207.65 65.3357C155.094 62.9123 110.716 103.503 108.293 156.06C106.021 205.89 142.523 248.602 191.141 254.812C188.415 254.963 185.537 254.812 182.66 254.812C121.167 251.934 73.6086 199.832 76.4863 138.339C79.364 76.8466 131.466 29.2883 192.959 32.166C254.3 34.8923 301.858 86.9944 299.132 148.487Z" fill="#FFF2E9"/>
<path d="M329.121 1.33008H46.1943V284.257H329.121V1.33008Z" stroke="#FFF2E9" stroke-width="3.02919" stroke-miterlimit="10"/>
<path d="M541.762 274.138C542.781 274.478 544.14 275.157 545.499 275.497C546.857 275.837 548.216 276.177 549.575 276.516C550.934 276.856 552.293 277.196 553.652 277.196C555.011 277.196 556.369 277.535 557.728 277.535C560.106 277.535 562.145 277.196 563.843 276.856C565.542 276.177 567.24 275.497 568.599 274.478C569.958 273.459 570.977 272.1 571.657 270.741C572.336 269.382 572.676 267.684 572.676 265.646C572.676 263.947 572.336 262.248 571.657 261.229C570.977 259.87 569.958 259.191 568.599 258.172C567.24 257.492 565.881 256.813 563.843 256.133C562.145 255.454 559.767 255.114 557.389 254.435C554.671 253.755 552.293 253.076 550.255 252.057C548.216 251.038 546.178 250.019 544.479 248.66C542.781 247.301 541.762 245.602 540.743 243.564C539.724 241.526 539.384 239.148 539.384 236.09C539.384 233.712 539.724 231.334 540.743 229.636C541.762 227.598 543.121 225.899 544.819 224.54C546.518 223.181 548.556 222.162 551.274 221.483C553.652 220.803 556.369 220.464 559.427 220.464C560.786 220.464 562.484 220.464 563.843 220.803C565.202 220.803 566.901 221.143 568.259 221.483C569.618 221.822 571.317 222.162 572.676 222.502C574.035 222.842 575.393 223.521 576.752 223.861L574.035 230.315C573.015 229.976 571.996 229.636 570.977 228.956C569.958 228.617 568.939 228.277 567.58 227.937C566.221 227.598 565.202 227.258 563.843 227.258C562.484 226.918 561.125 226.918 559.427 226.918C557.728 226.918 556.369 227.258 555.011 227.598C553.652 227.937 552.293 228.617 551.274 229.296C550.255 229.976 549.235 230.995 548.556 232.014C547.877 233.033 547.537 234.732 547.537 236.09C547.537 237.789 547.877 239.488 548.556 240.507C549.235 241.526 550.255 242.545 551.613 243.564C552.972 244.244 554.331 244.923 556.369 245.602C558.068 246.282 560.446 246.622 562.824 247.301C565.542 247.98 567.92 248.66 569.958 249.679C572.336 250.358 574.035 251.717 575.733 253.076C577.432 254.435 578.79 256.133 579.47 258.172C580.489 260.21 580.829 262.588 580.829 265.646C580.829 268.703 580.149 271.421 579.13 273.799C578.111 276.177 576.412 277.875 574.374 279.574C572.336 280.932 569.958 282.291 566.901 282.971C564.183 283.65 561.125 283.99 557.728 283.99C551.274 283.99 545.159 282.631 539.384 280.253L541.762 274.138Z" fill="#FFF2E9"/>
<path d="M588.643 221.483H634.844V227.937H615.82V282.971H607.666V227.937H588.643V221.483Z" fill="#FFF2E9"/>
<path d="M686.48 221.483H694.634V257.153C694.634 265.985 692.595 272.78 688.519 277.536C684.442 281.952 678.327 284.33 670.174 284.33C653.868 284.33 645.715 275.497 645.715 257.492V221.823H653.868V257.492C653.868 260.55 654.208 263.268 654.547 265.646C655.227 268.024 655.906 270.062 657.265 272.1C658.624 273.799 660.323 275.158 662.361 276.177C664.399 277.196 667.117 277.536 670.174 277.536C672.552 277.536 674.93 277.196 676.968 276.516C679.007 275.837 680.366 274.818 681.724 273.799C683.083 272.78 684.102 271.081 684.782 269.382C685.461 267.684 686.141 265.646 686.48 263.947C686.82 261.909 686.82 259.87 686.82 257.153V221.483H686.48Z" fill="#FFF2E9"/>
<path d="M709.58 282.971V221.483H722.489C725.886 221.483 729.283 221.823 732.341 222.162C735.398 222.502 738.116 223.181 740.494 223.861C742.872 224.88 745.25 225.899 746.949 227.258C748.987 228.617 750.346 230.655 751.704 232.693C753.063 235.071 754.082 237.789 754.762 240.847C755.441 243.904 755.781 247.641 755.781 252.057C755.781 256.134 755.441 259.87 754.762 263.268C754.082 266.325 753.063 269.043 751.704 271.421C750.346 273.799 748.647 275.497 746.949 277.196C744.91 278.555 742.872 279.914 740.494 280.593C738.116 281.612 735.059 281.952 732.341 282.631C729.283 282.971 726.226 283.311 722.489 283.311H709.58V282.971ZM723.848 276.516C728.264 276.516 732.001 276.177 735.059 275.158C738.116 274.138 740.494 272.78 742.532 270.741C744.571 268.703 745.929 266.325 746.609 263.268C747.628 260.21 747.968 256.473 747.968 252.057C747.968 247.641 747.628 243.904 746.609 240.847C745.59 237.789 744.231 235.411 742.532 233.373C740.494 231.335 738.116 229.976 735.059 229.296C732.001 228.277 728.264 227.937 723.848 227.937H717.393V276.516H723.848Z" fill="#FFF2E9"/>
<path d="M769.369 221.483H777.522V282.971H769.369V221.483Z" fill="#FFF2E9"/>
<path d="M844.786 252.397C844.786 262.588 842.408 270.401 837.652 275.837C832.896 281.272 826.441 283.99 817.609 283.99C808.776 283.99 802.322 281.272 797.566 275.837C792.81 270.401 790.432 262.588 790.432 252.057C790.432 241.526 792.81 234.052 797.566 228.617C802.322 223.181 808.776 220.464 817.609 220.464C826.441 220.464 832.896 223.181 837.652 228.617C842.408 234.392 844.786 242.205 844.786 252.397ZM836.293 252.397C836.293 244.583 834.594 238.468 831.537 234.052C828.479 229.636 823.723 227.598 817.609 227.598C811.154 227.598 806.738 229.976 803.68 234.392C800.623 238.808 798.924 244.923 798.924 252.736C798.924 256.473 799.264 259.87 799.944 262.928C800.623 265.985 801.642 268.703 803.341 270.741C804.7 272.779 806.738 274.478 809.116 275.837C811.494 276.856 814.212 277.535 817.609 277.535C823.723 277.535 828.479 275.497 831.537 271.081C834.934 266.325 836.293 260.21 836.293 252.397Z" fill="#FFF2E9"/>
<path d="M856.676 274.138C857.695 274.478 859.054 275.157 860.413 275.497C861.772 275.837 863.13 276.177 864.489 276.516C865.848 276.856 867.207 277.196 868.566 277.196C869.925 277.196 871.284 277.535 872.642 277.535C875.02 277.535 877.059 277.196 878.757 276.856C880.456 276.177 882.154 275.497 883.513 274.478C884.872 273.459 885.891 272.1 886.571 270.741C887.25 269.382 887.59 267.684 887.59 265.646C887.59 263.947 887.25 262.248 886.571 261.229C885.891 259.87 884.872 259.191 883.513 258.172C882.154 257.492 880.795 256.813 878.757 256.133C877.059 255.454 874.681 255.114 872.303 254.435C869.585 253.755 867.207 253.076 865.169 252.057C863.13 251.038 861.092 250.019 859.394 248.66C857.695 247.301 856.676 245.602 855.657 243.564C854.638 241.526 854.298 239.148 854.298 236.09C854.298 233.712 854.638 231.334 855.657 229.636C856.676 227.598 858.035 225.899 859.733 224.54C861.432 223.181 863.47 222.162 866.188 221.483C868.566 220.803 871.284 220.464 874.341 220.464C875.7 220.464 877.398 220.464 878.757 220.803C880.116 220.803 881.815 221.143 883.173 221.483C884.532 221.822 886.231 222.162 887.59 222.502C888.949 222.842 890.307 223.521 891.666 223.861L888.949 230.315C887.929 229.976 886.91 229.636 885.891 228.956C884.872 228.617 883.853 228.277 882.494 227.937C881.135 227.598 880.116 227.258 878.757 227.258C877.398 226.918 876.04 226.918 874.341 226.918C872.642 226.918 871.284 227.258 869.925 227.598C868.566 227.937 867.207 228.617 866.188 229.296C865.169 229.976 864.15 230.995 863.47 232.014C862.791 233.033 862.451 234.732 862.451 236.09C862.451 237.789 862.791 239.488 863.47 240.507C864.15 241.526 865.169 242.545 866.528 243.564C867.886 244.244 869.245 244.923 871.283 245.602C872.982 246.282 875.36 246.622 877.738 247.301C880.456 247.98 882.834 248.66 884.872 249.679C887.25 250.358 888.949 251.717 890.647 253.076C892.346 254.435 893.705 256.133 894.384 258.172C895.403 260.21 895.743 262.588 895.743 265.646C895.743 268.703 895.063 271.421 894.044 273.799C893.025 276.177 891.327 277.875 889.288 279.574C887.25 280.932 884.872 282.291 881.815 282.971C879.097 283.65 876.04 283.99 872.642 283.99C866.188 283.99 860.073 282.631 854.298 280.253L856.676 274.138Z" fill="#FFF2E9"/>
<path d="M559.427 150.483C571.317 150.483 580.829 140.971 580.829 129.081C580.829 117.191 571.317 107.679 559.427 107.679C547.537 107.679 538.025 117.191 538.025 129.081C538.025 140.971 547.537 150.483 559.427 150.483Z" fill="#FFF2E9"/>
<path fill-rule="evenodd" clip-rule="evenodd" d="M615.819 145.388C617.178 140.292 617.857 135.196 617.857 129.761C617.857 124.325 617.178 119.23 615.819 114.134C614.46 109.038 612.422 104.622 610.044 100.206C607.666 95.7894 604.609 92.0526 600.872 88.3157C597.135 84.5789 593.398 81.5215 588.982 79.1435C584.565 76.7655 580.149 74.7272 575.053 73.3684C569.958 72.0095 564.862 71.3301 559.427 71.3301C553.991 71.3301 548.896 72.0095 543.8 73.3684C538.704 74.7272 534.288 76.7655 529.872 79.1435C525.455 81.5215 521.719 84.5789 517.982 88.3157C514.245 92.0526 511.187 95.7894 508.809 100.206C506.431 104.622 504.393 109.038 503.034 114.134C501.676 119.23 500.996 124.325 500.996 129.761C500.996 135.196 501.676 140.292 503.034 145.388C504.393 150.483 506.431 154.899 508.809 159.316C511.527 163.732 514.585 167.469 517.982 171.206C521.719 174.942 525.455 178 529.872 180.378C534.288 182.756 539.044 184.794 543.8 186.153C548.896 187.512 553.991 188.191 559.427 188.191C564.862 188.191 569.958 187.512 575.053 186.153C580.149 184.794 584.565 182.756 588.982 180.378C593.398 177.66 597.135 174.603 600.872 171.206C604.609 167.469 607.666 163.732 610.044 159.316C612.422 154.899 614.46 150.143 615.819 145.388ZM592.719 115.832C594.757 120.249 595.436 125.005 595.436 129.761C595.436 134.856 594.417 139.273 592.719 143.689C590.68 148.105 588.302 151.842 584.905 155.239C581.848 158.636 577.771 161.014 573.355 163.053C568.939 165.091 564.183 165.77 559.427 165.77C554.331 165.77 549.575 164.751 545.498 163.053C541.082 161.014 537.345 158.636 533.948 155.239C530.551 151.842 528.173 148.105 526.135 143.689C524.097 139.273 523.417 134.517 523.417 129.761C523.417 124.665 524.436 120.249 526.135 115.832C528.173 111.416 530.551 107.679 533.948 104.282C537.345 100.885 541.082 98.5071 545.498 96.4688C549.915 94.4305 554.671 93.7512 559.427 93.7512C564.522 93.7512 568.939 94.7702 573.355 96.4688C577.771 98.5071 581.508 100.885 584.905 104.282C588.302 107.679 590.68 111.416 592.719 115.832Z" fill="#FFF2E9"/>
<path d="M403.839 93.4111C402.14 97.4877 401.121 101.904 401.121 106.66C401.121 111.416 402.14 115.832 403.839 119.909C405.537 123.985 407.915 127.722 410.973 130.78C414.03 133.837 417.767 136.215 421.844 137.914C425.92 139.612 430.336 140.631 435.092 140.631H457.853C459.552 140.631 460.911 140.971 462.269 141.65C463.628 142.33 464.987 143.009 465.667 144.028C466.686 145.047 467.705 146.067 468.045 147.425C468.724 148.784 469.064 150.143 469.064 151.842C469.064 153.54 468.724 154.899 468.045 156.258C467.365 157.617 466.686 158.976 465.667 159.995C464.647 161.014 463.628 161.693 462.269 162.373C460.911 163.052 459.552 163.392 457.853 163.392H407.576V186.153H457.853C462.609 186.153 467.025 185.134 471.102 183.435C475.178 181.736 478.915 179.358 481.973 176.301C485.03 173.244 487.408 169.507 489.107 165.43C490.805 161.354 491.824 156.937 491.824 152.181C491.824 147.425 490.805 143.009 489.107 138.933C487.408 134.856 485.03 131.119 481.973 128.062C478.915 125.004 475.178 122.626 471.102 120.928C467.025 119.229 462.609 118.21 457.853 118.21H435.092C433.394 118.21 432.035 117.87 430.676 117.191C429.317 116.512 427.958 115.832 426.939 114.813C425.92 113.794 425.241 112.435 424.561 111.076C423.882 109.717 423.542 108.019 423.542 106.66C423.542 104.961 423.882 103.603 424.561 102.244C425.241 100.885 425.92 99.526 426.939 98.8465C427.958 97.8274 429.317 96.8082 430.676 96.4685C432.035 95.7891 433.394 95.4494 435.092 95.4494H487.068V72.6886H435.092C430.336 72.6886 425.92 73.7077 421.844 75.4063C417.767 77.1049 414.03 79.4829 410.973 82.88C408.255 85.5977 405.877 89.3345 403.839 93.4111Z" fill="#FFF2E9"/>
<path d="M712.298 186.153H632.805V72.6885H655.565V163.392H712.298V186.153Z" fill="#FFF2E9"/>
<path fill-rule="evenodd" clip-rule="evenodd" d="M791.112 186.153H813.872V118.21C813.872 112.095 812.853 105.98 810.475 100.545C808.097 95.1096 804.7 90.3536 800.624 85.9373C796.547 81.8608 791.791 78.4636 786.016 76.0856C780.581 73.7076 774.805 72.6885 768.351 72.6885C762.236 72.6885 756.121 73.7076 750.686 76.0856C745.25 78.4636 740.494 81.8608 736.418 85.9373C732.341 90.0139 729.284 94.7699 726.906 100.545C724.528 105.98 723.509 111.755 723.509 118.21V186.153H746.27V163.392H791.791V186.153H791.112ZM791.112 117.87V140.631H745.59V117.87C745.59 114.813 746.27 111.755 747.289 109.038C748.648 106.32 750.006 103.942 752.045 101.904C754.083 99.8655 756.461 98.167 759.179 97.1478C761.896 95.789 764.954 95.4493 768.011 95.4493C771.069 95.4493 774.126 96.1287 776.844 97.1478C779.561 98.167 781.939 99.8655 783.978 101.904C786.016 103.942 787.714 106.32 788.734 109.038C790.432 112.095 791.112 114.813 791.112 117.87Z" fill="#FFF2E9"/>
<path fill-rule="evenodd" clip-rule="evenodd" d="M855.997 186.153H833.236V72.6885H878.758C882.834 72.6885 886.911 73.3679 890.648 74.387C894.385 75.4062 898.122 77.1048 901.519 79.1431C904.916 81.1813 907.973 83.5593 910.691 86.277C913.409 88.9947 915.787 92.0522 917.825 95.4493C919.863 98.8464 921.222 102.583 922.241 106.32C923.26 110.057 923.94 114.133 923.94 118.21C923.94 121.947 923.6 126.023 922.581 129.76C921.562 133.497 920.203 136.894 918.504 140.291C916.806 143.688 914.428 146.746 911.71 149.464C908.992 152.181 906.275 154.559 902.877 156.598L915.447 186.153H891.327L881.476 163.392H855.997V186.153ZM855.997 140.631H878.758C881.815 140.631 884.873 139.952 887.59 138.932C890.308 137.574 892.686 136.215 894.724 134.177C896.763 132.138 898.461 129.76 899.48 127.043C900.839 124.325 901.179 121.267 901.179 118.21C901.179 115.153 900.499 112.095 899.48 109.377C898.461 106.66 896.763 104.282 894.724 102.244C892.686 100.205 890.308 98.5067 887.59 97.4875C884.873 96.1287 881.815 95.789 878.758 95.789H855.997V140.631Z" fill="#FFF2E9"/>
<path fill-rule="evenodd" clip-rule="evenodd" d="M1005.81 186.153H1028.57V118.21C1028.57 112.095 1027.55 105.98 1025.17 100.545C1022.8 95.1097 1019.4 90.3537 1015.32 85.9374C1011.25 81.8609 1006.49 78.4637 1000.71 76.0857C995.279 73.7077 989.504 72.6886 983.049 72.6886C976.934 72.6886 970.819 73.7077 965.384 76.0857C959.949 78.4637 955.193 81.8609 951.116 85.9374C947.04 90.014 943.982 94.77 941.604 100.545C939.226 105.98 938.207 111.756 938.207 118.21V186.153H960.968V163.392H1006.49V186.153H1005.81ZM1005.81 117.87V140.631H960.288V117.87C960.288 114.813 960.968 111.756 961.987 109.038C963.346 106.32 964.705 103.942 966.743 101.904C968.781 99.8656 971.159 98.1671 973.877 97.148C976.595 95.7891 979.652 95.4494 982.709 95.4494C985.767 95.4494 988.824 96.1288 991.542 97.148C994.26 98.1671 996.638 99.8656 998.676 101.904C1000.71 103.942 1002.41 106.32 1003.43 109.038C1005.13 112.095 1005.81 114.813 1005.81 117.87Z" fill="#FFF2E9"/>
<path d="M202.955 71.3936L207.044 82.6016L218.252 86.691L207.044 90.7804L202.955 101.988L198.865 90.7804L187.657 86.691L198.865 82.6016L202.955 71.3936Z" fill="#FFF2E9"/>
<path d="M153.276 97.8992L155.699 104.563L162.364 106.987L155.699 109.41L153.276 116.074L150.853 109.41L144.188 106.987L150.853 104.563L153.276 97.8992Z" fill="#FFF2E9"/>
<path d="M249.604 97.8992L252.028 104.563L258.692 106.987L252.028 109.41L249.604 116.074L247.181 109.41L240.517 106.987L247.181 104.563L249.604 97.8992Z" fill="#FFF2E9"/>
<path d="M235.367 249.662C235.367 251.934 233.55 253.751 231.278 253.751C229.006 253.751 227.188 251.934 227.188 249.662C227.188 247.39 229.006 245.572 231.278 245.572C233.55 245.572 235.367 247.39 235.367 249.662Z" fill="#FFF2E9"/>
<path d="M268.082 214.675C268.082 213.463 269.142 212.403 270.354 212.403C271.566 212.403 272.626 213.463 272.626 214.675C272.626 215.886 271.566 216.947 270.354 216.947C269.142 216.947 268.082 215.886 268.082 214.675Z" fill="#FFF2E9"/>
<path d="M71.3368 205.89C71.3368 207.102 70.2765 208.162 69.0649 208.162C67.8532 208.162 66.793 207.102 66.793 205.89C66.793 204.678 67.8532 203.618 69.0649 203.618C70.428 203.618 71.3368 204.678 71.3368 205.89Z" fill="#FFF2E9"/>
<path d="M302.312 40.9507L306.401 52.1587L317.609 56.2481L306.401 60.3375L302.312 71.5455L298.223 60.3375L287.015 56.2481L298.223 52.1587L302.312 40.9507Z" fill="#FFF2E9"/>
<path d="M287.015 262.687L284.592 256.023L277.928 253.6L284.592 251.176L287.015 244.512L289.439 251.176L296.103 253.6L289.439 256.023L287.015 262.687Z" fill="#FFF2E9"/>
<path d="M86.3312 42.3132L84.2107 36.2548L78.1523 34.1344L84.2107 32.014L86.3312 25.9556L88.4516 32.014L94.51 34.1344L88.4516 36.2548L86.3312 42.3132Z" fill="#FFF2E9"/>
<path d="M85.5735 228.609L87.391 233.607L92.3892 235.425L87.391 237.242L85.5735 242.24L83.756 237.242L78.7578 235.425L83.756 233.607L85.5735 228.609Z" fill="#FFF2E9"/>
<path d="M307.613 171.509L310.036 178.173L316.701 180.596L310.036 183.02L307.613 189.684L305.19 183.02L298.525 180.596L305.19 178.173L307.613 171.509Z" fill="#FFF2E9"/>
<path d="M297.314 156.514C293.225 159.998 288.984 163.633 284.592 167.116H108.444C108.141 163.481 108.141 159.846 108.293 156.06C108.747 147.275 110.262 138.793 112.988 130.766H292.619C295.345 138.945 296.86 147.578 297.314 156.514Z" fill="#F79538"/>
<path d="M280.654 170.297C265.053 182.717 247.939 194.833 229.46 206.647H120.107C114.048 195.591 109.959 183.322 108.596 170.297H280.654Z" fill="#F3733F"/>
<path d="M224.311 209.828C202.349 223.459 180.69 235.273 159.789 245.118C144.188 237.091 131.011 224.823 121.924 209.828H224.311Z" fill="#D35A54"/>
<path d="M76.789 139.248C26.2015 185.14 -8.93715 239.211 5.60298 262.233C26.5044 295.554 124.347 271.927 224.159 209.222C323.971 146.518 387.887 68.8191 366.986 35.498C351.84 11.2645 295.8 17.1714 228.097 46.2517" stroke="#FFF2E9" stroke-width="4.54379" stroke-miterlimit="10"/>
<path d="M297.92 148.487C297.768 151.213 297.617 153.788 297.314 156.363V156.969V156.514C297.011 147.578 295.345 138.945 292.619 130.766C280.653 94.2644 247.181 67.3046 206.59 65.4871C162.969 63.5181 124.802 91.2352 111.776 130.766C109.201 138.794 107.535 147.275 107.081 156.06C106.929 159.695 106.929 163.481 107.232 167.117C107.232 168.177 107.384 169.237 107.535 170.297C108.898 183.323 112.836 195.591 119.046 206.647C119.652 207.708 120.258 208.768 120.864 209.828C130.103 224.823 143.28 237.242 159.183 245.27C159.789 245.573 160.395 245.876 160.849 246.178C169.785 250.419 179.478 253.449 189.778 254.812H181.296C170.694 254.357 160.546 252.388 150.853 249.208C105.869 234.213 74.214 191.35 74.9713 141.823C74.9713 140.611 74.9713 139.551 75.1228 138.339C78.0005 76.8466 130.103 29.2883 191.595 32.166C207.498 32.9233 222.493 37.0127 235.973 43.5255C269.294 60.0346 292.922 92.7498 297.314 130.766C298.071 136.522 298.223 142.429 297.92 148.487Z" fill="#FFF2E9"/>
</g>
<defs>
<clipPath id="clip0_2107_1966">
<rect width="1029" height="286" fill="white" transform="translate(0 0.330078)"/>
</clipPath>
</defs>
</svg>
