<svg width="374" height="398" viewBox="0 0 374 398" fill="none" xmlns="http://www.w3.org/2000/svg">
<g clip-path="url(#clip0_2107_1797)">
<path d="M299.131 148.915C298.98 151.793 298.829 154.671 298.374 157.397C296.708 108.324 257.48 68.0358 207.65 65.7639C155.093 63.3405 110.716 103.932 108.292 156.488C106.02 206.318 142.522 249.03 191.141 255.24C188.414 255.391 185.537 255.24 182.659 255.24C121.166 252.362 73.6081 200.26 76.4858 138.767C79.3636 77.2748 131.466 29.7165 192.958 32.5942C254.299 35.3205 301.858 87.4226 299.131 148.915Z" fill="#FFF2E9"/>
<path d="M329.12 2.30212H46.1938V285.229H329.12V2.30212Z" stroke="#FFF2E9" stroke-width="3.02919" stroke-miterlimit="10"/>
<path d="M110.565 393.371C111.019 393.522 111.625 393.825 112.231 393.977C112.837 394.128 113.442 394.279 114.048 394.431C114.654 394.582 115.26 394.734 115.866 394.734C116.472 394.734 117.077 394.885 117.683 394.885C118.743 394.885 119.652 394.734 120.409 394.582C121.167 394.279 121.924 393.977 122.53 393.522C123.136 393.068 123.59 392.462 123.893 391.856C124.196 391.25 124.347 390.493 124.347 389.584C124.347 388.827 124.196 388.07 123.893 387.615C123.59 387.009 123.136 386.706 122.53 386.252C121.924 385.949 121.318 385.646 120.409 385.343C119.652 385.04 118.592 384.889 117.532 384.586C116.32 384.283 115.26 383.98 114.351 383.526C113.442 383.071 112.534 382.617 111.776 382.011C111.019 381.405 110.565 380.648 110.11 379.739C109.656 378.831 109.504 377.77 109.504 376.407C109.504 375.347 109.656 374.287 110.11 373.529C110.565 372.621 111.17 371.863 111.928 371.258C112.685 370.652 113.594 370.197 114.805 369.894C115.866 369.592 117.077 369.44 118.441 369.44C119.046 369.44 119.804 369.44 120.409 369.592C121.015 369.592 121.773 369.743 122.378 369.894C122.984 370.046 123.742 370.197 124.347 370.349C124.953 370.5 125.559 370.803 126.165 370.955L124.953 373.832C124.499 373.681 124.045 373.529 123.59 373.227C123.136 373.075 122.681 372.924 122.076 372.772C121.47 372.621 121.015 372.469 120.409 372.469C119.804 372.318 119.198 372.318 118.441 372.318C117.683 372.318 117.077 372.469 116.472 372.621C115.866 372.772 115.26 373.075 114.805 373.378C114.351 373.681 113.897 374.135 113.594 374.59C113.291 375.044 113.139 375.801 113.139 376.407C113.139 377.165 113.291 377.922 113.594 378.376C113.897 378.831 114.351 379.285 114.957 379.739C115.563 380.042 116.169 380.345 117.077 380.648C117.835 380.951 118.895 381.102 119.955 381.405C121.167 381.708 122.227 382.011 123.136 382.466C124.196 382.769 124.953 383.374 125.711 383.98C126.468 384.586 127.074 385.343 127.377 386.252C127.831 387.161 127.982 388.221 127.982 389.584C127.982 390.947 127.68 392.159 127.225 393.219C126.771 394.279 126.013 395.037 125.105 395.794C124.196 396.4 123.136 397.006 121.773 397.309C120.561 397.612 119.198 397.763 117.683 397.763C114.805 397.763 112.079 397.157 109.504 396.097L110.565 393.371Z" fill="#FFF2E9"/>
<path d="M131.466 369.895H152.064V372.772H143.583V397.309H139.948V372.772H131.466V369.895Z" fill="#FFF2E9"/>
<path d="M175.086 369.895H178.721V385.798C178.721 389.736 177.813 392.765 175.995 394.885C174.178 396.854 171.451 397.915 167.816 397.915C160.546 397.915 156.911 393.977 156.911 385.949V370.046H160.546V385.949C160.546 387.312 160.698 388.524 160.849 389.584C161.152 390.645 161.455 391.553 162.061 392.462C162.667 393.219 163.424 393.825 164.333 394.28C165.241 394.734 166.453 394.885 167.816 394.885C168.876 394.885 169.937 394.734 170.845 394.431C171.754 394.128 172.36 393.674 172.966 393.219C173.572 392.765 174.026 392.008 174.329 391.25C174.632 390.493 174.935 389.584 175.086 388.827C175.238 387.918 175.238 387.009 175.238 385.798V369.895H175.086Z" fill="#FFF2E9"/>
<path d="M185.385 397.309V369.895H191.141C192.655 369.895 194.17 370.046 195.533 370.197C196.896 370.349 198.108 370.652 199.168 370.955C200.228 371.409 201.289 371.864 202.046 372.469C202.955 373.075 203.56 373.984 204.166 374.893C204.772 375.953 205.226 377.165 205.529 378.528C205.832 379.891 205.984 381.557 205.984 383.526C205.984 385.343 205.832 387.009 205.529 388.524C205.226 389.887 204.772 391.099 204.166 392.159C203.56 393.219 202.803 393.977 202.046 394.734C201.137 395.34 200.228 395.946 199.168 396.249C198.108 396.703 196.745 396.854 195.533 397.157C194.17 397.309 192.807 397.46 191.141 397.46H185.385V397.309ZM191.747 394.431C193.716 394.431 195.382 394.28 196.745 393.825C198.108 393.371 199.168 392.765 200.077 391.856C200.986 390.947 201.591 389.887 201.894 388.524C202.349 387.161 202.5 385.495 202.5 383.526C202.5 381.557 202.349 379.891 201.894 378.528C201.44 377.165 200.834 376.104 200.077 375.196C199.168 374.287 198.108 373.681 196.745 373.378C195.382 372.924 193.716 372.772 191.747 372.772H188.869V394.431H191.747Z" fill="#FFF2E9"/>
<path d="M212.042 369.895H215.678V397.309H212.042V369.895Z" fill="#FFF2E9"/>
<path d="M245.666 383.677C245.666 388.221 244.606 391.705 242.486 394.128C240.365 396.551 237.487 397.763 233.549 397.763C229.611 397.763 226.734 396.551 224.613 394.128C222.493 391.705 221.433 388.221 221.433 383.526C221.433 378.831 222.493 375.498 224.613 373.075C226.734 370.652 229.611 369.44 233.549 369.44C237.487 369.44 240.365 370.652 242.486 373.075C244.606 375.65 245.666 379.133 245.666 383.677ZM241.88 383.677C241.88 380.194 241.122 377.467 239.759 375.498C238.396 373.529 236.276 372.621 233.549 372.621C230.672 372.621 228.703 373.681 227.34 375.65C225.976 377.619 225.219 380.345 225.219 383.829C225.219 385.495 225.371 387.009 225.673 388.373C225.976 389.736 226.431 390.947 227.188 391.856C227.794 392.765 228.703 393.522 229.763 394.128C230.823 394.582 232.035 394.885 233.549 394.885C236.276 394.885 238.396 393.977 239.759 392.008C241.274 389.887 241.88 387.161 241.88 383.677Z" fill="#FFF2E9"/>
<path d="M250.967 393.371C251.422 393.522 252.028 393.825 252.634 393.977C253.239 394.128 253.845 394.279 254.451 394.431C255.057 394.582 255.663 394.734 256.269 394.734C256.874 394.734 257.48 394.885 258.086 394.885C259.146 394.885 260.055 394.734 260.812 394.582C261.57 394.279 262.327 393.977 262.933 393.522C263.539 393.068 263.993 392.462 264.296 391.856C264.599 391.25 264.75 390.493 264.75 389.584C264.75 388.827 264.599 388.07 264.296 387.615C263.993 387.009 263.539 386.706 262.933 386.252C262.327 385.949 261.721 385.646 260.812 385.343C260.055 385.04 258.995 384.889 257.935 384.586C256.723 384.283 255.663 383.98 254.754 383.526C253.845 383.071 252.936 382.617 252.179 382.011C251.422 381.405 250.967 380.648 250.513 379.739C250.059 378.831 249.907 377.77 249.907 376.407C249.907 375.347 250.059 374.287 250.513 373.529C250.967 372.621 251.573 371.863 252.331 371.258C253.088 370.652 253.997 370.197 255.208 369.894C256.269 369.592 257.48 369.44 258.843 369.44C259.449 369.44 260.206 369.44 260.812 369.592C261.418 369.592 262.175 369.743 262.781 369.894C263.387 370.046 264.144 370.197 264.75 370.349C265.356 370.5 265.962 370.803 266.568 370.955L265.356 373.832C264.902 373.681 264.447 373.529 263.993 373.227C263.539 373.075 263.084 372.924 262.478 372.772C261.873 372.621 261.418 372.469 260.812 372.469C260.206 372.318 259.601 372.318 258.843 372.318C258.086 372.318 257.48 372.469 256.874 372.621C256.269 372.772 255.663 373.075 255.208 373.378C254.754 373.681 254.3 374.135 253.997 374.59C253.694 375.044 253.542 375.801 253.542 376.407C253.542 377.165 253.694 377.922 253.997 378.376C254.3 378.831 254.754 379.285 255.36 379.739C255.966 380.042 256.571 380.345 257.48 380.648C258.238 380.951 259.298 381.102 260.358 381.405C261.57 381.708 262.63 382.011 263.539 382.466C264.599 382.769 265.356 383.374 266.113 383.98C266.871 384.586 267.477 385.343 267.779 386.252C268.234 387.161 268.385 388.221 268.385 389.584C268.385 390.947 268.082 392.159 267.628 393.219C267.174 394.279 266.416 395.037 265.508 395.794C264.599 396.4 263.539 397.006 262.175 397.309C260.964 397.612 259.601 397.763 258.086 397.763C255.208 397.763 252.482 397.157 249.907 396.097L250.967 393.371Z" fill="#FFF2E9"/>
<path d="M118.44 338.239C123.741 338.239 127.982 333.999 127.982 328.697C127.982 323.396 123.741 319.156 118.44 319.156C113.139 319.156 108.898 323.396 108.898 328.697C108.898 333.999 113.139 338.239 118.44 338.239Z" fill="#FFF2E9"/>
<path fill-rule="evenodd" clip-rule="evenodd" d="M143.583 335.968C144.188 333.696 144.491 331.424 144.491 329.001C144.491 326.577 144.188 324.305 143.583 322.033C142.977 319.761 142.068 317.793 141.008 315.824C139.947 313.855 138.584 312.189 136.918 310.522C135.252 308.856 133.586 307.493 131.617 306.433C129.648 305.373 127.679 304.464 125.407 303.858C123.135 303.252 120.864 302.949 118.44 302.949C116.017 302.949 113.745 303.252 111.473 303.858C109.201 304.464 107.232 305.373 105.263 306.433C103.294 307.493 101.628 308.856 99.9621 310.522C98.2961 312.189 96.9329 313.855 95.8727 315.824C94.8125 317.793 93.9038 319.761 93.2979 322.033C92.6921 324.305 92.3892 326.577 92.3892 329.001C92.3892 331.424 92.6921 333.696 93.2979 335.968C93.9038 338.24 94.8125 340.209 95.8727 342.177C97.0844 344.146 98.4476 345.813 99.9621 347.479C101.628 349.145 103.294 350.508 105.263 351.568C107.232 352.628 109.353 353.537 111.473 354.143C113.745 354.749 116.017 355.052 118.44 355.052C120.864 355.052 123.135 354.749 125.407 354.143C127.679 353.537 129.648 352.628 131.617 351.568C133.586 350.356 135.252 348.993 136.918 347.479C138.584 345.813 139.947 344.146 141.008 342.177C142.068 340.209 142.977 338.088 143.583 335.968ZM133.283 322.791C134.192 324.76 134.495 326.88 134.495 329.001C134.495 331.272 134.041 333.241 133.283 335.21C132.375 337.179 131.314 338.845 129.8 340.36C128.437 341.875 126.619 342.935 124.65 343.844C122.681 344.752 120.561 345.055 118.44 345.055C116.168 345.055 114.048 344.601 112.23 343.844C110.261 342.935 108.595 341.875 107.081 340.36C105.566 338.845 104.506 337.179 103.597 335.21C102.688 333.241 102.385 331.121 102.385 329.001C102.385 326.729 102.84 324.76 103.597 322.791C104.506 320.822 105.566 319.156 107.081 317.641C108.595 316.126 110.261 315.066 112.23 314.157C114.199 313.249 116.32 312.946 118.44 312.946C120.712 312.946 122.681 313.4 124.65 314.157C126.619 315.066 128.285 316.126 129.8 317.641C131.314 319.156 132.375 320.822 133.283 322.791Z" fill="#FFF2E9"/>
<path d="M49.072 312.794C48.3147 314.612 47.8604 316.581 47.8604 318.701C47.8604 320.822 48.3147 322.791 49.072 324.608C49.8293 326.426 50.8895 328.092 52.2527 329.455C53.6158 330.818 55.2819 331.878 57.0994 332.635C58.9169 333.393 60.8859 333.847 63.0063 333.847H73.1541C73.9114 333.847 74.5172 333.999 75.1231 334.301C75.7289 334.604 76.3348 334.907 76.6377 335.362C77.0921 335.816 77.5464 336.27 77.6979 336.876C78.0008 337.482 78.1523 338.088 78.1523 338.845C78.1523 339.603 78.0008 340.208 77.6979 340.814C77.395 341.42 77.0921 342.026 76.6377 342.48C76.1833 342.935 75.7289 343.238 75.1231 343.541C74.5172 343.843 73.9114 343.995 73.1541 343.995H50.7381V354.143H73.1541C75.2745 354.143 77.2435 353.688 79.061 352.931C80.8785 352.174 82.5446 351.113 83.9077 349.75C85.2709 348.387 86.3311 346.721 87.0884 344.904C87.8457 343.086 88.3001 341.117 88.3001 338.997C88.3001 336.876 87.8457 334.907 87.0884 333.09C86.3311 331.272 85.2709 329.606 83.9077 328.243C82.5446 326.88 80.8785 325.82 79.061 325.062C77.2435 324.305 75.2745 323.851 73.1541 323.851H63.0063C62.249 323.851 61.6432 323.699 61.0373 323.396C60.4315 323.093 59.8257 322.791 59.3713 322.336C58.9169 321.882 58.614 321.276 58.3111 320.67C58.0081 320.064 57.8567 319.307 57.8567 318.701C57.8567 317.944 58.0081 317.338 58.3111 316.732C58.614 316.126 58.9169 315.521 59.3713 315.218C59.8257 314.763 60.4315 314.309 61.0373 314.157C61.6432 313.854 62.249 313.703 63.0063 313.703H86.1796V303.555H63.0063C60.8859 303.555 58.9169 304.01 57.0994 304.767C55.2819 305.524 53.6158 306.584 52.2527 308.099C51.041 309.311 49.9808 310.977 49.072 312.794Z" fill="#FFF2E9"/>
<path d="M186.597 354.143H151.156V303.555H161.304V343.995H186.597V354.143Z" fill="#FFF2E9"/>
<path fill-rule="evenodd" clip-rule="evenodd" d="M221.736 354.143H231.883V323.851C231.883 321.125 231.429 318.398 230.369 315.975C229.309 313.552 227.794 311.431 225.977 309.462C224.159 307.645 222.039 306.13 219.464 305.07C217.04 304.01 214.466 303.555 211.588 303.555C208.862 303.555 206.135 304.01 203.712 305.07C201.289 306.13 199.168 307.645 197.351 309.462C195.533 311.28 194.17 313.4 193.11 315.975C192.05 318.398 191.595 320.973 191.595 323.851V354.143H201.743V343.995H222.039V354.143H221.736ZM221.736 323.699V333.847H201.44V323.699C201.44 322.336 201.743 320.973 202.197 319.761C202.803 318.55 203.409 317.489 204.318 316.581C205.227 315.672 206.287 314.915 207.498 314.46C208.71 313.854 210.073 313.703 211.436 313.703C212.8 313.703 214.163 314.006 215.374 314.46C216.586 314.915 217.646 315.672 218.555 316.581C219.464 317.489 220.221 318.55 220.675 319.761C221.433 321.125 221.736 322.336 221.736 323.699Z" fill="#FFF2E9"/>
<path fill-rule="evenodd" clip-rule="evenodd" d="M250.664 354.143H240.517V303.555H260.812C262.63 303.555 264.447 303.858 266.113 304.312C267.779 304.767 269.445 305.524 270.96 306.433C272.475 307.342 273.838 308.402 275.049 309.614C276.261 310.825 277.321 312.188 278.23 313.703C279.139 315.218 279.745 316.884 280.199 318.55C280.653 320.216 280.956 322.033 280.956 323.851C280.956 325.517 280.805 327.334 280.35 329C279.896 330.666 279.29 332.181 278.533 333.696C277.776 335.21 276.715 336.573 275.504 337.785C274.292 338.997 273.08 340.057 271.566 340.966L277.17 354.143H266.416L262.024 343.995H250.664V354.143ZM250.664 333.847H260.812C262.175 333.847 263.538 333.544 264.75 333.09C265.962 332.484 267.022 331.878 267.931 330.969C268.84 330.061 269.597 329 270.051 327.789C270.657 326.577 270.809 325.214 270.809 323.851C270.809 322.488 270.506 321.124 270.051 319.913C269.597 318.701 268.84 317.641 267.931 316.732C267.022 315.823 265.962 315.066 264.75 314.612C263.538 314.006 262.175 313.854 260.812 313.854H250.664V333.847Z" fill="#FFF2E9"/>
<path fill-rule="evenodd" clip-rule="evenodd" d="M317.458 354.143H327.606V323.851C327.606 321.125 327.152 318.398 326.092 315.975C325.031 313.552 323.517 311.431 321.699 309.462C319.882 307.645 317.761 306.13 315.186 305.07C312.763 304.01 310.188 303.555 307.311 303.555C304.584 303.555 301.858 304.01 299.435 305.07C297.011 306.13 294.891 307.645 293.073 309.462C291.256 311.28 289.893 313.4 288.832 315.975C287.772 318.398 287.318 320.973 287.318 323.851V354.143H297.466V343.995H317.761V354.143H317.458ZM317.458 323.699V333.847H297.163V323.699C297.163 322.336 297.466 320.973 297.92 319.761C298.526 318.55 299.132 317.489 300.04 316.581C300.949 315.672 302.009 314.915 303.221 314.46C304.433 313.854 305.796 313.703 307.159 313.703C308.522 313.703 309.885 314.006 311.097 314.46C312.309 314.915 313.369 315.672 314.278 316.581C315.186 317.489 315.944 318.55 316.398 319.761C317.155 321.125 317.458 322.336 317.458 323.699Z" fill="#FFF2E9"/>
<path d="M202.955 71.8219L207.044 83.0299L218.252 87.1193L207.044 91.2087L202.955 102.417L198.865 91.2087L187.657 87.1193L198.865 83.0299L202.955 71.8219Z" fill="#FFF2E9"/>
<path d="M153.276 98.3274L155.699 104.992L162.364 107.415L155.699 109.838L153.276 116.503L150.853 109.838L144.188 107.415L150.853 104.992L153.276 98.3274Z" fill="#FFF2E9"/>
<path d="M249.604 98.3274L252.028 104.992L258.692 107.415L252.028 109.838L249.604 116.503L247.181 109.838L240.517 107.415L247.181 104.992L249.604 98.3274Z" fill="#FFF2E9"/>
<path d="M235.367 250.09C235.367 252.362 233.55 254.179 231.278 254.179C229.006 254.179 227.188 252.362 227.188 250.09C227.188 247.818 229.006 246 231.278 246C233.55 246 235.367 247.818 235.367 250.09Z" fill="#FFF2E9"/>
<path d="M268.083 215.103C268.083 213.891 269.143 212.831 270.354 212.831C271.566 212.831 272.626 213.891 272.626 215.103C272.626 216.315 271.566 217.375 270.354 217.375C269.143 217.375 268.083 216.315 268.083 215.103Z" fill="#FFF2E9"/>
<path d="M71.3363 206.318C71.3363 207.53 70.2761 208.59 69.0644 208.59C67.8527 208.59 66.7925 207.53 66.7925 206.318C66.7925 205.106 67.8527 204.046 69.0644 204.046C70.4275 204.046 71.3363 205.106 71.3363 206.318Z" fill="#FFF2E9"/>
<path d="M302.312 41.3788L306.401 52.5868L317.609 56.6762L306.401 60.7656L302.312 71.9736L298.223 60.7656L287.015 56.6762L298.223 52.5868L302.312 41.3788Z" fill="#FFF2E9"/>
<path d="M287.015 263.115L284.591 256.451L277.927 254.028L284.591 251.605L287.015 244.94L289.438 251.605L296.102 254.028L289.438 256.451L287.015 263.115Z" fill="#FFF2E9"/>
<path d="M86.3307 42.7416L84.2102 36.6832L78.1519 34.5627L84.2102 32.4423L86.3307 26.3839L88.4511 32.4423L94.5095 34.5627L88.4511 36.6832L86.3307 42.7416Z" fill="#FFF2E9"/>
<path d="M85.5735 229.037L87.391 234.035L92.3892 235.853L87.391 237.67L85.5735 242.668L83.756 237.67L78.7578 235.853L83.756 234.035L85.5735 229.037Z" fill="#FFF2E9"/>
<path d="M307.613 171.937L310.037 178.601L316.701 181.024L310.037 183.448L307.613 190.112L305.19 183.448L298.526 181.024L305.19 178.601L307.613 171.937Z" fill="#FFF2E9"/>
<path d="M297.314 156.942C293.225 160.426 288.984 164.061 284.591 167.545H108.444C108.141 163.91 108.141 160.275 108.292 156.488C108.747 147.703 110.261 139.222 112.988 131.194H292.619C295.345 139.373 296.86 148.006 297.314 156.942Z" fill="#F79538"/>
<path d="M280.653 170.725C265.053 183.145 247.938 195.262 229.46 207.075H120.106C114.048 196.019 109.958 183.751 108.595 170.725H280.653Z" fill="#F3733F"/>
<path d="M224.311 210.256C202.349 223.888 180.69 235.701 159.789 245.546C144.188 237.519 131.011 225.251 121.924 210.256H224.311Z" fill="#D35A54"/>
<path d="M76.789 139.676C26.2015 185.568 -8.93715 239.639 5.60298 262.661C26.5044 295.982 124.347 272.355 224.159 209.65C323.971 146.946 387.887 69.2474 366.986 35.9262C351.84 11.6927 295.8 17.5996 228.097 46.6799" stroke="#FFF2E9" stroke-width="4.54379" stroke-miterlimit="10"/>
<path d="M297.92 148.915C297.768 151.641 297.617 154.216 297.314 156.791V157.397V156.943C297.011 148.006 295.345 139.373 292.619 131.194C280.653 94.6927 247.181 67.7329 206.59 65.9153C162.969 63.9464 124.802 91.6635 111.776 131.194C109.201 139.222 107.535 147.704 107.081 156.488C106.929 160.123 106.929 163.91 107.232 167.545C107.232 168.605 107.384 169.665 107.535 170.725C108.898 183.751 112.836 196.019 119.046 207.076C119.652 208.136 120.258 209.196 120.864 210.256C130.103 225.251 143.28 237.671 159.183 245.698C159.789 246.001 160.395 246.304 160.849 246.607C169.785 250.848 179.478 253.877 189.778 255.24H181.296C170.694 254.786 160.546 252.817 150.853 249.636C105.869 234.641 74.214 191.778 74.9713 142.251C74.9713 141.039 74.9713 139.979 75.1228 138.767C78.0005 77.2748 130.103 29.7165 191.595 32.5942C207.498 33.3515 222.493 37.4409 235.973 43.9537C269.294 60.4628 292.922 93.1781 297.314 131.194C298.071 136.95 298.223 142.857 297.92 148.915Z" fill="#FFF2E9"/>
</g>
<defs>
<clipPath id="clip0_2107_1797">
<rect width="373.196" height="397.127" fill="white" transform="translate(0.0292969 0.787476)"/>
</clipPath>
</defs>
</svg>
