<svg width="1029" height="287" viewBox="0 0 1029 287" fill="none" xmlns="http://www.w3.org/2000/svg">
<g clip-path="url(#clip0_2107_2034)">
<path d="M299.132 148.345C298.98 151.223 298.829 154.1 298.375 156.827C296.709 107.754 257.481 67.4655 207.65 65.1936C155.094 62.7702 110.716 103.361 108.293 155.918C106.021 205.748 142.523 248.46 191.141 254.67C188.415 254.821 185.537 254.67 182.66 254.67C121.167 251.792 73.6086 199.69 76.4863 138.197C79.364 76.7045 131.466 29.1462 192.959 32.0239C254.451 34.7502 302.01 86.8523 299.132 148.345Z" fill="#333333"/>
<path d="M329.272 1.33008H46.3457V284.257H329.272V1.33008Z" stroke="#333333" stroke-width="3.02919" stroke-miterlimit="10"/>
<path d="M541.574 274.139C542.593 274.478 543.952 275.158 545.311 275.497C546.67 275.837 548.029 276.177 549.388 276.516C550.747 276.856 552.105 277.196 553.464 277.196C554.823 277.196 556.182 277.536 557.541 277.536C559.919 277.536 561.957 277.196 563.656 276.856C565.354 276.177 567.053 275.497 568.412 274.478C569.77 273.459 570.79 272.1 571.469 270.741C572.148 269.383 572.488 267.684 572.488 265.646C572.488 263.947 572.148 262.249 571.469 261.229C570.79 259.871 569.77 259.191 568.412 258.172C567.053 257.493 565.694 256.813 563.656 256.134C561.957 255.454 559.579 255.115 557.201 254.435C554.483 253.756 552.105 253.076 550.067 252.057C548.029 251.038 545.991 250.019 544.292 248.66C542.593 247.301 541.574 245.603 540.555 243.564C539.536 241.526 539.196 239.148 539.196 236.091C539.196 233.713 539.536 231.335 540.555 229.636C541.574 227.598 542.933 225.899 544.632 224.54C546.33 223.182 548.369 222.162 551.086 221.483C553.464 220.804 556.182 220.464 559.239 220.464C560.598 220.464 562.297 220.464 563.656 220.804C565.014 220.804 566.713 221.143 568.072 221.483C569.431 221.823 571.129 222.162 572.488 222.502C573.847 222.842 575.206 223.521 576.565 223.861L573.847 230.316C572.828 229.976 571.809 229.636 570.79 228.957C569.77 228.617 568.751 228.277 567.392 227.938C566.034 227.598 565.014 227.258 563.656 227.258C562.297 226.918 560.938 226.918 559.239 226.918C557.541 226.918 556.182 227.258 554.823 227.598C553.464 227.938 552.105 228.617 551.086 229.296C550.067 229.976 549.048 230.995 548.369 232.014C547.689 233.033 547.349 234.732 547.349 236.091C547.349 237.789 547.689 239.488 548.369 240.507C549.048 241.526 550.067 242.545 551.426 243.564C552.785 244.244 554.144 244.923 556.182 245.603C557.88 246.282 560.258 246.622 562.636 247.301C565.354 247.981 567.732 248.66 569.77 249.679C572.148 250.359 573.847 251.717 575.546 253.076C577.244 254.435 578.603 256.134 579.282 258.172C580.302 260.21 580.641 262.588 580.641 265.646C580.641 268.703 579.962 271.421 578.943 273.799C577.924 276.177 576.225 277.875 574.187 279.574C572.148 280.933 569.77 282.292 566.713 282.971C563.995 283.65 560.938 283.99 557.541 283.99C551.086 283.99 544.971 282.631 539.196 280.253L541.574 274.139Z" fill="#333333"/>
<path d="M588.455 221.483H634.656V227.937H615.632V282.971H607.819V227.937H588.795V221.483H588.455Z" fill="#333333"/>
<path d="M686.291 221.483H694.444V257.153C694.444 265.986 692.406 272.78 688.329 277.536C684.253 281.952 678.138 284.33 669.985 284.33C653.678 284.33 645.525 275.498 645.525 257.493V221.823H653.679V257.493C653.679 260.55 654.018 263.268 654.358 265.646C655.037 268.024 655.717 270.062 657.076 272.1C658.434 273.799 660.133 275.158 662.171 276.177C664.21 277.196 666.927 277.536 669.985 277.536C672.363 277.536 674.741 277.196 676.779 276.517C678.817 275.837 680.176 274.818 681.535 273.799C682.894 272.78 683.913 271.081 684.592 269.383C685.272 267.684 685.951 265.646 686.291 263.947C686.631 261.909 686.631 259.871 686.631 257.153V221.483H686.291Z" fill="#333333"/>
<path d="M709.393 282.971V221.483H722.302C725.699 221.483 729.096 221.823 732.153 222.162C735.211 222.502 737.928 223.181 740.306 223.861C742.684 224.88 745.062 225.899 746.761 227.258C748.799 228.617 750.158 230.655 751.517 232.693C752.876 235.071 753.895 237.789 754.574 240.847C755.254 243.904 755.594 247.641 755.594 252.057C755.594 256.134 755.254 259.87 754.574 263.268C753.895 266.325 752.876 269.043 751.517 271.421C750.158 273.799 748.46 275.497 746.761 277.196C744.723 278.555 742.684 279.914 740.306 280.593C737.928 281.612 734.871 281.952 732.153 282.631C729.096 282.971 726.039 283.311 722.302 283.311H709.393V282.971ZM723.661 276.516C728.077 276.516 731.814 276.177 734.871 275.158C737.928 274.138 740.306 272.78 742.345 270.741C744.383 268.703 745.742 266.325 746.421 263.268C747.44 260.21 747.78 256.473 747.78 252.057C747.78 247.641 747.44 243.904 746.421 240.847C745.402 237.789 744.043 235.411 742.345 233.373C740.306 231.335 737.928 229.976 734.871 229.296C731.814 228.277 728.077 227.937 723.661 227.937H717.206V276.516H723.661Z" fill="#333333"/>
<path d="M769.181 221.483H777.334V282.971H769.181V221.483Z" fill="#333333"/>
<path d="M844.597 252.397C844.597 262.589 842.219 270.402 837.463 275.837C832.707 281.273 826.253 283.99 817.42 283.99C808.588 283.99 802.133 281.273 797.377 275.837C792.621 270.402 790.243 262.589 790.243 252.057C790.243 241.526 792.621 234.053 797.377 228.617C802.133 223.182 808.588 220.464 817.42 220.464C826.253 220.464 832.707 223.182 837.463 228.617C842.219 234.392 844.597 242.206 844.597 252.397ZM836.444 252.397C836.444 244.584 834.746 238.469 831.688 234.053C828.631 229.636 823.875 227.598 817.76 227.598C811.305 227.598 806.889 229.976 803.832 234.392C800.774 238.809 799.076 244.923 799.076 252.737C799.076 256.474 799.415 259.871 800.095 262.928C800.774 265.986 801.793 268.703 803.492 270.742C804.851 272.78 806.889 274.479 809.267 275.837C811.645 276.857 814.363 277.536 817.76 277.536C823.875 277.536 828.631 275.498 831.688 271.081C834.746 266.325 836.444 260.211 836.444 252.397Z" fill="#333333"/>
<path d="M856.826 274.139C857.845 274.479 859.204 275.158 860.563 275.498C861.922 275.837 863.281 276.177 864.64 276.517C865.998 276.856 867.357 277.196 868.716 277.196C870.075 277.196 871.434 277.536 872.793 277.536C875.171 277.536 877.209 277.196 878.908 276.856C880.606 276.177 882.305 275.498 883.664 274.478C885.022 273.459 886.042 272.101 886.721 270.742C887.4 269.383 887.74 267.684 887.74 265.646C887.74 263.947 887.4 262.249 886.721 261.23C886.042 259.871 885.022 259.191 883.664 258.172C882.305 257.493 880.946 256.813 878.908 256.134C877.209 255.455 874.831 255.115 872.453 254.435C869.735 253.756 867.357 253.077 865.319 252.057C863.281 251.038 861.242 250.019 859.544 248.66C857.845 247.301 856.826 245.603 855.807 243.565C854.788 241.526 854.448 239.148 854.448 236.091C854.448 233.713 854.788 231.335 855.807 229.636C856.826 227.598 858.185 225.9 859.884 224.541C861.582 223.182 863.62 222.163 866.338 221.483C868.716 220.804 871.434 220.464 874.491 220.464C875.85 220.464 877.549 220.464 878.908 220.804C880.266 220.804 881.965 221.144 883.324 221.483C884.683 221.823 886.381 222.163 887.74 222.502C889.099 222.842 890.458 223.522 891.817 223.861L889.099 230.316C888.08 229.976 887.061 229.636 886.042 228.957C885.022 228.617 884.003 228.278 882.644 227.938C881.286 227.598 880.266 227.258 878.908 227.258C877.549 226.919 876.19 226.919 874.491 226.919C872.793 226.919 871.434 227.258 870.075 227.598C868.716 227.938 867.357 228.617 866.338 229.297C865.319 229.976 864.3 230.995 863.62 232.014C862.941 233.034 862.601 234.732 862.601 236.091C862.601 237.789 862.941 239.488 863.62 240.507C864.3 241.526 865.319 242.545 866.678 243.565C868.037 244.244 869.396 244.923 871.434 245.603C873.132 246.282 875.51 246.622 877.888 247.301C880.606 247.981 882.984 248.66 885.022 249.679C887.4 250.359 889.099 251.718 890.798 253.077C892.496 254.435 893.855 256.134 894.534 258.172C895.554 260.211 895.893 262.589 895.893 265.646C895.893 268.703 895.214 271.421 894.195 273.799C893.175 276.177 891.477 277.876 889.439 279.574C887.4 280.933 885.022 282.292 881.965 282.971C879.247 283.651 876.19 283.99 872.793 283.99C866.338 283.99 860.223 282.632 854.448 280.254L856.826 274.139Z" fill="#333333"/>
<path d="M559.578 150.483C571.468 150.483 580.98 140.971 580.98 129.081C580.98 117.191 571.468 107.679 559.578 107.679C547.688 107.679 538.176 117.191 538.176 129.081C538.176 140.971 547.688 150.483 559.578 150.483Z" fill="#333333"/>
<path fill-rule="evenodd" clip-rule="evenodd" d="M615.97 145.387C617.329 140.292 618.009 135.196 618.009 129.761C618.009 124.325 617.329 119.23 615.97 114.134C614.612 109.038 612.573 104.622 610.195 100.206C607.817 95.7894 604.76 92.0526 601.023 88.3157C597.286 84.5789 593.549 81.5215 589.133 79.1435C584.717 76.7655 580.301 74.7272 575.205 73.3684C570.109 72.0095 565.013 71.3301 559.578 71.3301C554.143 71.3301 549.047 72.0095 543.951 73.3684C538.856 74.7272 534.439 76.7655 530.023 79.1435C525.607 81.5215 521.87 84.5789 518.133 88.3157C514.396 92.0526 511.339 95.7894 508.961 100.206C506.583 104.622 504.545 109.038 503.186 114.134C501.827 119.23 501.147 124.325 501.147 129.761C501.147 135.196 501.827 140.292 503.186 145.387C504.545 150.483 506.583 154.899 508.961 159.316C511.679 163.732 514.736 167.469 518.133 171.206C521.87 174.942 525.607 178 530.023 180.378C534.439 182.756 539.195 184.794 543.951 186.153C549.047 187.512 554.143 188.191 559.578 188.191C565.013 188.191 570.109 187.512 575.205 186.153C580.301 184.794 584.717 182.756 589.133 180.378C593.549 177.66 597.286 174.603 601.023 171.206C604.76 167.809 607.817 163.732 610.195 159.316C612.573 154.899 614.612 150.143 615.97 145.387ZM592.53 115.832C594.569 120.249 595.248 125.005 595.248 129.761C595.248 134.856 594.229 139.273 592.53 143.689C590.492 148.105 588.114 151.842 584.717 155.239C581.659 158.636 577.583 161.014 573.167 163.053C568.75 165.091 563.994 165.77 559.238 165.77C554.143 165.77 549.387 164.751 545.31 163.053C540.894 161.014 537.157 158.636 533.76 155.239C530.363 151.842 527.985 148.105 525.946 143.689C523.908 139.273 523.229 134.517 523.229 129.761C523.229 124.665 524.248 120.249 525.946 115.832C527.985 111.416 530.363 107.679 533.76 104.282C537.157 100.885 540.894 98.5071 545.31 96.4688C549.726 94.4305 554.482 93.7511 559.238 93.7511C564.334 93.7511 568.75 94.7702 573.167 96.4688C577.583 98.5071 581.32 100.885 584.717 104.282C588.114 107.679 590.832 111.416 592.53 115.832Z" fill="#333333"/>
<path d="M403.989 93.4115C402.291 97.488 401.271 101.904 401.271 106.66C401.271 111.416 402.291 115.833 403.989 119.909C405.688 123.986 408.066 127.722 411.123 130.78C414.181 133.837 417.917 136.215 421.994 137.914C426.071 139.612 430.487 140.632 435.243 140.632H458.004C459.702 140.632 461.061 140.971 462.42 141.651C463.779 142.33 465.137 143.01 465.817 144.029C466.836 145.048 467.855 146.067 468.195 147.426C468.874 148.785 469.214 150.144 469.214 151.842C469.214 153.541 468.874 154.899 468.195 156.258C467.515 157.617 466.836 158.976 465.817 159.995C464.798 161.014 463.779 161.694 462.42 162.373C461.061 163.053 459.702 163.392 458.004 163.392H407.386V186.153H457.664C462.42 186.153 466.836 185.134 470.913 183.435C474.989 181.737 478.726 179.359 481.783 176.301C484.841 173.244 487.219 169.507 488.917 165.431C490.616 161.354 491.635 156.938 491.635 152.182C491.635 147.426 490.616 143.01 488.917 138.933C487.219 134.856 484.841 131.12 481.783 128.062C478.726 125.005 474.989 122.627 470.913 120.928C466.836 119.23 462.42 118.211 457.664 118.211H434.903C433.204 118.211 431.846 117.871 430.487 117.191C429.128 116.512 427.769 115.833 426.75 114.813C425.731 113.794 425.051 112.435 424.372 111.077C423.693 109.718 423.353 108.019 423.353 106.66C423.353 104.962 423.693 103.603 424.372 102.244C425.051 100.885 425.731 99.5263 426.75 98.8469C427.769 97.8278 429.128 96.8086 430.487 96.4689C431.846 95.7894 433.204 95.4498 434.903 95.4498H486.879V72.689H434.903C430.147 72.689 425.731 73.7081 421.654 75.4067C417.578 77.1052 413.841 79.4832 410.783 82.8804C408.066 85.5981 405.688 89.3349 403.989 93.4115Z" fill="#333333"/>
<path d="M712.45 186.153H632.957V72.6887H655.718V163.392H712.45V186.153Z" fill="#333333"/>
<path fill-rule="evenodd" clip-rule="evenodd" d="M790.922 186.153H813.683V118.211C813.683 112.096 812.664 105.981 810.286 100.545C807.908 95.1101 804.511 90.3541 800.434 85.9378C796.358 81.5215 791.602 78.4641 785.827 76.0861C780.391 73.7081 774.616 72.689 768.161 72.689C761.707 72.689 755.932 73.7081 750.496 76.0861C745.061 78.4641 740.305 81.8612 736.228 85.9378C732.152 90.0144 729.094 94.7703 726.716 100.545C724.338 105.981 723.319 111.756 723.319 118.211V186.153H746.08V163.392H791.602V186.153H790.922ZM790.922 117.871V140.632H745.401V117.871C745.401 114.813 746.08 111.756 747.099 109.038C748.458 106.321 749.817 103.943 751.855 101.904C753.893 99.866 756.271 98.1675 758.989 97.1483C761.707 95.7895 764.764 95.4498 767.822 95.4498C770.879 95.4498 773.937 96.1292 776.654 97.1483C779.372 98.1675 781.75 99.866 783.788 101.904C785.826 103.943 787.525 106.321 788.544 109.038C790.243 112.096 790.922 114.813 790.922 117.871Z" fill="#333333"/>
<path fill-rule="evenodd" clip-rule="evenodd" d="M856.148 186.153H833.388V72.6887H878.909C882.986 72.6887 887.062 73.3681 890.799 74.3873C894.536 75.4064 898.273 77.105 901.67 79.1433C905.067 81.1816 908.124 83.5595 910.842 86.2772C913.56 88.9949 915.938 92.0524 917.976 95.4495C920.014 98.8467 921.373 102.583 922.392 106.32C923.412 110.057 924.091 114.134 924.091 118.21C924.091 121.947 923.751 126.024 922.732 129.76C921.713 133.497 920.354 136.894 918.656 140.292C916.957 143.689 914.579 146.746 911.861 149.464C909.144 152.182 906.426 154.56 903.029 156.598L915.598 186.153H891.479L881.627 163.392H856.148V186.153ZM856.148 140.631H878.909C881.967 140.631 885.024 139.952 887.742 138.933C890.459 137.574 892.837 136.215 894.876 134.177C896.914 132.138 898.613 129.76 899.632 127.043C900.991 124.325 901.33 121.268 901.33 118.21C901.33 115.153 900.651 112.095 899.632 109.378C898.613 106.66 896.914 104.282 894.876 102.244C892.837 100.206 890.459 98.5069 887.742 97.4878C885.024 96.1289 881.967 95.7892 878.909 95.7892H856.148V140.631Z" fill="#333333"/>
<path fill-rule="evenodd" clip-rule="evenodd" d="M1005.62 186.153H1028.38V118.211C1028.38 112.096 1027.36 105.981 1024.99 100.545C1022.61 95.1101 1019.21 90.3541 1015.13 85.9378C1011.06 81.5215 1006.3 78.4641 1000.53 76.0861C995.09 73.7081 989.315 72.689 982.861 72.689C976.406 72.689 970.631 73.7081 965.196 76.0861C959.76 78.4641 955.004 81.8612 950.928 85.9378C946.851 90.0144 943.794 94.7703 941.416 100.545C939.038 105.981 938.019 111.756 938.019 118.211V186.153H960.779V163.392H1006.3V186.153H1005.62ZM1005.62 117.871V140.632H960.1V117.871C960.1 114.813 960.779 111.756 961.798 109.038C963.157 106.321 964.516 103.943 966.554 101.904C968.593 99.866 970.971 98.1675 973.688 97.1483C976.406 95.7895 979.464 95.4498 982.521 95.4498C985.578 95.4498 988.636 96.1292 991.354 97.1483C994.071 98.1675 996.449 99.866 998.487 101.904C1000.53 103.943 1002.22 106.321 1003.24 109.038C1004.94 112.096 1005.62 114.813 1005.62 117.871Z" fill="#333333"/>
<path d="M202.955 71.252L207.044 82.46L218.252 86.5494L207.044 90.6388L202.955 101.847L198.865 90.6388L187.657 86.5494L198.865 82.46L202.955 71.252Z" fill="#333333"/>
<path d="M153.276 97.7573L155.699 104.422L162.364 106.845L155.699 109.268L153.276 115.932L150.853 109.268L144.188 106.845L150.853 104.422L153.276 97.7573Z" fill="#333333"/>
<path d="M249.604 97.7573L252.028 104.422L258.692 106.845L252.028 109.268L249.604 115.932L247.181 109.268L240.517 106.845L247.181 104.422L249.604 97.7573Z" fill="#333333"/>
<path d="M235.367 249.52C235.367 251.792 233.55 253.609 231.278 253.609C229.006 253.609 227.188 251.792 227.188 249.52C227.188 247.248 229.006 245.431 231.278 245.431C233.55 245.431 235.367 247.248 235.367 249.52Z" fill="#333333"/>
<path d="M268.082 214.533C268.082 213.321 269.142 212.261 270.354 212.261C271.566 212.261 272.626 213.321 272.626 214.533C272.626 215.744 271.566 216.805 270.354 216.805C269.142 216.805 268.082 215.744 268.082 214.533Z" fill="#333333"/>
<path d="M302.312 40.8086L306.401 52.0166L317.609 56.106L306.401 60.1954L302.312 71.4034L298.223 60.1954L287.015 56.106L298.223 52.0166L302.312 40.8086Z" fill="#333333"/>
<path d="M287.015 262.546L284.592 255.881L277.928 253.458L284.592 251.035L287.015 244.37L289.439 251.035L296.103 253.458L289.439 255.881L287.015 262.546Z" fill="#333333"/>
<path d="M86.4825 42.1716L84.3621 36.1132L78.3037 33.9928L84.3621 31.8723L86.4825 25.814L88.603 31.8723L94.6613 33.9928L88.603 36.1132L86.4825 42.1716Z" fill="#333333"/>
<path d="M85.5735 228.467L87.391 233.465L92.3892 235.283L87.391 237.1L85.5735 242.098L83.756 237.1L78.7578 235.283L83.756 233.465L85.5735 228.467Z" fill="#333333"/>
<path d="M307.613 171.367L310.036 178.031L316.701 180.454L310.036 182.878L307.613 189.542L305.19 182.878L298.525 180.454L305.19 178.031L307.613 171.367Z" fill="#333333"/>
<path d="M297.314 156.372C293.225 159.856 288.984 163.491 284.592 166.974H108.444C108.141 163.339 108.141 159.704 108.293 155.918C108.747 147.133 110.262 138.651 112.988 130.624H292.619C295.345 138.803 297.012 147.436 297.314 156.372Z" fill="#979696"/>
<path d="M280.654 170.155C265.053 182.575 247.939 194.691 229.46 206.505H120.107C114.048 195.449 109.959 183.181 108.596 170.155H280.654Z" fill="#989898"/>
<path d="M224.462 209.686C202.5 223.317 180.842 235.131 159.94 244.976C144.34 236.949 131.163 224.681 122.075 209.686H224.462Z" fill="#949494"/>
<path d="M76.789 139.106C26.2015 184.998 -8.93715 239.069 5.60298 262.091C26.5044 295.412 124.347 271.785 224.159 209.08C323.971 146.376 387.887 68.6772 366.986 35.3561C351.84 11.1225 295.8 17.0294 228.097 46.1097" stroke="#333333" stroke-width="4.54379" stroke-miterlimit="10"/>
<path d="M298.071 148.345C297.92 151.071 297.768 153.646 297.465 156.221V156.827V156.372C297.162 147.436 295.496 138.803 292.77 130.624C280.805 94.1223 247.332 67.1625 206.741 65.345C163.121 63.376 124.953 91.0931 111.927 130.624C109.353 138.651 107.686 147.133 107.232 155.918C107.081 159.553 107.081 163.339 107.384 166.974C107.384 168.035 107.535 169.095 107.686 170.155C109.05 183.181 112.988 195.449 119.197 206.505C119.803 207.566 120.409 208.626 121.015 209.686C130.254 224.681 143.431 237.1 159.334 245.128C159.94 245.43 160.546 245.733 161 246.036C169.936 250.277 179.63 253.306 189.929 254.67H181.447C170.845 254.215 160.697 252.246 151.004 249.066C106.02 234.071 74.3654 191.208 75.1227 141.681C75.1227 140.469 75.1227 139.409 75.2741 138.197C78.1519 76.7045 130.254 29.1462 191.747 32.0239C207.65 32.7812 222.644 36.8706 236.124 43.3834C269.445 59.8925 293.073 92.6077 297.465 130.624C298.071 136.38 298.223 142.287 298.071 148.345Z" fill="#333333"/>
</g>
<defs>
<clipPath id="clip0_2107_2034">
<rect width="1029" height="286" fill="white" transform="translate(0 0.330078)"/>
</clipPath>
</defs>
</svg>
