<svg width="1029" height="288" viewBox="0 0 1029 288" fill="none" xmlns="http://www.w3.org/2000/svg">
<g clip-path="url(#clip0_2107_2000)">
<path d="M299.132 148.916C298.98 151.793 298.829 154.671 298.375 157.397C296.709 108.325 257.481 68.0363 207.65 65.7644C155.094 63.341 110.716 103.932 108.293 156.489C106.021 206.319 142.523 249.031 191.141 255.24C188.415 255.392 185.537 255.24 182.66 255.24C121.167 252.363 73.6086 200.26 76.4863 138.768C79.364 77.2753 131.466 29.717 192.959 32.5947C254.3 35.321 301.858 87.4231 299.132 148.916Z" fill="#0C032B"/>
<path d="M329.121 2.33008H46.1943V285.257H329.121V2.33008Z" stroke="#0C032B" stroke-width="3.02919"/>
<path d="M541.423 275.139C542.442 275.478 543.801 276.158 545.16 276.497C546.519 276.837 547.877 277.177 549.236 277.516C550.595 277.856 551.954 278.196 553.313 278.196C554.672 278.196 556.031 278.536 557.389 278.536C559.767 278.536 561.806 278.196 563.504 277.856C565.203 277.177 566.901 276.497 568.26 275.478C569.619 274.459 570.638 273.1 571.318 271.741C571.997 270.383 572.337 268.684 572.337 266.646C572.337 264.947 571.997 263.249 571.318 262.229C570.638 260.871 569.619 260.191 568.26 259.172C566.901 258.493 565.543 257.813 563.504 257.134C561.806 256.454 559.428 256.115 557.05 255.435C554.332 254.756 551.954 254.076 549.916 253.057C547.877 252.038 545.839 251.019 544.141 249.66C542.442 248.301 541.423 246.603 540.404 244.564C539.385 242.526 539.045 240.148 539.045 237.091C539.045 234.713 539.385 232.335 540.404 230.636C541.423 228.598 542.782 226.899 544.48 225.54C546.179 224.182 548.217 223.162 550.935 222.483C553.313 221.804 556.031 221.464 559.088 221.464C560.447 221.464 562.145 221.464 563.504 221.804C564.863 221.804 566.562 222.143 567.921 222.483C569.279 222.823 570.978 223.162 572.337 223.502C573.696 223.842 575.054 224.521 576.413 224.861L573.696 231.316C572.676 230.976 571.657 230.636 570.638 229.957C569.619 229.617 568.6 229.277 567.241 228.938C565.882 228.598 564.863 228.258 563.504 228.258C562.145 227.918 560.787 227.918 559.088 227.918C557.389 227.918 556.031 228.258 554.672 228.598C553.313 228.938 551.954 229.617 550.935 230.296C549.916 230.976 548.897 231.995 548.217 233.014C547.538 234.033 547.198 235.732 547.198 237.091C547.198 238.789 547.538 240.488 548.217 241.507C548.897 242.526 549.916 243.545 551.275 244.564C552.633 245.244 553.992 245.923 556.031 246.603C557.729 247.282 560.107 247.622 562.485 248.301C565.203 248.981 567.581 249.66 569.619 250.679C571.997 251.359 573.696 252.717 575.394 254.076C577.093 255.435 578.452 257.134 579.131 259.172C580.15 261.21 580.49 263.588 580.49 266.646C580.49 269.703 579.81 272.421 578.791 274.799C577.772 277.177 576.074 278.875 574.035 280.574C571.997 281.933 569.619 283.292 566.562 283.971C563.844 284.65 560.787 284.99 557.389 284.99C550.935 284.99 544.82 283.631 539.045 281.253L541.423 275.139Z" fill="#0C032B"/>
<path d="M588.643 222.483H634.844V228.938H615.82V283.971H607.666V228.938H588.643V222.483Z" fill="#0C032B"/>
<path d="M686.48 222.483H694.634V258.153C694.634 266.986 692.595 273.78 688.519 278.536C684.442 282.952 678.327 285.33 670.174 285.33C653.868 285.33 645.715 276.498 645.715 258.493V222.823H653.868V258.493C653.868 261.55 654.208 264.268 654.547 266.646C655.227 269.024 655.906 271.062 657.265 273.1C658.624 274.799 660.323 276.158 662.361 277.177C664.399 278.196 667.117 278.536 670.174 278.536C672.552 278.536 674.93 278.196 676.968 277.517C679.007 276.837 680.366 275.818 681.724 274.799C683.083 273.78 684.102 272.081 684.782 270.383C685.461 268.684 686.141 266.646 686.48 264.947C686.82 262.909 686.82 260.871 686.82 258.153V222.483H686.48Z" fill="#0C032B"/>
<path d="M709.58 283.971V222.483H722.489C725.886 222.483 729.283 222.823 732.341 223.163C735.398 223.502 738.116 224.182 740.494 224.861C742.872 225.88 745.25 226.899 746.949 228.258C748.987 229.617 750.346 231.655 751.704 233.694C753.063 236.072 754.082 238.789 754.762 241.847C755.441 244.904 755.781 248.641 755.781 253.057C755.781 257.134 755.441 260.871 754.762 264.268C754.082 267.325 753.063 270.043 751.704 272.421C750.346 274.799 748.647 276.498 746.949 278.196C744.91 279.555 742.872 280.914 740.494 281.593C738.116 282.612 735.059 282.952 732.341 283.632C729.283 283.971 726.226 284.311 722.489 284.311H709.58V283.971ZM723.848 277.517C728.264 277.517 732.001 277.177 735.059 276.158C738.116 275.139 740.494 273.78 742.532 271.742C744.571 269.703 745.929 267.325 746.609 264.268C747.628 261.21 747.968 257.474 747.968 253.057C747.968 248.641 747.628 244.904 746.609 241.847C745.59 238.789 744.231 236.411 742.532 234.373C740.494 232.335 738.116 230.976 735.059 230.297C732.001 229.277 728.264 228.938 723.848 228.938H717.393V277.517H723.848Z" fill="#0C032B"/>
<path d="M769.03 222.483H777.183V283.971H769.03V222.483Z" fill="#0C032B"/>
<path d="M844.447 253.397C844.447 263.588 842.069 271.402 837.313 276.837C832.557 282.273 826.102 284.99 817.27 284.99C808.437 284.99 801.983 282.273 797.227 276.837C792.471 271.402 790.093 263.588 790.093 253.057C790.093 242.526 792.471 235.052 797.227 229.617C801.983 224.182 808.437 221.464 817.27 221.464C826.102 221.464 832.557 224.182 837.313 229.617C842.409 235.392 844.447 243.206 844.447 253.397ZM836.294 253.397C836.294 245.584 834.595 239.469 831.538 235.052C828.48 230.636 823.724 228.598 817.609 228.598C811.155 228.598 806.739 230.976 803.681 235.392C800.624 239.808 798.925 245.923 798.925 253.737C798.925 257.473 799.265 260.871 799.944 263.928C800.624 266.985 801.643 269.703 803.342 271.741C804.7 273.78 806.739 275.478 809.117 276.837C811.495 277.856 814.212 278.536 817.609 278.536C823.724 278.536 828.48 276.497 831.538 272.081C834.935 267.325 836.294 261.21 836.294 253.397Z" fill="#0C032B"/>
<path d="M856.676 275.139C857.695 275.478 859.054 276.158 860.413 276.497C861.772 276.837 863.13 277.177 864.489 277.516C865.848 277.856 867.207 278.196 868.566 278.196C869.925 278.196 871.284 278.536 872.642 278.536C875.02 278.536 877.059 278.196 878.757 277.856C880.456 277.177 882.154 276.497 883.513 275.478C884.872 274.459 885.891 273.1 886.571 271.741C887.25 270.383 887.59 268.684 887.59 266.646C887.59 264.947 887.25 263.249 886.571 262.229C885.891 260.871 884.872 260.191 883.513 259.172C882.154 258.493 880.795 257.813 878.757 257.134C877.059 256.454 874.681 256.115 872.303 255.435C869.585 254.756 867.207 254.076 865.169 253.057C863.13 252.038 861.092 251.019 859.394 249.66C857.695 248.301 856.676 246.603 855.657 244.564C854.638 242.526 854.298 240.148 854.298 237.091C854.298 234.713 854.638 232.335 855.657 230.636C856.676 228.598 858.035 226.899 859.733 225.54C861.432 224.182 863.47 223.162 866.188 222.483C868.566 221.804 871.284 221.464 874.341 221.464C875.7 221.464 877.398 221.464 878.757 221.804C880.116 221.804 881.815 222.143 883.173 222.483C884.532 222.823 886.231 223.162 887.59 223.502C888.949 223.842 890.307 224.521 891.666 224.861L888.949 231.316C887.929 230.976 886.91 230.636 885.891 229.957C884.872 229.617 883.853 229.277 882.494 228.938C881.135 228.598 880.116 228.258 878.757 228.258C877.398 227.918 876.04 227.918 874.341 227.918C872.642 227.918 871.284 228.258 869.925 228.598C868.566 228.938 867.207 229.617 866.188 230.296C865.169 230.976 864.15 231.995 863.47 233.014C862.791 234.033 862.451 235.732 862.451 237.091C862.451 238.789 862.791 240.488 863.47 241.507C864.15 242.526 865.169 243.545 866.528 244.564C867.886 245.244 869.245 245.923 871.283 246.603C872.982 247.282 875.36 247.622 877.738 248.301C880.456 248.981 882.834 249.66 884.872 250.679C887.25 251.359 888.949 252.717 890.647 254.076C892.346 255.435 893.705 257.134 894.384 259.172C895.403 261.21 895.743 263.588 895.743 266.646C895.743 269.703 895.063 272.421 894.044 274.799C893.025 277.177 891.327 278.875 889.288 280.574C887.25 281.933 884.872 283.292 881.815 283.971C879.097 284.65 876.04 284.99 872.642 284.99C866.188 284.99 860.073 283.631 854.298 281.253L856.676 275.139Z" fill="#0C032B"/>
<path d="M559.427 151.483C571.317 151.483 580.829 141.971 580.829 130.081C580.829 118.191 571.317 108.679 559.427 108.679C547.537 108.679 538.025 118.191 538.025 130.081C538.025 141.971 547.537 151.483 559.427 151.483Z" fill="#0C032B"/>
<path fill-rule="evenodd" clip-rule="evenodd" d="M615.82 146.387C617.179 141.292 617.858 136.196 617.858 130.761C617.858 125.325 617.179 120.23 615.82 115.134C614.461 110.038 612.423 105.622 610.045 101.206C607.667 96.7894 604.609 93.0526 600.873 89.3157C597.136 85.5789 593.399 82.5215 588.983 80.1435C584.566 77.7655 580.15 75.7272 575.054 74.3684C569.959 73.0095 564.863 72.3301 559.428 72.3301C553.992 72.3301 548.897 73.0095 543.801 74.3684C538.705 75.7272 534.289 77.7655 529.873 80.1435C525.456 82.5215 521.72 85.5789 517.983 89.3157C514.246 93.0526 511.188 96.7894 508.81 101.206C506.432 105.622 504.394 110.038 503.035 115.134C501.677 120.23 500.997 125.325 500.997 130.761C500.997 136.196 501.677 141.292 503.035 146.387C504.394 151.483 506.432 155.899 508.81 160.316C511.528 164.732 514.586 168.469 517.983 172.206C521.72 175.942 525.456 179 529.873 181.378C534.289 183.756 539.045 185.794 543.801 187.153C548.897 188.512 553.992 189.191 559.428 189.191C564.863 189.191 569.959 188.512 575.054 187.153C580.15 185.794 584.566 183.756 588.983 181.378C593.399 178.66 597.136 175.603 600.873 172.206C604.609 168.469 607.667 164.732 610.045 160.316C612.423 155.899 614.461 151.143 615.82 146.387ZM592.72 116.832C594.758 121.249 595.437 126.005 595.437 130.761C595.437 135.856 594.418 140.273 592.72 144.689C590.681 149.105 588.303 152.842 584.906 156.239C581.849 159.636 577.772 162.014 573.356 164.053C568.94 166.091 564.184 166.77 559.428 166.77C554.332 166.77 549.576 165.751 545.499 164.053C541.083 162.014 537.346 159.636 533.949 156.239C530.552 152.842 528.174 149.105 526.136 144.689C524.098 140.273 523.418 135.517 523.418 130.761C523.418 125.665 524.437 121.249 526.136 116.832C528.174 112.416 530.552 108.679 533.949 105.282C537.346 101.885 541.083 99.5071 545.499 97.4688C549.916 95.4305 554.672 94.7511 559.428 94.7511C564.523 94.7511 568.94 95.7702 573.356 97.4688C577.772 99.5071 581.509 101.885 584.906 105.282C587.964 108.679 590.681 112.416 592.72 116.832Z" fill="#0C032B"/>
<path d="M403.839 94.4115C402.14 98.488 401.121 102.904 401.121 107.66C401.121 112.416 402.14 116.833 403.839 120.909C405.537 124.986 407.915 128.722 410.973 131.78C414.03 134.837 417.767 137.215 421.844 138.914C425.92 140.612 430.336 141.632 435.092 141.632H457.853C459.552 141.632 460.911 141.971 462.269 142.651C463.628 143.33 464.987 144.01 465.667 145.029C466.686 146.048 467.705 147.067 468.045 148.426C468.724 149.785 469.064 151.144 469.064 152.842C469.064 154.541 468.724 155.899 468.045 157.258C467.365 158.617 466.686 159.976 465.667 160.995C464.647 162.014 463.628 162.694 462.269 163.373C460.911 164.053 459.552 164.392 457.853 164.392H407.576V187.153H457.853C462.609 187.153 467.025 186.134 471.102 184.435C475.179 182.737 478.915 180.359 481.973 177.301C485.03 174.244 487.408 170.507 489.107 166.431C490.805 162.354 491.824 157.938 491.824 153.182C491.824 148.426 490.805 144.01 489.107 139.933C487.408 135.856 485.03 132.12 481.973 129.062C478.915 126.005 475.179 123.627 471.102 121.928C467.025 120.23 462.609 119.211 457.853 119.211H435.092C433.394 119.211 432.035 118.871 430.676 118.191C429.317 117.512 427.958 116.833 426.939 115.813C425.92 114.794 425.241 113.435 424.561 112.077C423.882 110.718 423.542 109.019 423.542 107.66C423.542 105.962 423.882 104.603 424.561 103.244C425.241 101.885 425.92 100.526 426.939 99.8469C427.958 98.8278 429.317 97.8086 430.676 97.4689C432.035 96.7894 433.394 96.4498 435.092 96.4498H487.068V73.689H435.092C430.336 73.689 425.92 74.7081 421.844 76.4067C417.767 78.1052 414.03 80.4832 410.973 83.8804C408.255 86.5981 405.877 90.3349 403.839 94.4115Z" fill="#0C032B"/>
<path d="M712.298 187.153H632.805V73.689H655.565V164.392H712.298V187.153Z" fill="#0C032B"/>
<path fill-rule="evenodd" clip-rule="evenodd" d="M791.112 187.153H813.872V119.211C813.872 113.096 812.853 106.981 810.475 101.545C808.097 96.1101 804.7 91.3541 800.624 86.9378C796.547 82.8612 791.791 79.4641 786.016 77.0861C780.581 74.7081 774.805 73.689 768.351 73.689C762.236 73.689 756.121 74.7081 750.686 77.0861C745.25 79.4641 740.494 82.8612 736.418 86.9378C732.341 91.0144 729.284 95.7703 726.906 101.545C724.528 106.981 723.509 112.756 723.509 119.211V187.153H746.27V164.392H791.791V187.153H791.112ZM791.112 118.871V141.632H745.59V118.871C745.59 115.813 746.27 112.756 747.289 110.038C748.648 107.321 750.006 104.943 752.045 102.904C754.083 100.866 756.461 99.1675 759.179 98.1483C761.896 96.7895 764.954 96.4498 768.011 96.4498C771.069 96.4498 774.126 97.1292 776.844 98.1483C779.561 99.1675 781.939 100.866 783.978 102.904C786.016 104.943 787.714 107.321 788.734 110.038C790.432 113.096 791.112 115.813 791.112 118.871Z" fill="#0C032B"/>
<path fill-rule="evenodd" clip-rule="evenodd" d="M855.997 187.153H833.236V73.689H878.758C882.834 73.689 886.911 74.3684 890.648 75.3875C894.385 76.4067 898.122 78.1053 901.519 80.1435C904.916 82.1818 907.973 84.5598 910.691 87.2775C913.409 89.9952 915.787 93.0526 917.825 96.4498C919.863 99.8469 921.222 103.584 922.241 107.321C923.26 111.057 923.94 115.134 923.94 119.211C923.94 122.947 923.6 127.024 922.581 130.761C921.562 134.498 920.203 137.895 918.504 141.292C916.806 144.689 914.428 147.746 911.71 150.464C908.992 153.182 906.275 155.56 902.877 157.598L915.447 187.153H891.327L881.476 164.392H855.997V187.153ZM855.997 141.632H878.758C881.815 141.632 884.873 140.952 887.59 139.933C890.308 138.574 892.686 137.215 894.724 135.177C896.763 133.139 898.461 130.761 899.48 128.043C900.839 125.325 901.179 122.268 901.179 119.211C901.179 116.153 900.499 113.096 899.48 110.378C898.461 107.66 896.763 105.282 894.724 103.244C892.686 101.206 890.308 99.5072 887.59 98.488C884.873 97.1292 881.815 96.7894 878.758 96.7894H855.997V141.632Z" fill="#0C032B"/>
<path fill-rule="evenodd" clip-rule="evenodd" d="M1005.81 187.153H1028.57V119.211C1028.57 113.096 1027.55 106.981 1025.17 101.545C1022.8 96.1101 1019.4 91.3541 1015.32 86.9378C1011.25 82.8612 1006.49 79.4641 1000.71 77.0861C995.279 74.7081 989.504 73.689 983.049 73.689C976.934 73.689 970.819 74.7081 965.384 77.0861C959.949 79.4641 955.193 82.8612 951.116 86.9378C947.04 91.0144 943.982 95.7703 941.604 101.545C939.226 106.981 938.207 112.756 938.207 119.211V187.153H960.968V164.392H1006.49V187.153H1005.81ZM1005.81 118.871V141.632H960.288V118.871C960.288 115.813 960.968 112.756 961.987 110.038C963.346 107.321 964.705 104.943 966.743 102.904C968.781 100.866 971.159 99.1675 973.877 98.1483C976.595 96.7895 979.652 96.4498 982.709 96.4498C985.767 96.4498 988.824 97.1292 991.542 98.1483C994.26 99.1675 996.638 100.866 998.676 102.904C1000.71 104.943 1002.41 107.321 1003.43 110.038C1005.13 113.096 1005.81 115.813 1005.81 118.871Z" fill="#0C032B"/>
<path d="M202.803 71.8229L206.893 83.0309L218.101 87.1203L206.893 91.2097L202.803 102.418L198.714 91.2097L187.506 87.1203L198.714 83.0309L202.803 71.8229Z" fill="#0C032B"/>
<path d="M153.276 98.3284L155.699 104.993L162.364 107.416L155.699 109.839L153.276 116.504L150.853 109.839L144.188 107.416L150.853 104.993L153.276 98.3284Z" fill="#0C032B"/>
<path d="M249.604 98.3284L252.028 104.993L258.692 107.416L252.028 109.839L249.604 116.504L247.181 109.839L240.517 107.416L247.181 104.993L249.604 98.3284Z" fill="#0C032B"/>
<path d="M235.367 250.091C235.367 252.363 233.55 254.18 231.278 254.18C229.006 254.18 227.188 252.363 227.188 250.091C227.188 247.819 229.006 246.001 231.278 246.001C233.55 246.001 235.367 247.819 235.367 250.091Z" fill="#0C032B"/>
<path d="M268.082 215.104C268.082 213.892 269.142 212.832 270.354 212.832C271.566 212.832 272.626 213.892 272.626 215.104C272.626 216.315 271.566 217.376 270.354 217.376C269.142 217.376 268.082 216.315 268.082 215.104Z" fill="#0C032B"/>
<path d="M71.3368 206.319C71.3368 207.531 70.2765 208.591 69.0649 208.591C67.8532 208.591 66.793 207.531 66.793 206.319C66.793 205.107 67.8532 204.047 69.0649 204.047C70.428 204.047 71.3368 205.107 71.3368 206.319Z" fill="#0C032B"/>
<path d="M302.161 41.3795L306.25 52.5875L317.458 56.6769L306.25 60.7663L302.161 71.9744L298.071 60.7663L286.863 56.6769L298.071 52.5875L302.161 41.3795Z" fill="#0C032B"/>
<path d="M287.015 263.117L284.592 256.452L277.928 254.029L284.592 251.606L287.015 244.941L289.439 251.606L296.103 254.029L289.439 256.452L287.015 263.117Z" fill="#0C032B"/>
<path d="M86.3312 42.7426L84.2107 36.6843L78.1523 34.5638L84.2107 32.4434L86.3312 26.385L88.4516 32.4434L94.51 34.5638L88.4516 36.6843L86.3312 42.7426Z" fill="#0C032B"/>
<path d="M85.4221 229.038L87.2396 234.036L92.2378 235.854L87.2396 237.671L85.4221 242.669L83.6046 237.671L78.6064 235.854L83.6046 234.036L85.4221 229.038Z" fill="#0C032B"/>
<path d="M307.613 171.938L310.036 178.602L316.701 181.025L310.036 183.449L307.613 190.113L305.19 183.449L298.525 181.025L305.19 178.602L307.613 171.938Z" fill="#0C032B"/>
<path d="M297.162 156.943C293.073 160.427 288.832 164.062 284.439 167.545H108.292C107.989 163.91 107.989 160.275 108.14 156.489C108.595 147.704 110.109 139.222 112.836 131.195H292.467C295.345 139.374 296.859 148.007 297.162 156.943Z" fill="#F79538"/>
<path d="M280.502 170.726C264.902 183.146 247.787 195.263 229.309 207.076H120.107C114.048 196.02 109.959 183.752 108.596 170.726H280.502Z" fill="#F3733F"/>
<path d="M224.311 210.257C202.349 223.888 180.69 235.702 159.789 245.547C144.188 237.52 131.011 225.251 121.924 210.257H224.311Z" fill="#D35A54"/>
<path d="M76.789 139.677C26.2015 185.569 -8.93715 239.64 5.60298 262.662C26.5044 295.983 124.347 272.355 224.159 209.651C323.971 146.947 387.887 69.2481 366.986 35.927C351.84 11.6934 295.8 17.6004 228.097 46.6806" stroke="#0C032B" stroke-width="4.54379" stroke-miterlimit="10"/>
<path d="M297.92 148.916C297.768 151.642 297.617 154.217 297.314 156.792V157.398V156.943C297.011 148.007 295.345 139.374 292.619 131.195C280.653 94.6933 247.181 67.7335 206.59 65.9159C162.969 63.947 124.802 91.6641 111.776 131.195C109.201 139.222 107.535 147.704 107.081 156.489C106.929 160.124 106.929 163.91 107.232 167.545C107.232 168.606 107.384 169.666 107.535 170.726C108.898 183.752 112.836 196.02 119.046 207.076C119.652 208.137 120.258 209.197 120.864 210.257C130.103 225.251 143.28 237.671 159.183 245.699C159.789 246.001 160.395 246.304 160.849 246.607C169.785 250.848 179.478 253.877 189.778 255.24H181.296C170.694 254.786 160.546 252.817 150.853 249.636C105.869 234.642 74.214 191.779 74.9713 142.252C74.9713 141.04 74.9713 139.98 75.1228 138.768C78.0005 77.2754 130.103 29.7171 191.595 32.5948C207.498 33.3521 222.493 37.4415 235.973 43.9543C269.294 60.4634 292.922 93.1787 297.314 131.195C298.071 136.95 298.223 142.857 297.92 148.916Z" fill="#0C032B"/>
</g>
<defs>
<clipPath id="clip0_2107_2000">
<rect width="1029" height="287" fill="white" transform="translate(0 0.330078)"/>
</clipPath>
</defs>
</svg>
