<svg width="1028" height="287" viewBox="0 0 1028 287" fill="none" xmlns="http://www.w3.org/2000/svg">
<g clip-path="url(#clip0_2107_2100)">
<path d="M299.132 148.203C298.98 151.081 298.829 153.959 298.375 156.685C296.709 107.612 257.481 67.3236 207.65 65.0517C155.094 62.6284 110.716 103.22 108.293 155.776C106.021 205.606 142.523 248.318 191.141 254.528C188.415 254.679 185.537 254.528 182.66 254.528C121.167 251.65 73.6086 199.548 76.4863 138.055C79.364 76.5626 131.466 29.0043 192.959 31.8821C254.451 34.6083 302.01 86.7104 299.132 148.203Z" fill="white"/>
<path d="M329.272 1.33008H46.3457V284.257H329.272V1.33008Z" stroke="white" stroke-width="3.02919"/>
<path d="M541.573 274.14C542.592 274.48 543.951 275.159 545.31 275.499C546.669 275.839 548.028 276.178 549.387 276.518C550.746 276.858 552.104 277.197 553.463 277.197C554.822 277.197 556.181 277.537 557.54 277.537C559.918 277.537 561.956 277.197 563.655 276.858C565.353 276.178 567.052 275.499 568.411 274.48C569.769 273.461 570.789 272.102 571.468 270.743C572.147 269.384 572.487 267.685 572.487 265.647C572.487 263.609 572.147 262.25 571.468 261.231C570.789 259.872 569.769 259.193 568.411 258.173C567.052 257.494 565.693 256.815 563.655 256.135C561.956 255.456 559.578 255.116 557.2 254.437C554.482 253.757 552.104 253.078 550.066 252.059C548.028 251.039 545.99 250.02 544.291 248.662C542.592 247.303 541.573 245.604 540.554 243.566C539.535 241.528 539.195 239.15 539.195 236.092C539.195 233.714 539.535 231.336 540.554 229.638C541.573 227.939 542.932 225.901 544.631 224.542C546.329 223.183 548.368 222.164 551.085 221.484C553.463 220.805 556.181 220.465 559.238 220.465C560.597 220.465 562.296 220.465 563.655 220.805C565.014 220.805 566.712 221.145 568.071 221.484C569.43 221.824 571.128 222.164 572.487 222.504C573.846 222.843 575.205 223.523 576.564 223.862L573.846 230.317C572.827 229.977 571.808 229.638 570.789 228.958C569.769 228.618 568.75 228.279 567.391 227.939C566.033 227.599 565.014 227.26 563.655 227.26C562.296 226.92 560.937 226.92 559.238 226.92C557.54 226.92 556.181 227.26 554.822 227.599C553.463 227.939 552.104 228.618 551.085 229.298C550.066 229.977 549.047 230.996 548.368 232.016C547.688 233.035 547.348 234.733 547.348 236.092C547.348 237.791 547.688 239.489 548.368 240.508C549.047 241.528 550.066 242.547 551.425 243.566C552.784 244.245 554.143 244.925 556.181 245.604C557.88 246.284 560.258 246.623 562.636 247.303C565.353 247.982 567.731 248.662 569.769 249.681C572.147 250.36 573.846 251.719 575.545 253.078C577.243 254.437 578.602 256.135 579.281 258.173C580.301 260.212 580.64 262.59 580.64 265.647C580.64 268.705 579.961 271.422 578.942 273.8C577.923 276.178 576.224 277.877 574.186 279.575C572.147 280.934 569.769 282.293 566.712 282.972C563.994 283.652 560.937 283.992 557.54 283.992C551.085 283.992 544.97 282.633 539.195 280.255L541.573 274.14Z" fill="white"/>
<path d="M588.453 221.483H634.654V227.938H615.63V282.971H607.477V227.938H588.453V221.483Z" fill="white"/>
<path d="M686.291 221.483H694.444V257.153C694.444 265.986 692.406 272.78 688.329 277.536C684.253 281.952 678.138 284.33 669.985 284.33C653.678 284.33 645.525 275.498 645.525 257.493V221.823H653.679V257.493C653.679 260.55 654.018 263.268 654.358 265.646C655.037 268.024 655.717 270.062 657.076 272.1C658.434 273.799 660.133 275.158 662.171 276.177C664.21 277.196 666.927 277.536 669.985 277.536C672.363 277.536 674.741 277.196 676.779 276.517C678.817 275.837 680.176 274.818 681.535 273.799C682.894 272.78 683.913 271.081 684.592 269.383C685.272 267.684 685.951 265.646 686.291 263.947C686.631 261.909 686.631 259.871 686.631 257.153V221.483H686.291Z" fill="white"/>
<path d="M709.392 282.971V221.483H722.301C725.698 221.483 729.095 221.823 732.152 222.163C735.21 222.502 737.927 223.182 740.305 223.861C742.683 224.88 745.061 225.899 746.76 227.258C748.798 228.617 750.157 230.655 751.516 232.694C752.875 235.072 753.894 237.789 754.573 240.847C755.253 243.904 755.593 247.641 755.593 252.057C755.593 256.134 755.253 259.871 754.573 263.268C753.894 266.325 752.875 269.043 751.516 271.421C750.157 273.799 748.459 275.498 746.76 277.196C744.722 278.555 742.683 279.914 740.305 280.593C737.927 281.612 734.87 281.952 732.152 282.632C729.095 282.971 726.038 283.311 722.301 283.311H709.392V282.971ZM723.66 276.517C728.076 276.517 731.813 276.177 734.87 275.158C737.928 274.139 740.305 272.78 742.344 270.742C744.382 268.703 745.741 266.325 746.42 263.268C747.439 260.21 747.779 256.474 747.779 252.057C747.779 247.641 747.439 243.904 746.42 240.847C745.401 237.789 744.042 235.411 742.344 233.373C740.305 231.335 737.928 229.976 734.87 229.297C731.813 228.277 728.076 227.938 723.66 227.938H717.205V276.177H723.66V276.517Z" fill="white"/>
<path d="M769.181 221.483H777.334V282.971H769.181V221.483Z" fill="white"/>
<path d="M844.597 252.398C844.597 262.59 842.219 270.403 837.463 275.839C832.707 281.274 826.253 283.992 817.42 283.992C808.588 283.992 802.133 281.274 797.377 275.839C792.621 270.403 790.243 262.59 790.243 252.059C790.243 241.528 792.621 234.054 797.377 228.618C802.133 223.183 808.588 220.465 817.42 220.465C826.253 220.465 832.707 223.183 837.463 228.618C842.219 234.394 844.597 242.207 844.597 252.398ZM836.444 252.398C836.444 244.585 834.746 238.47 831.688 234.054C828.631 229.638 823.875 227.599 817.76 227.599C811.305 227.599 806.889 229.977 803.832 234.394C800.774 238.81 799.076 244.925 799.076 252.738C799.076 256.475 799.415 259.872 800.095 262.929C800.774 265.987 801.793 268.705 803.492 270.743C804.851 272.781 806.889 274.48 809.267 275.839C811.645 276.858 814.363 277.537 817.76 277.537C823.875 277.537 828.631 275.499 831.688 271.083C834.746 266.327 836.444 260.212 836.444 252.398Z" fill="white"/>
<path d="M856.826 274.14C857.845 274.48 859.204 275.159 860.563 275.499C861.922 275.839 863.281 276.178 864.64 276.518C865.998 276.858 867.357 277.197 868.716 277.197C870.075 277.197 871.434 277.537 872.793 277.537C875.171 277.537 877.209 277.197 878.908 276.858C880.606 276.178 882.305 275.499 883.664 274.48C885.022 273.461 886.042 272.102 886.721 270.743C887.4 269.384 887.74 267.685 887.74 265.647C887.74 263.609 887.4 262.25 886.721 261.231C886.042 259.872 885.022 259.193 883.664 258.173C882.305 257.494 880.946 256.815 878.908 256.135C877.209 255.456 874.831 255.116 872.453 254.437C869.735 253.757 867.357 253.078 865.319 252.059C863.281 251.039 861.242 250.02 859.544 248.662C857.845 247.303 856.826 245.604 855.807 243.566C854.788 241.528 854.448 239.15 854.448 236.092C854.448 233.714 854.788 231.336 855.807 229.638C856.826 227.599 858.185 225.901 859.884 224.542C861.582 223.183 863.62 222.164 866.338 221.484C868.716 220.805 871.434 220.465 874.491 220.465C875.85 220.465 877.549 220.465 878.908 220.805C880.266 220.805 881.965 221.145 883.324 221.484C884.683 221.824 886.381 222.164 887.74 222.504C889.099 222.843 890.458 223.523 891.817 223.862L889.099 230.317C888.08 229.977 887.061 229.638 886.042 228.958C885.022 228.618 884.003 228.279 882.644 227.939C881.286 227.599 880.266 227.26 878.908 227.26C877.549 226.92 876.19 226.92 874.491 226.92C872.793 226.92 871.434 227.26 870.075 227.599C868.716 227.939 867.357 228.618 866.338 229.298C865.319 229.977 864.3 230.996 863.62 232.016C862.941 233.035 862.601 234.733 862.601 236.092C862.601 237.791 862.941 239.489 863.62 240.508C864.3 241.528 865.319 242.547 866.678 243.566C868.037 244.245 869.396 244.925 871.434 245.604C873.132 246.284 875.51 246.623 877.888 247.303C880.606 247.982 882.984 248.662 885.022 249.681C887.4 250.36 889.099 251.719 890.798 253.078C892.496 254.437 893.855 256.135 894.534 258.173C895.554 260.212 895.893 262.59 895.893 265.647C895.893 268.705 895.214 271.422 894.195 273.8C893.175 276.178 891.477 277.877 889.439 279.575C887.4 280.934 885.022 282.293 881.965 282.972C879.247 283.652 876.19 283.992 872.793 283.992C866.338 283.992 860.223 282.633 854.448 280.255L856.826 274.14Z" fill="white"/>
<path d="M559.239 150.483C571.129 150.483 580.641 140.971 580.641 129.081C580.641 117.191 571.129 107.679 559.239 107.679C547.349 107.679 537.837 117.191 537.837 129.081C537.837 140.971 547.689 150.483 559.239 150.483Z" fill="white"/>
<path fill-rule="evenodd" clip-rule="evenodd" d="M615.631 145.387C616.989 140.292 617.669 135.196 617.669 129.761C617.669 124.325 616.989 119.23 615.631 114.134C614.272 109.038 612.233 104.622 609.855 100.206C607.477 95.7894 604.42 92.0526 600.683 88.3157C596.946 84.5789 593.21 81.5215 588.793 79.1435C584.377 76.7655 579.961 74.7272 574.865 73.3684C569.769 72.0095 564.674 71.3301 559.238 71.3301C553.803 71.3301 548.707 72.0095 543.611 73.3684C538.516 74.7272 534.099 76.7655 529.683 79.1435C525.267 81.5215 521.53 84.5789 517.793 88.3157C514.056 92.0526 510.999 95.7894 508.621 100.206C506.243 104.622 504.205 109.038 502.846 114.134C501.487 119.23 500.808 124.325 500.808 129.761C500.808 135.196 501.487 140.292 502.846 145.387C504.205 150.483 506.243 154.899 508.621 159.316C511.339 163.732 514.396 167.469 517.793 171.206C521.53 174.942 525.267 178 529.683 180.378C534.099 182.756 538.855 184.794 543.611 186.153C548.707 187.512 553.803 188.191 559.238 188.191C564.674 188.191 569.769 187.512 574.865 186.153C579.961 184.794 584.377 182.756 588.793 180.378C593.21 177.66 596.946 174.603 600.683 171.206C604.42 167.469 607.477 163.732 609.855 159.316C612.573 154.899 614.272 150.483 615.631 145.387ZM592.53 115.832C594.568 120.249 595.248 125.005 595.248 129.761C595.248 134.856 594.229 139.273 592.53 143.689C590.492 148.105 588.114 151.842 584.717 155.239C581.659 158.636 577.583 161.014 573.166 163.053C568.75 165.091 563.994 165.77 559.238 165.77C554.143 165.77 549.387 164.751 545.31 163.053C540.894 161.014 537.157 158.636 533.76 155.239C530.363 151.842 527.985 148.105 525.946 143.689C523.908 139.273 523.229 134.517 523.229 129.761C523.229 124.665 524.248 120.249 525.946 115.832C527.985 111.416 530.363 107.679 533.76 104.282C537.157 100.885 540.894 98.5071 545.31 96.4688C549.726 94.4305 554.482 93.7511 559.238 93.7511C564.334 93.7511 568.75 94.7702 573.166 96.4688C577.583 98.5071 581.32 100.885 584.717 104.282C588.114 107.679 590.492 111.416 592.53 115.832Z" fill="white"/>
<path d="M403.989 93.4127C402.291 97.4892 401.271 101.905 401.271 106.661C401.271 111.417 402.291 115.834 403.989 119.91C405.688 123.987 408.066 127.724 411.123 130.781C414.181 133.839 417.917 136.217 421.994 137.915C426.071 139.614 430.487 140.633 435.243 140.633H458.004C459.702 140.633 461.061 140.972 462.42 141.652C463.779 142.331 465.138 143.011 465.817 144.03C466.836 145.049 467.855 146.068 468.195 147.427C468.874 148.786 469.214 150.145 469.214 151.843C469.214 153.542 468.874 154.901 468.195 156.26C467.515 157.618 466.836 158.977 465.817 159.996C464.798 161.016 463.779 161.695 462.42 162.374C461.061 163.054 459.702 163.394 458.004 163.394H407.726V186.154H458.004C462.76 186.154 467.176 185.135 471.252 183.437C475.329 181.738 479.066 179.36 482.123 176.303C485.181 173.245 487.559 169.508 489.257 165.432C490.956 161.355 491.975 156.939 491.975 152.183C491.975 147.427 490.956 143.011 489.257 138.934C487.559 134.858 485.181 131.121 482.123 128.063C479.066 125.006 475.329 122.628 471.252 120.929C467.176 119.231 462.76 118.212 458.004 118.212H435.243C433.544 118.212 432.185 117.872 430.827 117.193C429.468 116.513 428.109 115.834 427.09 114.815C426.071 113.795 425.391 112.437 424.712 111.078C424.032 109.719 423.693 108.02 423.693 106.661C423.693 104.963 424.032 103.604 424.712 102.245C425.391 100.886 426.071 99.5275 427.09 98.8481C428.109 97.829 429.468 96.8098 430.827 96.4701C432.185 95.7907 433.544 95.451 435.243 95.451H487.219V72.6902H435.243C430.487 72.6902 426.071 73.7093 421.994 75.4079C417.917 77.1065 414.181 79.4844 411.123 82.8816C408.066 85.5993 405.688 89.3361 403.989 93.4127Z" fill="white"/>
<path d="M712.109 186.154H632.616V72.6902H655.377V163.394H712.109V186.154Z" fill="white"/>
<path fill-rule="evenodd" clip-rule="evenodd" d="M790.922 186.154H813.683V118.212C813.683 112.097 812.664 105.982 810.286 100.547C807.908 95.1113 804.511 90.3553 800.434 85.939C796.358 81.8625 791.602 78.4653 785.827 76.0873C780.391 73.7093 774.616 72.6902 768.161 72.6902C762.047 72.6902 755.932 73.7093 750.496 76.0873C745.061 78.4653 740.305 81.8625 736.228 85.939C732.152 90.0156 729.094 94.7716 726.716 100.547C724.338 105.982 723.319 111.757 723.319 118.212V186.154H746.08V163.394H791.602V186.154H790.922ZM790.922 117.872V140.633H745.401V117.872C745.401 114.815 746.08 111.757 747.099 109.04C748.458 106.322 749.817 103.944 751.855 101.906C753.893 99.8672 756.271 98.1687 758.989 97.1496C761.707 95.7907 764.764 95.451 767.822 95.451C770.879 95.451 773.937 96.1304 776.654 97.1496C779.372 98.1687 781.75 99.8672 783.788 101.906C785.826 103.944 787.525 106.322 788.544 109.04C790.243 112.097 790.922 114.815 790.922 117.872Z" fill="white"/>
<path fill-rule="evenodd" clip-rule="evenodd" d="M855.808 186.154H833.047V72.6902H878.568C882.645 72.6902 886.721 73.3696 890.458 74.3887C894.195 75.4079 897.932 77.1065 901.329 79.1448C904.726 81.183 907.784 83.561 910.501 86.2787C913.219 88.9964 915.597 92.0539 917.635 95.451C919.674 98.8481 921.033 102.585 922.052 106.322C923.071 110.059 923.75 114.135 923.75 118.212C923.75 121.949 923.411 126.025 922.391 129.762C921.372 133.499 920.013 136.896 918.315 140.293C916.616 143.69 914.238 146.748 911.521 149.465C908.803 152.183 906.085 154.561 902.688 156.599L915.257 186.154H891.138L881.286 163.394H855.808V186.154ZM855.808 140.633H878.568C881.626 140.633 884.683 139.953 887.401 138.934C890.119 137.575 892.497 136.217 894.535 134.178C896.573 132.14 898.272 129.762 899.291 127.044C900.65 124.327 900.989 121.269 900.989 118.212C900.989 115.154 900.31 112.097 899.291 109.379C898.272 106.661 896.573 104.284 894.535 102.245C892.497 100.207 890.119 98.5084 887.401 97.4892C884.683 96.1304 881.626 95.7907 878.568 95.7907H855.808V140.633Z" fill="white"/>
<path fill-rule="evenodd" clip-rule="evenodd" d="M1005.62 186.154H1028.38V118.212C1028.38 112.097 1027.36 105.982 1024.98 100.547C1022.61 95.1113 1019.21 90.3553 1015.13 85.939C1011.06 81.8625 1006.3 78.4653 1000.52 76.0873C995.089 73.7093 989.314 72.6902 982.86 72.6902C976.745 72.6902 970.63 73.7093 965.195 76.0873C959.759 78.4653 955.003 81.8625 950.927 85.939C946.85 90.0156 943.793 94.7716 941.415 100.547C939.037 105.982 938.018 111.757 938.018 118.212V186.154H960.778V163.394H1006.3V186.154H1005.62ZM1005.62 117.872V140.633H960.099V117.872C960.099 114.815 960.778 111.757 961.797 109.04C963.156 106.322 964.515 103.944 966.553 101.906C968.592 99.8672 970.97 98.1687 973.687 97.1496C976.405 95.7907 979.463 95.451 982.52 95.451C985.577 95.451 988.635 96.1304 991.353 97.1496C994.07 98.1687 996.448 99.8672 998.486 101.906C1000.52 103.944 1002.22 106.322 1003.24 109.04C1004.94 112.097 1005.62 114.815 1005.62 117.872Z" fill="white"/>
<path d="M202.955 71.1106L207.044 82.3186L218.252 86.408L207.044 90.4974L202.955 101.705L198.865 90.4974L187.657 86.408L198.865 82.3186L202.955 71.1106Z" fill="white"/>
<path d="M153.276 97.6162L155.699 104.28L162.364 106.704L155.699 109.127L153.276 115.791L150.853 109.127L144.188 106.704L150.853 104.28L153.276 97.6162Z" fill="white"/>
<path d="M249.604 97.6162L252.028 104.28L258.692 106.704L252.028 109.127L249.604 115.791L247.181 109.127L240.517 106.704L247.181 104.28L249.604 97.6162Z" fill="white"/>
<path d="M235.367 249.529C235.367 251.801 233.55 253.618 231.278 253.618C229.006 253.618 227.188 251.801 227.188 249.529C227.188 247.257 229.006 245.439 231.278 245.439C233.55 245.288 235.367 247.257 235.367 249.529Z" fill="white"/>
<path d="M268.082 214.391C268.082 213.179 269.142 212.119 270.354 212.119C271.566 212.119 272.626 213.179 272.626 214.391C272.626 215.602 271.566 216.663 270.354 216.663C269.142 216.663 268.082 215.754 268.082 214.391Z" fill="white"/>
<path d="M302.312 40.6667L306.401 51.8748L317.609 55.9642L306.401 60.0536L302.312 71.2616L298.223 60.0536L287.015 55.9642L298.223 51.8748L302.312 40.6667Z" fill="white"/>
<path d="M287.015 262.404L284.592 255.739L277.928 253.316L284.592 250.893L287.015 244.229L289.439 250.893L296.103 253.316L289.439 255.739L287.015 262.404Z" fill="white"/>
<path d="M86.4825 42.0305L84.3621 35.9721L78.3037 33.8517L84.3621 31.7312L86.4825 25.6729L88.603 31.7312L94.6613 33.8517L88.603 35.9721L86.4825 42.0305Z" fill="white"/>
<path d="M85.5735 228.477L87.391 233.475L92.3892 235.292L87.391 237.11L85.5735 242.108L83.756 237.11L78.7578 235.292L83.756 233.475L85.5735 228.477Z" fill="white"/>
<path d="M307.613 171.225L310.036 177.889L316.701 180.312L310.036 182.736L307.613 189.4L305.19 182.736L298.525 180.312L305.19 177.889L307.613 171.225Z" fill="white"/>
<path d="M297.314 156.23C293.225 159.713 288.984 163.348 284.592 166.832H108.444C108.141 163.197 108.141 159.562 108.293 155.775C108.747 146.991 110.262 138.509 112.988 130.482H292.619C295.345 138.661 296.86 147.294 297.314 156.23Z" fill="white"/>
<path d="M280.654 170.013C265.053 182.433 247.939 194.55 229.46 206.363H120.107C114.048 195.307 109.959 183.039 108.596 170.013H280.654Z" fill="white"/>
<path d="M224.462 209.544C202.5 223.176 180.842 234.989 159.94 244.834C144.34 236.807 131.163 224.539 122.075 209.544H224.462Z" fill="white"/>
<path d="M76.789 138.963C26.2015 184.856 -8.93715 238.927 5.60298 261.949C26.5044 295.27 124.347 271.642 224.159 208.938C323.971 146.385 387.887 68.5346 366.986 35.2135C351.84 10.9799 295.8 16.8869 228.097 45.9671" stroke="white" stroke-width="4.54379" stroke-miterlimit="10"/>
<path d="M298.071 148.203C297.92 150.929 297.768 153.504 297.465 156.079V156.685V156.23C297.162 147.294 295.496 138.661 292.77 130.482C280.805 93.9805 247.332 67.0207 206.741 65.2032C163.121 63.2342 124.953 90.9513 111.927 130.482C109.353 138.51 107.686 146.991 107.232 155.776C107.081 159.411 107.081 163.198 107.384 166.833C107.384 167.893 107.535 168.953 107.686 170.013C109.05 183.039 112.988 195.307 119.197 206.364C119.803 207.424 120.409 208.484 121.015 209.544C130.254 224.539 143.431 236.958 159.334 244.986C159.94 245.289 160.546 245.592 161 245.895C169.936 250.135 179.63 253.165 189.929 254.528H181.447C170.845 254.073 160.697 252.104 151.004 248.924C106.02 233.929 74.3654 191.066 75.1227 141.539C75.1227 140.327 75.1227 139.267 75.2741 138.055C78.1519 76.5626 130.254 29.0043 191.747 31.8821C207.65 32.6394 222.644 36.7288 236.124 43.2415C269.445 59.7506 293.073 92.4659 297.465 130.482C298.071 136.238 298.223 142.145 298.071 148.203Z" fill="white"/>
</g>
<defs>
<clipPath id="clip0_2107_2100">
<rect width="1028" height="286" fill="white" transform="translate(0 0.330078)"/>
</clipPath>
</defs>
</svg>
