<svg width="1029" height="288" viewBox="0 0 1029 288" fill="none" xmlns="http://www.w3.org/2000/svg">
<g clip-path="url(#clip0_2107_2067)">
<path d="M299.132 148.774C298.98 151.652 298.829 154.53 298.375 157.256C296.709 108.183 257.481 67.8947 207.65 65.6228C155.094 63.1994 110.716 103.791 108.293 156.347C106.021 206.177 142.523 248.889 191.141 255.099C188.415 255.25 185.537 255.099 182.66 255.099C121.167 252.221 73.6086 200.119 76.4863 138.626C79.364 77.1337 131.466 29.5754 192.959 32.4531C254.451 35.3308 301.858 87.2815 299.132 148.774Z" fill="black"/>
<path d="M329.121 2.33008H46.1943V285.257H329.121V2.33008Z" stroke="black" stroke-width="3.02919"/>
<path d="M541.763 275.138C542.782 275.478 544.141 276.157 545.5 276.497C546.858 276.837 548.217 277.177 549.576 277.516C550.935 277.856 552.294 278.196 553.653 278.196C555.012 278.196 556.37 278.535 557.729 278.535C560.107 278.535 562.146 278.196 563.844 277.856C565.543 277.177 567.241 276.497 568.6 275.478C569.959 274.459 570.978 273.1 571.657 271.741C572.337 270.382 572.677 268.684 572.677 266.645C572.677 264.947 572.337 263.248 571.657 262.229C570.978 260.87 569.959 260.191 568.6 259.172C567.241 258.492 565.882 257.813 563.844 257.133C562.146 256.454 559.768 256.114 557.39 255.435C554.672 254.755 552.294 254.076 550.256 253.057C548.217 252.038 546.179 251.019 544.48 249.66C542.782 248.301 541.763 246.602 540.744 244.564C539.724 242.526 539.385 240.148 539.385 237.09C539.385 234.712 539.724 232.334 540.744 230.636C541.763 228.598 543.122 226.899 544.82 225.54C546.519 224.181 548.557 223.162 551.275 222.483C553.653 221.803 556.37 221.464 559.428 221.464C560.787 221.464 562.485 221.464 563.844 221.803C565.203 221.803 566.902 222.143 568.26 222.483C569.619 222.822 571.318 223.162 572.677 223.502C574.035 223.842 575.394 224.521 576.753 224.861L574.035 231.315C573.016 230.976 571.997 230.636 570.978 229.956C569.959 229.617 568.94 229.277 567.581 228.937C566.222 228.598 565.203 228.258 563.844 228.258C562.485 227.918 561.126 227.918 559.428 227.918C557.729 227.918 556.37 228.258 555.012 228.598C553.653 228.937 552.294 229.617 551.275 230.296C550.256 230.976 549.236 231.995 548.557 233.014C547.878 234.033 547.538 235.732 547.538 237.09C547.538 238.789 547.878 240.488 548.557 241.507C549.236 242.526 550.256 243.545 551.614 244.564C552.973 245.244 554.332 245.923 556.37 246.602C558.069 247.282 560.447 247.622 562.825 248.301C565.543 248.98 567.921 249.66 569.959 250.679C572.337 251.358 574.035 252.717 575.734 254.076C577.433 255.435 578.791 257.133 579.471 259.172C580.49 261.21 580.83 263.588 580.83 266.645C580.83 269.703 580.15 272.421 579.131 274.799C578.112 277.177 576.413 278.875 574.375 280.574C572.337 281.932 569.959 283.291 566.902 283.971C564.184 284.65 561.126 284.99 557.729 284.99C551.275 284.99 545.16 283.631 539.385 281.253L541.763 275.138Z" fill="black"/>
<path d="M588.644 222.484H634.844V228.938H615.821V283.972H607.667V229.278H588.644V222.484Z" fill="black"/>
<path d="M686.48 222.483H694.634V258.153C694.634 266.986 692.595 273.78 688.519 278.536C684.442 282.952 678.327 285.33 670.174 285.33C653.868 285.33 645.715 276.498 645.715 258.493V222.483H653.868V258.153C653.868 261.21 654.208 263.928 654.547 266.306C655.227 268.684 655.906 270.722 657.265 272.761C658.624 274.459 660.323 275.818 662.361 276.837C664.399 277.856 667.117 278.196 670.174 278.196C672.552 278.196 674.93 277.856 676.968 277.177C679.007 276.497 680.366 275.478 681.724 274.459C683.083 273.44 684.102 271.742 684.782 270.043C685.461 268.344 686.141 266.306 686.48 264.608C686.82 262.569 686.82 260.531 686.82 257.813V222.483H686.48Z" fill="black"/>
<path d="M709.58 283.971V222.483H722.489C725.886 222.483 729.283 222.823 732.341 223.163C735.398 223.502 738.116 224.182 740.494 224.861C742.872 225.541 745.25 226.899 746.949 228.258C748.987 229.617 750.346 231.655 751.704 233.694C753.063 236.072 754.082 238.789 754.762 241.847C755.441 244.904 755.781 248.641 755.781 253.057C755.781 257.134 755.441 260.871 754.762 264.268C754.082 267.325 753.063 270.043 751.704 272.421C750.346 274.799 748.647 276.498 746.949 278.196C744.91 279.555 742.872 280.914 740.494 281.593C738.116 282.612 735.059 282.952 732.341 283.632C729.283 283.971 726.226 284.311 722.489 284.311H709.58V283.971ZM723.848 277.517C728.264 277.517 732.001 277.177 735.059 276.158C738.116 275.139 740.494 273.78 742.532 271.742C744.571 269.703 745.929 267.325 746.609 264.268C747.628 261.21 747.968 257.474 747.968 253.057C747.968 248.641 747.628 244.904 746.609 241.847C745.59 238.789 744.231 236.411 742.532 234.373C740.494 232.335 738.116 230.976 735.059 230.297C732.001 229.277 728.264 228.938 723.848 228.938H717.393V277.177H723.848V277.517Z" fill="black"/>
<path d="M769.37 222.483H777.523V283.971H769.37V222.483Z" fill="black"/>
<path d="M844.786 253.397C844.786 263.588 842.408 271.402 837.652 276.837C832.896 282.273 826.441 284.99 817.609 284.99C808.776 284.99 802.322 282.273 797.566 276.837C792.81 271.402 790.432 263.588 790.432 253.057C790.432 242.526 792.81 235.052 797.566 229.617C802.322 224.182 808.776 221.464 817.609 221.464C826.441 221.464 832.896 224.182 837.652 229.617C842.408 235.392 844.786 243.206 844.786 253.397ZM836.293 253.397C836.293 245.584 834.594 239.469 831.537 235.052C828.479 230.636 823.723 228.598 817.609 228.598C811.154 228.598 806.738 230.976 803.68 235.392C800.623 239.808 798.924 245.923 798.924 253.737C798.924 257.473 799.264 260.871 799.944 263.928C800.623 266.985 801.642 269.703 803.341 271.741C804.7 273.78 806.738 275.478 809.116 276.837C811.494 277.856 814.212 278.536 817.609 278.536C823.723 278.536 828.479 276.497 831.537 272.081C834.934 267.325 836.293 261.21 836.293 253.397Z" fill="black"/>
<path d="M856.676 275.139C857.695 275.478 859.054 276.158 860.413 276.497C861.772 276.837 863.13 277.177 864.489 277.516C865.848 277.856 867.207 278.196 868.566 278.196C869.925 278.196 871.284 278.536 872.642 278.536C875.02 278.536 877.059 278.196 878.757 277.856C880.456 277.177 882.154 276.497 883.513 275.478C884.872 274.459 885.891 273.1 886.571 271.741C887.25 270.383 887.59 268.684 887.59 266.646C887.59 264.947 887.25 263.249 886.571 262.229C885.891 260.871 884.872 260.191 883.513 259.172C882.154 258.493 880.795 257.813 878.757 257.134C877.059 256.454 874.681 256.115 872.303 255.435C869.585 254.756 867.207 254.076 865.169 253.057C863.13 252.038 861.092 251.019 859.394 249.66C857.695 248.301 856.676 246.603 855.657 244.564C854.638 242.526 854.298 240.148 854.298 237.091C854.298 234.713 854.638 232.335 855.657 230.636C856.676 228.598 858.035 226.899 859.733 225.54C861.432 224.182 863.47 223.162 866.188 222.483C868.566 221.804 871.284 221.464 874.341 221.464C875.7 221.464 877.398 221.464 878.757 221.804C880.116 221.804 881.815 222.143 883.173 222.483C884.532 222.823 886.231 223.162 887.59 223.502C888.949 223.842 890.307 224.521 891.666 224.861L888.949 231.316C887.929 230.976 886.91 230.636 885.891 229.957C884.872 229.617 883.853 229.277 882.494 228.938C881.135 228.598 880.116 228.258 878.757 228.258C877.398 227.918 876.04 227.918 874.341 227.918C872.642 227.918 871.284 228.258 869.925 228.598C868.566 228.938 867.207 229.617 866.188 230.296C865.169 230.976 864.15 231.995 863.47 233.014C862.791 234.033 862.451 235.732 862.451 237.091C862.451 238.789 862.791 240.488 863.47 241.507C864.15 242.526 865.169 243.545 866.528 244.564C867.886 245.244 869.245 245.923 871.283 246.603C872.982 247.282 875.36 247.622 877.738 248.301C880.456 248.981 882.834 249.66 884.872 250.679C887.25 251.359 888.949 252.717 890.647 254.076C892.346 255.435 893.705 257.134 894.384 259.172C895.403 261.21 895.743 263.588 895.743 266.646C895.743 269.703 895.063 272.421 894.044 274.799C893.025 277.177 891.327 278.875 889.288 280.574C887.25 281.933 884.872 283.292 881.815 283.971C879.097 284.65 876.04 284.99 872.642 284.99C866.188 284.99 860.073 283.631 854.298 281.253L856.676 275.139Z" fill="black"/>
<path d="M559.427 151.483C571.317 151.483 580.829 141.971 580.829 130.081C580.829 118.191 571.317 108.679 559.427 108.679C547.537 108.679 538.025 118.191 538.025 130.081C538.025 141.971 547.537 151.483 559.427 151.483Z" fill="black"/>
<path fill-rule="evenodd" clip-rule="evenodd" d="M615.82 146.387C617.179 141.292 617.858 136.196 617.858 130.761C617.858 125.325 617.179 120.23 615.82 115.134C614.461 110.038 612.423 105.622 610.045 101.206C607.667 96.7894 604.609 93.0526 600.873 89.3157C597.136 85.5789 593.399 82.5215 588.983 80.1435C584.566 77.7655 580.15 75.7272 575.054 74.3684C569.959 73.0095 564.863 72.3301 559.428 72.3301C553.992 72.3301 548.897 73.0095 543.801 74.3684C538.705 75.7272 534.289 77.7655 529.873 80.1435C525.456 82.5215 521.72 85.5789 517.983 89.3157C514.246 93.0526 511.188 96.7894 508.81 101.206C506.432 105.622 504.394 110.038 503.035 115.134C501.677 120.23 500.997 125.325 500.997 130.761C500.997 136.196 501.677 141.292 503.035 146.387C504.394 151.483 506.432 155.899 508.81 160.316C511.528 164.732 514.586 168.469 517.983 172.206C521.72 175.942 525.456 179 529.873 181.378C534.289 183.756 539.045 185.794 543.801 187.153C548.897 188.512 553.992 189.191 559.428 189.191C564.863 189.191 569.959 188.512 575.054 187.153C580.15 185.794 584.566 183.756 588.983 181.378C593.399 178.66 597.136 175.603 600.873 172.206C604.609 168.809 607.667 164.732 610.045 160.316C612.423 156.239 614.461 151.483 615.82 146.387ZM592.72 116.832C594.758 121.249 595.437 126.005 595.437 130.761C595.437 135.856 594.418 140.273 592.72 144.689C590.681 149.105 588.303 152.842 584.906 156.239C581.849 159.636 577.772 162.014 573.356 164.053C568.94 166.091 564.184 166.77 559.428 166.77C554.332 166.77 549.576 165.751 545.499 164.053C541.083 162.014 537.346 159.636 533.949 156.239C530.552 152.842 528.174 149.105 526.136 144.689C524.098 140.273 523.418 135.517 523.418 130.761C523.418 125.665 524.437 121.249 526.136 116.832C528.174 112.416 530.552 108.679 533.949 105.282C537.346 101.885 541.083 99.5071 545.499 97.4688C549.916 95.4305 554.672 94.7511 559.428 94.7511C564.523 94.7511 568.94 95.7702 573.356 97.4688C577.772 99.5071 581.509 101.885 584.906 105.282C588.303 108.679 590.681 112.416 592.72 116.832Z" fill="black"/>
<path d="M403.839 94.4115C402.14 98.488 401.121 102.904 401.121 107.66C401.121 112.416 402.14 116.833 403.839 120.909C405.537 124.986 407.915 128.722 410.973 131.78C414.03 134.837 417.767 137.215 421.844 138.914C425.92 140.612 430.336 141.632 435.092 141.632H457.853C459.552 141.632 460.911 141.971 462.269 142.651C463.628 143.33 464.987 144.01 465.667 145.029C466.686 146.048 467.705 147.067 468.045 148.426C468.724 149.785 469.064 151.144 469.064 152.842C469.064 154.541 468.724 155.899 468.045 157.258C467.365 158.617 466.686 159.976 465.667 160.995C464.647 162.014 463.628 162.694 462.269 163.373C460.911 164.053 459.552 164.392 457.853 164.392H407.576V187.153H457.853C462.609 187.153 467.025 186.134 471.102 184.435C475.179 182.737 478.915 180.359 481.973 177.301C485.03 174.244 487.408 170.507 489.107 166.431C490.805 162.354 491.824 157.938 491.824 153.182C491.824 148.426 490.805 144.01 489.107 139.933C487.408 135.856 485.03 132.12 481.973 129.062C478.915 126.005 475.179 123.627 471.102 121.928C467.025 120.23 462.609 119.211 457.853 119.211H435.092C433.394 119.211 432.035 118.871 430.676 118.191C429.317 117.512 427.958 116.833 426.939 115.813C425.92 114.794 425.241 113.435 424.561 112.077C423.882 110.718 423.542 109.019 423.542 107.66C423.542 105.962 423.882 104.603 424.561 103.244C425.241 101.885 425.92 100.526 426.939 99.8469C427.958 98.8278 429.317 97.8086 430.676 97.4689C432.035 96.7894 433.394 96.4498 435.092 96.4498H487.408V73.689H435.432C430.676 73.689 426.26 74.7081 422.183 76.4067C418.107 78.1052 414.37 80.4832 411.312 83.8804C408.255 86.9378 405.877 90.3349 403.839 94.4115Z" fill="black"/>
<path d="M712.298 187.153H632.806V73.6885H655.566V164.392H712.298V187.153Z" fill="black"/>
<path fill-rule="evenodd" clip-rule="evenodd" d="M791.112 187.153H813.872V119.211C813.872 113.096 812.853 106.981 810.475 101.545C808.097 96.1101 804.7 91.3541 800.624 86.9378C796.547 82.8612 791.791 79.4641 786.016 77.0861C780.581 74.7081 774.805 73.689 768.351 73.689C761.896 73.689 756.121 74.7081 750.686 77.0861C745.25 79.4641 740.494 82.8612 736.418 86.9378C732.341 91.0144 729.284 95.7703 726.906 101.545C724.528 106.981 723.509 112.756 723.509 119.211V187.153H746.27V164.392H791.791V187.153H791.112ZM791.112 119.211V141.971H745.59V119.211C745.59 116.153 746.27 113.096 747.289 110.378C748.648 107.66 750.006 105.282 752.045 103.244C754.083 101.206 756.461 99.5072 759.179 98.488C761.896 97.1292 764.954 96.7894 768.011 96.7894C771.069 96.7894 774.126 97.4689 776.844 98.488C779.561 99.5072 781.939 101.206 783.978 103.244C786.016 105.282 787.714 107.66 788.734 110.378C790.432 113.096 791.112 115.813 791.112 119.211Z" fill="black"/>
<path fill-rule="evenodd" clip-rule="evenodd" d="M855.997 187.153H833.236V73.6885H878.758C882.834 73.6885 886.911 74.3679 890.648 75.387C894.385 76.4062 898.122 78.1048 901.519 80.1431C904.916 82.1813 907.973 84.5593 910.691 87.277C913.409 89.9947 915.787 93.0522 917.825 96.4493C919.863 99.8464 921.222 103.583 922.241 107.32C923.26 111.057 923.94 115.133 923.94 119.21C923.94 122.947 923.6 127.023 922.581 130.76C921.562 134.497 920.203 137.894 918.504 141.291C916.806 144.688 914.428 147.746 911.71 150.464C908.992 153.181 906.275 155.559 902.877 157.598L915.447 187.153H891.327L881.476 164.392H855.997V187.153ZM855.997 141.631H878.758C881.815 141.631 884.873 140.952 887.59 139.932C890.308 138.574 892.686 137.215 894.724 135.177C896.763 133.138 898.461 130.76 899.48 128.043C900.839 125.325 901.179 122.267 901.179 119.21C901.179 116.153 900.499 113.095 899.48 110.377C898.461 107.66 896.763 105.282 894.724 103.244C892.686 101.205 890.308 99.5067 887.59 98.4875C884.873 97.1287 881.815 96.789 878.758 96.789H855.997V141.631Z" fill="black"/>
<path fill-rule="evenodd" clip-rule="evenodd" d="M1005.81 187.153H1028.57V119.211C1028.57 113.096 1027.55 106.981 1025.17 101.545C1022.8 96.1101 1019.4 91.3541 1015.32 86.9378C1011.25 82.8612 1006.49 79.4641 1000.71 77.0861C995.279 74.7081 989.504 73.689 983.049 73.689C976.595 73.689 970.819 74.7081 965.384 77.0861C959.949 79.4641 955.193 82.8612 951.116 86.9378C947.04 91.0144 943.982 95.7703 941.604 101.545C939.226 106.981 938.207 112.756 938.207 119.211V187.153H960.968V164.392H1006.49V187.153H1005.81ZM1005.81 119.211V141.971H960.288V119.211C960.288 116.153 960.968 113.096 961.987 110.378C963.346 107.66 964.705 105.282 966.743 103.244C968.781 101.206 971.159 99.5072 973.877 98.488C976.595 97.1292 979.652 96.7894 982.709 96.7894C985.767 96.7894 988.824 97.4689 991.542 98.488C994.26 99.5072 996.638 101.206 998.676 103.244C1000.71 105.282 1002.41 107.66 1003.43 110.378C1005.13 113.096 1005.81 115.813 1005.81 119.211Z" fill="black"/>
<path d="M202.955 71.6812L207.044 82.8892L218.252 86.9786L207.044 91.068L202.955 102.276L198.865 91.068L187.657 86.9786L198.865 82.8892L202.955 71.6812Z" fill="black"/>
<path d="M153.276 98.1865L155.699 104.851L162.364 107.274L155.699 109.697L153.276 116.362L150.853 109.697L144.188 107.274L150.853 104.851L153.276 98.1865Z" fill="black"/>
<path d="M249.604 98.1865L252.028 104.851L258.692 107.274L252.028 109.697L249.604 116.362L247.181 109.697L240.517 107.274L247.181 104.851L249.604 98.1865Z" fill="black"/>
<path d="M235.367 250.1C235.367 252.372 233.55 254.19 231.278 254.19C229.006 254.19 227.188 252.372 227.188 250.1C227.188 247.828 229.006 246.011 231.278 246.011C233.55 246.011 235.367 247.828 235.367 250.1Z" fill="black"/>
<path d="M268.082 214.962C268.082 213.75 269.142 212.69 270.354 212.69C271.566 212.69 272.626 213.75 272.626 214.962C272.626 216.174 271.566 217.234 270.354 217.234C269.142 217.234 268.082 216.325 268.082 214.962Z" fill="black"/>
<path d="M302.312 41.2378L306.401 52.4458L317.609 56.5352L306.401 60.6246L302.312 71.8326L298.223 60.6246L287.015 56.5352L298.223 52.4458L302.312 41.2378Z" fill="black"/>
<path d="M287.015 262.974L284.592 256.31L277.928 253.887L284.592 251.464L287.015 244.799L289.439 251.464L296.103 253.887L289.439 256.31L287.015 262.974Z" fill="black"/>
<path d="M86.4825 42.6008L84.3621 36.5424L78.3037 34.422L84.3621 32.3015L86.4825 26.2432L88.603 32.3015L94.6613 34.422L88.603 36.5424L86.4825 42.6008Z" fill="black"/>
<path d="M85.5735 229.048L87.391 234.046L92.3892 235.863L87.391 237.681L85.5735 242.679L83.756 237.681L78.7578 235.863L83.756 234.046L85.5735 229.048Z" fill="black"/>
<path d="M307.613 171.796L310.036 178.46L316.701 180.883L310.036 183.307L307.613 189.971L305.19 183.307L298.525 180.883L305.19 178.46L307.613 171.796Z" fill="black"/>
<path d="M297.314 156.801C293.225 160.285 288.984 163.92 284.592 167.404H108.444C108.141 163.768 108.141 160.133 108.293 156.347C108.747 147.562 110.262 139.081 112.988 131.053H292.619C295.345 139.232 296.86 147.865 297.314 156.801Z" fill="black"/>
<path d="M280.654 170.584C265.053 183.004 247.939 195.121 229.46 206.935H120.107C114.048 195.878 109.959 183.61 108.596 170.584H280.654Z" fill="black"/>
<path d="M224.311 210.115C202.349 223.747 180.69 235.56 159.789 245.405C144.188 237.378 131.011 225.11 121.924 210.115H224.311Z" fill="black"/>
<path d="M76.789 139.535C26.2015 185.427 -8.93715 239.498 5.60298 262.52C26.5044 295.841 124.347 272.214 224.159 209.509C323.971 146.957 387.887 69.1064 366.986 35.7853C351.84 11.5517 295.8 17.4586 228.097 46.5389" stroke="black" stroke-width="4.54379" stroke-miterlimit="10"/>
<path d="M297.92 148.774C297.768 151.5 297.617 154.075 297.314 156.65V157.256V156.801C297.011 147.865 295.345 139.232 292.619 131.053C280.653 94.5515 247.181 67.5917 206.59 65.7742C162.969 63.8052 124.802 91.5223 111.776 131.053C109.201 139.081 107.535 147.562 107.081 156.347C106.929 159.982 106.929 163.769 107.232 167.404C107.232 168.464 107.384 169.524 107.535 170.584C108.898 183.61 112.836 195.878 119.046 206.935C119.652 207.995 120.258 209.055 120.864 210.115C130.103 225.11 143.28 237.529 159.183 245.557C159.789 245.86 160.395 246.163 160.849 246.466C169.785 250.706 179.478 253.736 189.778 255.099H181.296C170.694 254.644 160.546 252.675 150.853 249.495C105.869 234.5 74.214 191.637 74.9713 142.11C74.9713 140.898 74.9713 139.838 75.1228 138.626C78.0005 77.1337 130.103 29.5754 191.595 32.4531C207.498 33.2104 222.493 37.2998 235.973 43.8126C269.294 60.3217 292.922 93.0369 297.314 131.053C298.071 136.809 298.223 142.716 297.92 148.774Z" fill="black"/>
</g>
<defs>
<clipPath id="clip0_2107_2067">
<rect width="1029" height="287" fill="white" transform="translate(0 0.330078)"/>
</clipPath>
</defs>
</svg>
