<svg width="33" height="32" viewBox="0 0 33 32" fill="none" xmlns="http://www.w3.org/2000/svg">
<g clip-path="url(#clip0_2295_2175)">
<path opacity="0.2" d="M31.5 15V23C31.5 23.2652 31.3946 23.5196 31.2071 23.7071C31.0196 23.8946 30.7652 24 30.5 24H27.5C27.5 23.2044 27.1839 22.4413 26.6213 21.8787C26.0587 21.3161 25.2956 21 24.5 21C23.7044 21 22.9413 21.3161 22.3787 21.8787C21.8161 22.4413 21.5 23.2044 21.5 24H13.5C13.5 23.2044 13.1839 22.4413 12.6213 21.8787C12.0587 21.3161 11.2956 21 10.5 21C9.70435 21 8.94129 21.3161 8.37868 21.8787C7.81607 22.4413 7.5 23.2044 7.5 24H4.5C4.23478 24 3.98043 23.8946 3.79289 23.7071C3.60536 23.5196 3.5 23.2652 3.5 23V18H23.5V15H31.5Z" fill="url(#paint0_linear_2295_2175)"/>
<path d="M32.4275 14.625L30.6775 10.25C30.529 9.87984 30.2728 9.56279 29.9421 9.33992C29.6114 9.11705 29.2213 8.99863 28.8225 9H24.5V8C24.5 7.73478 24.3946 7.48043 24.2071 7.29289C24.0196 7.10536 23.7652 7 23.5 7H4.5C3.96957 7 3.46086 7.21071 3.08579 7.58579C2.71071 7.96086 2.5 8.46957 2.5 9V23C2.5 23.5304 2.71071 24.0391 3.08579 24.4142C3.46086 24.7893 3.96957 25 4.5 25H6.625C6.8453 25.8604 7.3457 26.623 8.04731 27.1676C8.74892 27.7122 9.61183 28.0078 10.5 28.0078C11.3882 28.0078 12.2511 27.7122 12.9527 27.1676C13.6543 26.623 14.1547 25.8604 14.375 25H20.625C20.8453 25.8604 21.3457 26.623 22.0473 27.1676C22.7489 27.7122 23.6118 28.0078 24.5 28.0078C25.3882 28.0078 26.2511 27.7122 26.9527 27.1676C27.6543 26.623 28.1547 25.8604 28.375 25H30.5C31.0304 25 31.5391 24.7893 31.9142 24.4142C32.2893 24.0391 32.5 23.5304 32.5 23V15C32.5003 14.8715 32.4757 14.7441 32.4275 14.625ZM24.5 11H28.8225L30.0225 14H24.5V11ZM4.5 9H22.5V17H4.5V9ZM10.5 26C10.1044 26 9.71776 25.8827 9.38886 25.6629C9.05996 25.4432 8.80362 25.1308 8.65224 24.7654C8.50087 24.3999 8.46126 23.9978 8.53843 23.6098C8.6156 23.2219 8.80608 22.8655 9.08579 22.5858C9.36549 22.3061 9.72186 22.1156 10.1098 22.0384C10.4978 21.9613 10.8999 22.0009 11.2654 22.1522C11.6308 22.3036 11.9432 22.56 12.1629 22.8889C12.3827 23.2178 12.5 23.6044 12.5 24C12.5 24.5304 12.2893 25.0391 11.9142 25.4142C11.5391 25.7893 11.0304 26 10.5 26ZM20.625 23H14.375C14.1547 22.1396 13.6543 21.377 12.9527 20.8324C12.2511 20.2878 11.3882 19.9922 10.5 19.9922C9.61183 19.9922 8.74892 20.2878 8.04731 20.8324C7.3457 21.377 6.8453 22.1396 6.625 23H4.5V19H22.5V20.5387C22.0402 20.8045 21.6377 21.159 21.3158 21.5814C20.994 22.0039 20.7591 22.4861 20.625 23ZM24.5 26C24.1044 26 23.7178 25.8827 23.3889 25.6629C23.06 25.4432 22.8036 25.1308 22.6522 24.7654C22.5009 24.3999 22.4613 23.9978 22.5384 23.6098C22.6156 23.2219 22.8061 22.8655 23.0858 22.5858C23.3655 22.3061 23.7219 22.1156 24.1098 22.0384C24.4978 21.9613 24.8999 22.0009 25.2654 22.1522C25.6308 22.3036 25.9432 22.56 26.1629 22.8889C26.3827 23.2178 26.5 23.6044 26.5 24C26.5 24.5304 26.2893 25.0391 25.9142 25.4142C25.5391 25.7893 25.0304 26 24.5 26ZM30.5 23H28.375C28.1521 22.1417 27.6507 21.3815 26.9495 20.8387C26.2483 20.2958 25.3868 20.0008 24.5 20V16H30.5V23Z" fill="url(#paint1_linear_2295_2175)"/>
</g>
<defs>
<linearGradient id="paint0_linear_2295_2175" x1="-0.732558" y1="14.2413" x2="12.3084" y2="37.6131" gradientUnits="userSpaceOnUse">
<stop stop-color="#438AB0"/>
<stop offset="1" stop-color="#90E089"/>
</linearGradient>
<linearGradient id="paint1_linear_2295_2175" x1="-2.03488" y1="5.22899" x2="33.0638" y2="34.1023" gradientUnits="userSpaceOnUse">
<stop stop-color="#438AB0"/>
<stop offset="1" stop-color="#90E089"/>
</linearGradient>
<clipPath id="clip0_2295_2175">
<rect width="32" height="32" fill="white" transform="translate(0.5)"/>
</clipPath>
</defs>
</svg>
